<svg width="45" height="33" viewBox="0 0 45 33" fill="none" xmlns="http://www.w3.org/2000/svg">
<path d="M43.4824 1.13167L43.6548 0.5H43H35.4441H35.1255L34.9909 0.788737C33.5831 3.80868 32.1759 7.05479 30.7692 10.5268L30.7681 10.5297C29.403 13.96 28.1205 17.3904 26.9208 20.821L26.9208 20.821L26.919 20.8261C25.7592 24.261 24.8054 27.4921 24.0584 30.5189L24.0048 30.7359L24.1308 30.9206L25.0598 32.2818L25.2087 32.5H25.4728H36.435H36.8695L36.9302 32.0698C37.3416 29.1515 37.8974 25.9016 38.598 22.3195C39.2988 18.7361 40.0616 15.1112 40.8862 11.445C41.7519 7.73831 42.6173 4.30061 43.4824 1.13167ZM20.6908 1.13167L20.8632 0.5H20.2085H12.7145H12.3959L12.2613 0.788737C10.8528 3.8101 9.46574 7.0575 8.10001 10.5306C6.73441 13.9622 5.47216 17.394 4.31329 20.8261L4.31326 20.8261L4.31158 20.8312C3.1936 24.2648 2.26109 27.4941 1.51457 30.5189L1.46798 30.7077L1.56115 30.8783L2.30435 32.2396L2.44652 32.5H2.7432H13.6435H14.078L14.1386 32.0698C14.55 29.1515 15.1058 25.9016 15.8064 22.3195C16.5073 18.7361 17.27 15.1112 18.0946 11.445C18.9603 7.73831 19.8258 4.30061 20.6908 1.13167Z" stroke="#CDE0FF"/>
</svg>
