<svg width="166" height="94" viewBox="0 0 166 94" fill="none" xmlns="http://www.w3.org/2000/svg">
<path d="M35.7789 3.29616C36.6065 3.25902 37.2473 2.55802 37.2102 1.73042C37.173 0.902829 36.472 0.262035 35.6445 0.299171L35.7789 3.29616ZM7.63782 40.7435L8.5846 39.58L7.63782 40.7435ZM36.1953 35.1383L34.8715 34.433L36.1953 35.1383ZM24.7303 39.8111L26.0237 40.5708L24.7303 39.8111ZM18.9811 58.7812L20.4732 58.6271L18.9811 58.7812ZM39.4545 83.7233L40.0344 82.3399L39.4545 83.7233ZM103.483 90.1878L103.293 88.6998L103.483 90.1878ZM133.088 84.4307L132.711 82.9789L133.088 84.4307ZM165.008 73.942C165.347 73.1861 165.009 72.2985 164.253 71.9596L151.935 66.4368C151.179 66.0979 150.291 66.436 149.952 67.1919C149.613 67.9478 149.951 68.8354 150.707 69.1743L161.657 74.0834L156.748 85.0333C156.409 85.7893 156.747 86.6768 157.503 87.0157C158.259 87.3546 159.147 87.0166 159.486 86.2606L165.008 73.942ZM35.6445 0.299171C31.3774 0.490643 26.2345 2.1444 21.2684 4.67964C16.2841 7.22411 11.3536 10.7196 7.5216 14.7178C3.70992 18.6948 0.857964 23.3045 0.303754 28.0804C-0.264394 32.9764 1.61332 37.7748 6.69104 41.9069L8.5846 39.58C4.18806 36.0022 2.8497 32.1667 3.28376 28.4262C3.73175 24.5656 6.10028 20.5364 9.68745 16.7937C13.2543 13.0722 17.901 9.76702 22.6324 7.3516C27.382 4.92695 32.0933 3.46154 35.7789 3.29616L35.6445 0.299171ZM6.69104 41.9069C11.2626 45.6271 17.5421 46.7672 23.3216 45.701C29.1086 44.6333 34.6046 41.3135 37.5192 35.8437L34.8715 34.433C32.4706 38.9389 27.8562 41.8137 22.7773 42.7507C17.6911 43.6891 12.3496 42.6439 8.5846 39.58L6.69104 41.9069ZM37.5192 35.8437C38.6571 33.708 37.6817 30.9683 35.226 30.3022L34.4407 33.1976C34.8682 33.3135 35.1875 33.8399 34.8715 34.433L37.5192 35.8437ZM35.226 30.3022C32.0767 29.448 29.4778 31.1666 27.6484 33.0694C25.7975 34.9946 24.3554 37.4878 23.4369 39.0513L26.0237 40.5708C26.9781 38.946 28.2483 36.774 29.8111 35.1486C31.3954 33.5006 32.9116 32.7828 34.4407 33.1976L35.226 30.3022ZM23.4369 39.0513C21.8643 41.7286 20.2163 45.003 19.0413 48.4317C17.8715 51.8451 17.1355 55.5119 17.4891 58.9353L20.4732 58.6271C20.1818 55.8055 20.7822 52.6055 21.8793 49.4043C22.9711 46.2183 24.5203 43.1301 26.0237 40.5708L23.4369 39.0513ZM17.4891 58.9353C18.7683 71.32 28.1417 80.608 38.8747 85.1067L40.0344 82.3399C29.9681 78.1206 21.6058 69.5925 20.4732 58.6271L17.4891 58.9353ZM38.8747 85.1067C59.2662 93.6537 82.2604 94.4111 103.673 91.6757L103.293 88.6998C82.1704 91.3982 59.7617 90.6085 40.0344 82.3399L38.8747 85.1067ZM103.673 91.6757C114.577 90.2827 122.852 88.641 133.465 85.8824L132.711 82.9789C122.212 85.7077 114.062 87.3241 103.293 88.6998L103.673 91.6757ZM133.465 85.8824C144.39 83.0429 153.971 78.6164 164.174 74.7301L163.106 71.9266C152.658 75.9062 143.424 80.1944 132.711 82.9789L133.465 85.8824Z" fill="#0366FF"/>
</svg>
