<svg width="125" height="141" viewBox="0 0 125 141" fill="none" xmlns="http://www.w3.org/2000/svg">
<path d="M78.0469 6.72817C77.3111 7.10893 76.406 6.82115 76.0253 6.08541C75.6445 5.34967 75.9323 4.44457 76.668 4.06381L78.0469 6.72817ZM121.119 25.1396L119.718 24.6038L121.119 25.1396ZM93.574 34.5312L94.3693 33.2594L93.574 34.5312ZM105.841 32.8601L105.1 34.1638L105.841 32.8601ZM120.289 46.4315L118.919 47.0424L120.289 46.4315ZM114.991 78.2623L113.799 77.3527L114.991 78.2623ZM62.7285 115.812L62.1508 114.428L62.7285 115.812ZM34.1995 125.595L33.8021 124.148L34.1995 125.595ZM1.30298 132.432C0.632087 131.946 0.482223 131.008 0.968228 130.337L8.88821 119.405C9.37421 118.734 10.3121 118.584 10.983 119.07C11.6538 119.556 11.8037 120.494 11.3177 121.165L4.27772 130.882L13.9957 137.922C14.6666 138.408 14.8164 139.346 14.3304 140.017C13.8444 140.688 12.9066 140.838 12.2357 140.352L1.30298 132.432ZM76.668 4.06381C80.4615 2.10064 85.7436 0.96776 91.3124 0.686945C96.9014 0.405107 102.918 0.974247 108.234 2.52719C113.522 4.07188 118.294 6.64372 121.157 10.5061C124.092 14.4656 124.859 19.5609 122.52 25.6755L119.718 24.6038C121.743 19.3095 120.989 15.3177 118.747 12.2927C116.432 9.17055 112.369 6.86054 107.393 5.40683C102.445 3.96138 96.769 3.41559 91.4635 3.68314C86.1376 3.9517 81.3234 5.03251 78.0469 6.72817L76.668 4.06381ZM122.52 25.6755C120.415 31.1805 115.542 35.3018 110.001 37.2615C104.453 39.2237 98.0337 39.089 92.7787 35.803L94.3693 33.2594C98.6983 35.9663 104.132 36.1553 109.001 34.4332C113.877 32.7086 117.984 29.1376 119.718 24.6038L122.52 25.6755ZM92.7787 35.803C90.7269 34.5199 90.2051 31.6589 92.001 29.8564L94.1262 31.9738C93.8136 32.2876 93.7995 32.9031 94.3693 33.2594L92.7787 35.803ZM92.001 29.8564C94.3041 27.5447 97.4139 27.7373 99.9486 28.4736C102.513 29.2185 105.007 30.6596 106.583 31.5563L105.1 34.1638C103.462 33.2319 101.277 31.9834 99.1119 31.3545C96.9166 30.7169 95.2445 30.8513 94.1262 31.9738L92.001 29.8564ZM106.583 31.5563C109.282 33.0918 112.344 35.1072 115.073 37.4923C117.79 39.8668 120.257 42.6773 121.659 45.8205L118.919 47.0424C117.764 44.4517 115.647 41.9781 113.099 39.7512C110.563 37.535 107.68 35.6317 105.1 34.1638L106.583 31.5563ZM121.659 45.8205C126.73 57.1917 123.241 69.9179 116.184 79.1718L113.799 77.3527C120.417 68.6735 123.409 57.1104 118.919 47.0424L121.659 45.8205ZM116.184 79.1718C102.777 96.7534 83.2276 108.883 63.3062 117.196L62.1508 114.428C81.8023 106.227 100.828 94.3616 113.799 77.3527L116.184 79.1718ZM63.3062 117.196C53.1612 121.43 45.171 124.136 34.5969 127.041L33.8021 124.148C44.2622 121.275 52.1313 118.609 62.1508 114.428L63.3062 117.196ZM34.5969 127.041C23.7122 130.031 13.2008 130.976 2.41967 132.698L1.94628 129.736C12.9864 127.972 23.1282 127.081 33.8021 124.148L34.5969 127.041Z" fill="#0366FF"/>
</svg>
