<svg width="48" height="48" viewBox="0 0 48 48" fill="none" xmlns="http://www.w3.org/2000/svg">
<g clip-path="url(#clip0_143_2505)">
<path d="M24.0937 5.59961C19.608 5.59961 16.0939 8.05944 16.0939 11.1993C16.0939 14.3396 19.608 16.7994 24.0937 16.7994C28.5794 16.7994 32.0936 14.3396 32.0936 11.1993C32.0936 8.05944 28.5794 5.59961 24.0937 5.59961ZM24.0937 15.1994C20.625 15.1994 17.6939 13.3673 17.6939 11.1993C17.6939 9.03135 20.625 7.19958 24.0937 7.19958C27.5625 7.19958 30.4936 9.03135 30.4936 11.1993C30.4936 13.3673 27.5632 15.1994 24.0937 15.1994Z" fill="#0366FF"/>
<path d="M21.6936 9.59912C21.252 9.59912 20.8938 9.95727 20.8938 10.3993V11.9993C20.8938 12.4409 21.252 12.7991 21.6936 12.7991C22.1356 12.7991 22.4938 12.4409 22.4938 11.9993V10.3993C22.4938 9.95727 22.1356 9.59912 21.6936 9.59912Z" fill="#0366FF"/>
<path d="M26.4939 9.59912C26.0519 9.59912 25.6937 9.95727 25.6937 10.3993V11.9993C25.6937 12.4409 26.0519 12.7991 26.4939 12.7991C26.9355 12.7991 27.2937 12.4409 27.2937 11.9993V10.3993C27.2937 9.95727 26.9355 9.59912 26.4939 9.59912Z" fill="#0366FF"/>
<path d="M16.7033 24.1592C16.5367 24.0277 16.3246 23.9676 16.1137 23.9926C15.9031 24.0175 15.7109 24.1251 15.5794 24.2917C14.8957 25.1084 14.5126 26.1345 14.494 27.1991C14.494 30.7279 18.8002 33.5989 24.0938 33.5989C29.3873 33.5989 33.6936 30.7279 33.6936 27.1991C33.6756 26.1338 33.2929 25.1066 32.6089 24.2895C32.3357 23.942 31.8325 23.882 31.485 24.1551C31.1374 24.4283 31.0774 24.9315 31.3506 25.279C31.8098 25.8155 32.0724 26.493 32.0936 27.1991C32.0936 29.7592 28.3553 31.999 24.0938 31.999C19.8322 31.999 16.0939 29.7592 16.0939 27.1991C16.1148 26.493 16.377 25.8152 16.837 25.279C17.108 24.9326 17.0483 24.4324 16.7033 24.1592Z" fill="#0366FF"/>
<path d="M48.0321 26.894C47.9922 26.7962 47.9332 26.7076 47.8585 26.6329L45.4584 24.2331C45.1446 23.9299 44.6454 23.9343 44.3371 24.2426C44.0283 24.5514 44.0239 25.0505 44.3272 25.3643L45.3624 26.3996H36.8448C36.6664 24.9018 36.0695 23.4846 35.1225 22.3105C34.8467 21.9721 34.3505 21.9168 34.0074 22.1867C33.6643 22.4566 33.6009 22.9518 33.8649 23.2993C34.7687 24.4005 35.2723 25.7752 35.2935 27.1994C35.2935 31.6108 30.2699 35.1992 24.0938 35.1992C17.9176 35.1992 12.894 31.6108 12.894 27.1994C12.9156 25.7752 13.4191 24.4005 14.3226 23.2993C14.5049 23.0752 14.5522 22.7701 14.4463 22.5013C14.3405 22.2325 14.0977 22.0417 13.8113 22.0022C13.525 21.9626 13.2397 22.0805 13.065 22.3105C12.118 23.4846 11.5211 24.9018 11.3427 26.3996H2.82506L3.8596 25.3651C4.16246 25.0512 4.15843 24.5521 3.84971 24.2437C3.541 23.935 3.04222 23.9306 2.72838 24.2338L0.328246 26.634C0.253539 26.7083 0.19458 26.7969 0.154663 26.8947C0.0737306 27.0903 0.0737306 27.31 0.154663 27.5059C0.19458 27.6033 0.253539 27.692 0.328246 27.7667L2.72838 30.1664C2.92906 30.3744 3.22642 30.4579 3.50621 30.3847C3.78599 30.3115 4.00425 30.0932 4.07749 29.8134C4.15074 29.5336 4.06724 29.2363 3.8596 29.0356L2.82506 27.9996H11.3482C11.7617 30.6952 13.3668 33.0617 15.7185 34.4427L9.73396 40.4283V38.965C9.73396 38.5233 9.37581 38.1648 8.93379 38.1648C8.49215 38.1648 8.13399 38.5233 8.13399 38.965V42.3594C8.13436 42.6827 8.32918 42.9742 8.62838 43.0976C8.72505 43.1383 8.82906 43.1592 8.93379 43.1595H12.3282C12.7702 43.1595 13.1284 42.801 13.1284 42.3594C13.1284 41.9174 12.7702 41.5592 12.3282 41.5592H10.8652L17.1651 35.2593C19.0851 36.1708 21.1699 36.6842 23.2936 36.7688V45.2682L22.2594 44.2336C21.9456 43.9304 21.4464 43.9348 21.1381 44.2435C20.8294 44.5522 20.825 45.051 21.1282 45.3648L23.5283 47.765C23.6781 47.9155 23.8821 48.0001 24.0945 48.0001C24.3069 48.0001 24.5109 47.9155 24.661 47.765L27.0608 45.3648C27.364 45.051 27.3596 44.5522 27.0513 44.2435C26.7425 43.9348 26.2438 43.9304 25.9296 44.2336L24.8939 45.2682V36.7688C27.0176 36.6842 29.1024 36.1708 31.0224 35.2593L37.3223 41.5592H35.8593C35.4173 41.5592 35.0592 41.9174 35.0592 42.3594C35.0592 42.801 35.4173 43.1595 35.8593 43.1595H39.2537C39.6954 43.1595 40.0535 42.801 40.0535 42.3594V38.965C40.0535 38.5233 39.6954 38.1648 39.2537 38.1648C38.8117 38.1648 38.4535 38.5233 38.4535 38.965V40.4283L32.4682 34.4427C34.8204 33.0617 36.4255 30.6952 36.8393 27.9996H45.3624L44.3279 29.0338C44.1199 29.2348 44.0368 29.5322 44.11 29.8119C44.1833 30.0914 44.4015 30.31 44.6813 30.3832C44.9611 30.4565 45.2584 30.373 45.4591 30.165L47.8593 27.7652C47.934 27.6905 47.9929 27.6019 48.0328 27.5041C48.1134 27.3085 48.113 27.0892 48.0321 26.894Z" fill="#0366FF"/>
<path d="M40.8138 3.64259C40.6167 3.24745 40.1363 3.08632 39.7408 3.28334L37.5647 4.36842C36.2457 2.55239 33.8404 1.89944 31.7841 2.79958C27.3365 -0.933192 20.851 -0.933192 16.4033 2.79958C14.3482 1.9009 11.9448 2.55348 10.6268 4.36842L8.45075 3.28334C8.05415 3.08632 7.57295 3.24818 7.37593 3.64479C7.17891 4.04139 7.3404 4.52259 7.73701 4.71961L9.90423 5.79956C9.24542 7.94884 10.1694 10.2669 12.1257 11.374C12.1147 11.5835 12.0938 11.7907 12.0938 12.0035C12.0938 18.6308 17.4665 24.0035 24.0937 24.0035C30.721 24.0035 36.0937 18.6308 36.0937 12.0035C36.0937 11.7907 36.0728 11.5835 36.0618 11.374C38.0181 10.2669 38.9421 7.94884 38.2832 5.79956L40.4505 4.71961C40.642 4.6255 40.7881 4.45887 40.8566 4.25672C40.9247 4.05458 40.9093 3.83339 40.8138 3.64259ZM11.2936 7.19958C11.2848 6.23938 11.7111 5.32715 12.4538 4.71851C13.1961 4.10951 14.1742 3.87001 15.1139 4.06666C13.7264 5.62598 12.7713 7.52074 12.3436 9.56346C11.6763 8.95812 11.2955 8.10009 11.2936 7.19958ZM24.0937 22.3995C18.3501 22.3995 13.6938 17.7431 13.6938 11.9995C13.6938 6.25586 18.3501 1.59951 24.0937 1.59951C29.8374 1.59951 34.4937 6.25586 34.4937 11.9995C34.4871 17.7405 29.8348 22.3929 24.0937 22.3995ZM35.8439 9.56346C35.4162 7.52074 34.4611 5.62598 33.0736 4.06666C34.482 3.78468 35.9051 4.47791 36.5514 5.76038C37.1978 7.04284 36.9085 8.59923 35.8439 9.56346Z" fill="#0366FF"/>
</g>
<defs>
<clipPath id="clip0_143_2505">
<rect width="48" height="48" fill="white"/>
</clipPath>
</defs>
</svg>
