<svg width="48" height="48" viewBox="0 0 48 48" fill="none" xmlns="http://www.w3.org/2000/svg">
<g clip-path="url(#clip0_309_2666)">
<path d="M1.6 47.9999H3.2C3.83652 47.9999 4.44697 47.747 4.89706 47.2969C5.34714 46.8469 5.6 46.2364 5.6 45.5999H12.8C13.6487 45.5999 14.4626 45.2627 15.0627 44.6626C15.6629 44.0625 16 43.2486 16 42.3999V34.5895C16.2241 34.4567 16.4321 34.2986 16.62 34.1183L18.8872 31.8583L20.016 32.9863C20.4661 33.4362 21.0764 33.689 21.7128 33.689C22.3492 33.689 22.9595 33.4362 23.4096 32.9863L23.9752 32.4207L29.296 37.7431C29.7461 38.193 30.3564 38.4458 30.9928 38.4458C31.6292 38.4458 32.2395 38.193 32.6896 37.7431L35.1392 40.1927C35.4066 40.4628 35.7618 40.6283 36.1406 40.6594C36.5195 40.6905 36.8969 40.5851 37.2048 40.3623L43.8072 35.6495C43.9955 35.5137 44.152 35.3387 44.2658 35.1364C44.3796 34.9341 44.4481 34.7095 44.4664 34.4781C44.4848 34.2467 44.4526 34.0141 44.372 33.7964C44.2915 33.5788 44.1645 33.3812 44 33.2175L43.0128 32.2303L44.7936 31.2127C45.0073 31.0906 45.1899 30.921 45.3273 30.7168C45.4647 30.5127 45.5531 30.2797 45.5858 30.0358C45.6185 29.7919 45.5944 29.5438 45.5156 29.3107C45.4367 29.0776 45.3052 28.8659 45.1312 28.6919L34.4 17.9583C34.8243 17.7138 35.1866 17.3749 35.4588 16.9679C35.7311 16.5608 35.9061 16.0966 35.9702 15.6112C36.0343 15.1257 35.9858 14.632 35.8285 14.1682C35.6711 13.7045 35.4092 13.2832 35.063 12.9369C34.7167 12.5907 34.2954 12.3287 33.8317 12.1714C33.3679 12.0141 32.8742 11.9656 32.3887 12.0297C31.9033 12.0938 31.439 12.2688 31.032 12.541C30.625 12.8133 30.2861 13.1756 30.0416 13.5999L21.1456 4.70309C20.9227 4.48018 20.6581 4.30336 20.3669 4.18273C20.0757 4.06209 19.7636 4 19.4484 4C19.1332 4 18.8211 4.06209 18.5299 4.18273C18.2387 4.30336 17.9741 4.48018 17.7512 4.70309L16.1928 6.26149L15.44 5.50629C15.217 5.28164 14.9516 5.10352 14.6593 4.98225C14.3669 4.86099 14.0533 4.799 13.7368 4.79989H13.7296C13.4156 4.80002 13.1047 4.86269 12.8152 4.98425C12.5256 5.10581 12.2632 5.28382 12.0432 5.50789L11.5312 6.01749L11.1576 5.64469C10.2885 4.77814 9.15944 4.22008 7.94316 4.05582C6.72688 3.89156 5.49027 4.13014 4.4224 4.73509C3.56206 5.2241 2.84808 5.93421 2.3544 6.79189C1.86114 7.64558 1.60098 8.61394 1.6 9.59989V35.1999C1.17565 35.1999 0.768687 35.3685 0.468629 35.6685C0.168571 35.9686 0 36.3755 0 36.7999L0 46.3999C0 46.8242 0.168571 47.2312 0.468629 47.5313C0.768687 47.8313 1.17565 47.9999 1.6 47.9999ZM14.4 42.3999C14.4 42.8242 14.2314 43.2312 13.9314 43.5313C13.6313 43.8313 13.2243 43.9999 12.8 43.9999H5.6V40.7999H9.6C10.0243 40.7999 10.4313 40.6313 10.7314 40.3313C11.0314 40.0312 11.2 39.6242 11.2 39.1999V32.7999C11.199 32.5829 11.2425 32.368 11.3278 32.1685C11.4131 31.969 11.5384 31.7891 11.696 31.6399C11.8532 31.49 12.0392 31.3737 12.2427 31.2981C12.4463 31.2225 12.6631 31.189 12.88 31.1999C13.3054 31.243 13.6986 31.4456 13.9806 31.7669C14.2627 32.0883 14.4125 32.5045 14.4 32.9319V42.3999ZM15.96 32.5167C15.8994 31.9513 15.6938 31.4111 15.363 30.9485C15.0322 30.486 14.5875 30.1168 14.072 29.8767L15.4864 28.4575L17.7536 30.7247L15.96 32.5167ZM22.28 31.8551C22.13 32.0051 21.9265 32.0893 21.7144 32.0893C21.5023 32.0893 21.2988 32.0051 21.1488 31.8551L14.3616 25.0679C14.2872 24.9936 14.2282 24.9054 14.188 24.8082C14.1477 24.7111 14.127 24.607 14.127 24.5019C14.127 24.3968 14.1477 24.2927 14.188 24.1955C14.2282 24.0984 14.2872 24.0102 14.3616 23.9359L14.9272 23.3703L19.752 28.1951L22.8464 31.2895L22.28 31.8551ZM30.4288 36.6119L24.5424 30.7247L20.4944 26.6767L9.8328 16.0167C9.75842 15.9424 9.69941 15.8542 9.65915 15.757C9.61889 15.6599 9.59817 15.5558 9.59817 15.4507C9.59817 15.3456 9.61889 15.2415 9.65915 15.1443C9.69941 15.0472 9.75842 14.959 9.8328 14.8847L13.2264 11.4911L34.9512 33.2175L31.5568 36.6119C31.4068 36.7619 31.2033 36.8461 30.9912 36.8461C30.7791 36.8461 30.5756 36.7619 30.4256 36.6119H30.4288ZM36.2688 39.0615L33.8192 36.6119L36.08 34.3495L36.3872 34.6567C36.4395 34.6997 36.4945 34.7393 36.552 34.7751C36.5779 34.8251 36.6093 34.872 36.6456 34.9151L38.9072 37.1775L36.2688 39.0615ZM42.8736 34.3495L40.2336 36.2351L38.6976 34.6983L41.5776 33.0527L42.8736 34.3495ZM32.8 13.5999C33.1883 13.6027 33.5623 13.7467 33.8523 14.0049C34.1423 14.2631 34.3285 14.618 34.3761 15.0034C34.4238 15.3887 34.3297 15.7783 34.1114 16.0994C33.8931 16.4205 33.5655 16.6513 33.1896 16.7487L31.2512 14.8103C31.3359 14.4639 31.5347 14.1561 31.8157 13.9365C32.0967 13.7169 32.4434 13.5983 32.8 13.5999ZM18.88 5.83429C19.03 5.68431 19.2335 5.60006 19.4456 5.60006C19.6577 5.60006 19.8612 5.68431 20.0112 5.83429L44 29.8231L37.52 33.5263L36.648 32.6519L14.3576 10.3599L18.88 5.83429ZM13.7368 6.39989C13.8429 6.40012 13.9479 6.42145 14.0457 6.46266C14.1435 6.50386 14.2321 6.56411 14.3064 6.63989L15.0616 7.39509L11.6664 10.7903L10.9104 10.0287C10.836 9.95439 10.777 9.86616 10.7368 9.76904C10.6965 9.67192 10.6758 9.56782 10.6758 9.46269C10.6758 9.35755 10.6965 9.25345 10.7368 9.15634C10.777 9.05922 10.836 8.97099 10.9104 8.89669L13.1792 6.63669C13.2485 6.55797 13.3345 6.49583 13.4311 6.45484C13.5276 6.41386 13.6321 6.39508 13.7368 6.39989ZM3.7408 7.59189C4.09146 6.9809 4.59949 6.47508 5.212 6.12709C5.97484 5.69387 6.85862 5.52252 7.72809 5.63926C8.59756 5.756 9.40484 6.1544 10.0264 6.77349L10.4 7.14469L9.7768 7.76629C9.331 8.21772 9.08102 8.82663 9.08102 9.46109C9.08102 10.0955 9.331 10.7045 9.7768 11.1559L10.5352 11.9191L8.7008 13.7535C8.2518 14.2042 7.99969 14.8145 7.99969 15.4507C7.99969 16.0869 8.2518 16.6972 8.7008 17.1479L13.792 22.2399L13.2256 22.8063C12.7766 23.257 12.5245 23.8673 12.5245 24.5035C12.5245 25.1397 12.7766 25.75 13.2256 26.2007L14.3552 27.3303L12.0992 29.5919C12.052 29.6383 12.0144 29.6815 11.9744 29.7263C11.2914 29.8983 10.6859 30.2948 10.2553 30.8522C9.82472 31.4096 9.59393 32.0956 9.6 32.7999V39.1999H5.6V37.5999C5.6 36.9634 5.34714 36.3529 4.89706 35.9028C4.44697 35.4527 3.83652 35.1999 3.2 35.1999V9.59989C3.20076 8.89467 3.38729 8.2021 3.7408 7.59189ZM1.6 36.7999H3.2C3.41217 36.7999 3.61566 36.8842 3.76569 37.0342C3.91571 37.1842 4 37.3877 4 37.5999V45.5999C4 45.8121 3.91571 46.0155 3.76569 46.1656C3.61566 46.3156 3.41217 46.3999 3.2 46.3999H1.6V36.7999Z" fill="#0366FF"/>
<path d="M32.8 0C32.5878 0 32.3843 0.0842855 32.2343 0.234315C32.0843 0.384344 32 0.587827 32 0.8C32 1.01217 32.0843 1.21566 32.2343 1.36569C32.3843 1.51571 32.5878 1.6 32.8 1.6C36.4057 1.60402 39.8626 3.03817 42.4122 5.58779C44.9618 8.13741 46.396 11.5943 46.4 15.2C46.4 15.4122 46.4843 15.6157 46.6343 15.7657C46.7843 15.9157 46.9878 16 47.2 16C47.4122 16 47.6157 15.9157 47.7657 15.7657C47.9157 15.6157 48 15.4122 48 15.2C47.9956 11.1701 46.3927 7.30648 43.5431 4.45689C40.6935 1.6073 36.8299 0.00444676 32.8 0Z" fill="#0366FF"/>
<path d="M43.2 16C43.4122 16 43.6157 15.9157 43.7657 15.7657C43.9157 15.6157 44 15.4122 44 15.2C43.9968 12.2306 42.8158 9.38363 40.7161 7.28391C38.6164 5.18419 35.7694 4.00318 32.8 4C32.5878 4 32.3843 4.08429 32.2343 4.23431C32.0843 4.38434 32 4.58783 32 4.8C32 5.01217 32.0843 5.21566 32.2343 5.36569C32.3843 5.51571 32.5878 5.6 32.8 5.6C35.3452 5.60275 37.7854 6.61506 39.5852 8.41482C41.3849 10.2146 42.3972 12.6548 42.4 15.2C42.4 15.4122 42.4843 15.6157 42.6343 15.7657C42.7843 15.9157 42.9878 16 43.2 16Z" fill="#0366FF"/>
<path d="M32.8 8C32.5878 8 32.3843 8.08429 32.2343 8.23431C32.0843 8.38434 32 8.58783 32 8.8C32 9.01217 32.0843 9.21566 32.2343 9.36569C32.3843 9.51571 32.5878 9.6 32.8 9.6C34.2846 9.60191 35.7079 10.1925 36.7577 11.2423C37.8075 12.2921 38.3981 13.7154 38.4 15.2C38.4 15.4122 38.4843 15.6157 38.6343 15.7657C38.7843 15.9157 38.9878 16 39.2 16C39.4122 16 39.6157 15.9157 39.7657 15.7657C39.9157 15.6157 40 15.4122 40 15.2C39.9979 13.2911 39.2386 11.461 37.8888 10.1112C36.539 8.76137 34.7089 8.00212 32.8 8Z" fill="#0366FF"/>
<path d="M22.9065 40.5378C22.8111 40.2213 22.4385 40 22 40C21.5615 40 21.1889 40.2213 21.0929 40.5387L19.0142 47.4593C18.9429 47.6989 19.1468 47.9362 19.4702 47.9895C19.7887 48.042 20.1133 47.8922 20.1859 47.6518L20.8824 45.333H23.117L23.8135 47.6518C23.8759 47.8593 24.1243 47.9998 24.399 47.9998C24.4422 47.9998 24.4866 47.9962 24.5298 47.9895C24.8532 47.9362 25.0571 47.6989 24.9858 47.4593L22.9065 40.5378ZM21.1499 44.4446L22.0006 41.6125L22.8513 44.4446H21.1499Z" fill="#0366FF"/>
<path d="M29.5 40.8889C29.7765 40.8889 30 40.6902 30 40.4444C30 40.1987 29.7765 40 29.5 40H26.5C26.2235 40 26 40.1987 26 40.4444C26 40.6902 26.2235 40.8889 26.5 40.8889H27.5V47.1111H26.5C26.2235 47.1111 26 47.3098 26 47.5556C26 47.8013 26.2235 48 26.5 48H29.5C29.7765 48 30 47.8013 30 47.5556C30 47.3098 29.7765 47.1111 29.5 47.1111H28.5V40.8889H29.5Z" fill="#0366FF"/>
</g>
<defs>
<clipPath id="clip0_309_2666">
<rect width="48" height="48" fill="white"/>
</clipPath>
</defs>
</svg>
