<svg width="48" height="48" viewBox="0 0 48 48" fill="none" xmlns="http://www.w3.org/2000/svg">
<g clip-path="url(#clip0_84_781)">
<path d="M44.8 8H38.4V3.2C38.4 2.35131 38.0629 1.53737 37.4627 0.937258C36.8626 0.337142 36.0487 0 35.2 0L12.8 0C11.9513 0 11.1374 0.337142 10.5373 0.937258C9.93714 1.53737 9.6 2.35131 9.6 3.2V8H3.2C2.35131 8 1.53737 8.33714 0.937258 8.93726C0.337142 9.53737 0 10.3513 0 11.2L0 32C0 32.8487 0.337142 33.6626 0.937258 34.2627C1.53737 34.8629 2.35131 35.2 3.2 35.2H9.6V44.8C9.6 45.6487 9.93714 46.4626 10.5373 47.0627C11.1374 47.6629 11.9513 48 12.8 48H35.2C36.0487 48 36.8626 47.6629 37.4627 47.0627C38.0629 46.4626 38.4 45.6487 38.4 44.8V35.2H44.8C45.6487 35.2 46.4626 34.8629 47.0627 34.2627C47.6629 33.6626 48 32.8487 48 32V11.2C48 10.3513 47.6629 9.53737 47.0627 8.93726C46.4626 8.33714 45.6487 8 44.8 8ZM30.4 1.6V4C30.4 4.21217 30.3157 4.41566 30.1657 4.56569C30.0157 4.71571 29.8122 4.8 29.6 4.8H18.4C18.1878 4.8 17.9843 4.71571 17.8343 4.56569C17.6843 4.41566 17.6 4.21217 17.6 4V1.6H30.4ZM11.2 3.2C11.2 2.77565 11.3686 2.36869 11.6686 2.06863C11.9687 1.76857 12.3757 1.6 12.8 1.6H16V4C16 4.63652 16.2529 5.24697 16.7029 5.69706C17.153 6.14714 17.7635 6.4 18.4 6.4H29.6C30.2365 6.4 30.847 6.14714 31.2971 5.69706C31.7471 5.24697 32 4.63652 32 4V1.6H35.2C35.6243 1.6 36.0313 1.76857 36.3314 2.06863C36.6314 2.36869 36.8 2.77565 36.8 3.2V8H11.2V3.2ZM36.8 44.8C36.8 45.2243 36.6314 45.6313 36.3314 45.9314C36.0313 46.2314 35.6243 46.4 35.2 46.4H12.8C12.3757 46.4 11.9687 46.2314 11.6686 45.9314C11.3686 45.6313 11.2 45.2243 11.2 44.8V35.2H15.092L21.8264 40.0952C22.458 40.555 23.2191 40.8028 24.0004 40.8028C24.7817 40.8028 25.5428 40.555 26.1744 40.0952L32.908 35.2H36.8V44.8ZM46.4 32C46.4 32.4243 46.2314 32.8313 45.9314 33.1314C45.6313 33.4314 45.2243 33.6 44.8 33.6H32.648C32.479 33.6 32.3143 33.6535 32.1776 33.7528L25.2344 38.8C24.8758 39.0607 24.4438 39.2012 24.0004 39.2012C23.557 39.2012 23.125 39.0607 22.7664 38.8L15.8224 33.752C15.6856 33.6529 15.5209 33.5997 15.352 33.6H3.2C2.77565 33.6 2.36869 33.4314 2.06863 33.1314C1.76857 32.8313 1.6 32.4243 1.6 32V11.2C1.6 10.7757 1.76857 10.3687 2.06863 10.0686C2.36869 9.76857 2.77565 9.6 3.2 9.6H44.8C45.2243 9.6 45.6313 9.76857 45.9314 10.0686C46.2314 10.3687 46.4 10.7757 46.4 11.2V32Z" fill="#0366FF"/>
<path d="M15.98 15.7672L15.172 16.576L14.3624 15.7656C13.4998 14.9111 12.3411 14.422 11.1271 14.3998C9.91316 14.3776 8.73733 14.824 7.84404 15.6464C7.39325 16.0662 7.03299 16.5737 6.78537 17.1377C6.53775 17.7017 6.40798 18.3104 6.40404 18.9264C6.39271 19.5905 6.51515 20.2502 6.76405 20.8661C7.01295 21.4819 7.38323 22.0414 7.85284 22.5112L13.4776 28.1016C13.9296 28.5485 14.5396 28.7992 15.1752 28.7992C15.8109 28.7992 16.4209 28.5485 16.8728 28.1016L22.6272 22.3824C23.0633 21.9488 23.4093 21.4333 23.6454 20.8655C23.8816 20.2978 24.0031 19.6889 24.0031 19.074C24.0031 18.4591 23.8816 17.8502 23.6454 17.2824C23.4093 16.7147 23.0633 16.1992 22.6272 15.7656C21.7412 14.8926 20.5472 14.4034 19.3033 14.4037C18.0594 14.404 16.8657 14.8938 15.98 15.7672ZM21.5 21.2472L15.7464 26.9656C15.5946 27.1155 15.3898 27.1996 15.1764 27.1996C14.9631 27.1996 14.7583 27.1155 14.6064 26.9656L8.98244 21.3752C8.66472 21.0582 8.41401 20.6805 8.24524 20.2646C8.07647 19.8487 7.99308 19.4032 8.00004 18.9544C8.002 18.5543 8.08543 18.1587 8.24525 17.7919C8.40507 17.4251 8.63794 17.0947 8.92964 16.8208C9.52042 16.2799 10.2964 15.9866 11.0972 16.0015C11.898 16.0164 12.6626 16.3383 13.2328 16.9008L14.6064 18.276C14.7593 18.4205 14.9617 18.5011 15.172 18.5011C15.3824 18.5011 15.5848 18.4205 15.7376 18.276L17.1072 16.9048C17.6924 16.3288 18.4805 16.0059 19.3016 16.0059C20.1227 16.0059 20.9109 16.3288 21.496 16.9048C21.7826 17.1896 22.01 17.5283 22.1651 17.9013C22.3203 18.2743 22.4002 18.6744 22.4002 19.0784C22.4002 19.4824 22.3203 19.8824 22.1651 20.2555C22.01 20.6285 21.7826 20.9672 21.496 21.252L21.5 21.2472Z" fill="#0366FF"/>
<path d="M35.8024 22.9392C36.5781 22.3173 37.1415 21.4699 37.4149 20.514C37.6883 19.5581 37.6581 18.5409 37.3285 17.6029C36.999 16.6649 36.3863 15.8524 35.5751 15.2776C34.7638 14.7028 33.7942 14.3941 32.8 14.3941C31.8057 14.3941 30.8361 14.7028 30.0248 15.2776C29.2136 15.8524 28.6009 16.6649 28.2714 17.6029C27.9418 18.5409 27.9116 19.5581 28.185 20.514C28.4584 21.4699 29.0218 22.3173 29.7976 22.9392C29.0156 23.343 28.3597 23.954 27.9015 24.7055C27.4434 25.4569 27.2007 26.3199 27.2 27.2C27.2 27.6243 27.3685 28.0313 27.6686 28.3314C27.9686 28.6314 28.3756 28.8 28.8 28.8H36.8C37.2243 28.8 37.6313 28.6314 37.9313 28.3314C38.2314 28.0313 38.4 27.6243 38.4 27.2C38.3992 26.3199 38.1565 25.4569 37.6984 24.7055C37.2402 23.954 36.5843 23.343 35.8024 22.9392ZM32.8 16C33.4329 16 34.0515 16.1877 34.5778 16.5393C35.104 16.8909 35.5142 17.3907 35.7564 17.9754C35.9986 18.5601 36.0619 19.2035 35.9385 19.8243C35.815 20.445 35.5102 21.0152 35.0627 21.4627C34.6152 21.9103 34.045 22.215 33.4242 22.3385C32.8035 22.462 32.1601 22.3986 31.5754 22.1564C30.9906 21.9142 30.4909 21.504 30.1392 20.9778C29.7876 20.4516 29.6 19.8329 29.6 19.2C29.6 18.3513 29.9371 17.5374 30.5372 16.9372C31.1373 16.3371 31.9513 16 32.8 16ZM28.8 27.2C28.8 26.3513 29.1371 25.5374 29.7372 24.9372C30.3373 24.3371 31.1513 24 32 24H33.6C34.4486 24 35.2626 24.3371 35.8627 24.9372C36.4628 25.5374 36.8 26.3513 36.8 27.2H28.8Z" fill="#0366FF"/>
<path d="M13.6 3.20001C13.3879 3.20001 13.1844 3.2843 13.0344 3.43433C12.8843 3.58436 12.8 3.78784 12.8 4.00001V4.80001C12.8 5.01219 12.8843 5.21567 13.0344 5.3657C13.1844 5.51573 13.3879 5.60001 13.6 5.60001C13.8122 5.60001 14.0157 5.51573 14.1657 5.3657C14.3158 5.21567 14.4 5.01219 14.4 4.80001V4.00001C14.4 3.78784 14.3158 3.58436 14.1657 3.43433C14.0157 3.2843 13.8122 3.20001 13.6 3.20001Z" fill="#0366FF"/>
<path d="M34.4001 3.20001C34.1879 3.20001 33.9844 3.2843 33.8344 3.43433C33.6844 3.58436 33.6001 3.78784 33.6001 4.00001V4.80001C33.6001 5.01219 33.6844 5.21567 33.8344 5.3657C33.9844 5.51573 34.1879 5.60001 34.4001 5.60001C34.6123 5.60001 34.8158 5.51573 34.9658 5.3657C35.1158 5.21567 35.2001 5.01219 35.2001 4.80001V4.00001C35.2001 3.78784 35.1158 3.58436 34.9658 3.43433C34.8158 3.2843 34.6123 3.20001 34.4001 3.20001Z" fill="#0366FF"/>
<path d="M29.6001 43.2H18.4001C18.1879 43.2 17.9844 43.2843 17.8344 43.4343C17.6844 43.5844 17.6001 43.7878 17.6001 44C17.6001 44.2122 17.6844 44.4157 17.8344 44.5657C17.9844 44.7157 18.1879 44.8 18.4001 44.8H29.6001C29.8123 44.8 30.0158 44.7157 30.1658 44.5657C30.3158 44.4157 30.4001 44.2122 30.4001 44C30.4001 43.7878 30.3158 43.5844 30.1658 43.4343C30.0158 43.2843 29.8123 43.2 29.6001 43.2Z" fill="#0366FF"/>
</g>
<defs>
<clipPath id="clip0_84_781">
<rect width="48" height="48" fill="white"/>
</clipPath>
</defs>
</svg>
