<svg width="48" height="48" viewBox="0 0 48 48" fill="none" xmlns="http://www.w3.org/2000/svg">
<g clip-path="url(#clip0_143_2515)">
<path d="M42.2627 37.7378L40.0003 35.4747L37.0539 32.5294C38.8666 29.1853 38.8556 25.1494 37.0249 21.8155C35.1943 18.4813 31.7949 16.3057 28.0007 16.0402V12.7997H31.2006C31.6426 12.7997 32.0007 12.4412 32.0007 11.9996C32.0007 11.558 31.6426 11.1994 31.2006 11.1994H28.0007V8.79975H31.2006C31.6426 8.79975 32.0007 8.4416 32.0007 7.9996C32.0007 7.55797 31.6426 7.19983 31.2006 7.19983H28.0007C28.0007 5.43255 26.5681 3.99998 24.8009 3.99998V0.800143C24.8009 0.358142 24.4427 0 24.0007 0C23.5591 0 23.201 0.358142 23.201 0.800143V3.99998H20.8009V0.800143C20.8009 0.358142 20.4427 0 20.0011 0C19.5591 0 19.201 0.358142 19.201 0.800143V3.99998H16.8009V0.800143C16.8009 0.358142 16.4428 0 16.0011 0C15.5591 0 15.201 0.358142 15.201 0.800143V3.99998H12.8013V0.800143C12.8013 0.358142 12.4431 0 12.0011 0C11.5595 0 11.2014 0.358142 11.2014 0.800143V3.99998H8.8013V0.800143C8.8013 0.358142 8.44316 0 8.00153 0C7.55952 0 7.20138 0.358142 7.20138 0.800143V3.99998C5.43411 3.99998 4.00154 5.43255 4.00154 7.19983H0.8017C0.359698 7.19983 0.0015564 7.55797 0.0015564 7.9996C0.0015564 8.4416 0.359698 8.79975 0.8017 8.79975H4.00154V11.1994H0.8017C0.359698 11.1994 0.0015564 11.558 0.0015564 11.9996C0.0015564 12.4412 0.359698 12.7997 0.8017 12.7997H4.00154V15.1994H0.8017C0.359698 15.1994 0.0015564 15.5576 0.0015564 15.9996C0.0015564 16.4412 0.359698 16.7993 0.8017 16.7993H4.00154V19.1994H0.8017C0.359698 19.1994 0.0015564 19.5576 0.0015564 19.9992C0.0015564 20.4412 0.359698 20.7993 0.8017 20.7993H4.00154V23.199H0.8017C0.359698 23.199 0.0015564 23.5575 0.0015564 23.9992C0.0015564 24.4408 0.359698 24.7993 0.8017 24.7993H4.00154C4.00154 26.5662 5.43411 27.9992 7.20138 27.9992V31.199C7.20138 31.6406 7.55952 31.9988 8.00153 31.9988C8.44316 31.9988 8.8013 31.6406 8.8013 31.199V27.9992H11.2014V31.199C11.2014 31.6406 11.5595 31.9988 12.0011 31.9988C12.4431 31.9988 12.8013 31.6406 12.8013 31.199V27.9992H16.0418C16.3091 31.7915 18.4847 35.1887 21.8178 37.0183C25.1506 38.8478 29.1846 38.8591 32.5277 37.0483L35.4734 39.9987L42.5315 47.0569C43.1302 47.6596 43.9446 47.9991 44.7942 48.0002C45.6441 48.0009 46.4593 47.6633 47.0591 47.0616C48.3075 45.8121 48.3075 43.7878 47.0591 42.5387L42.2627 37.7378ZM37.1714 39.4308L39.4323 37.1699L40.565 38.3025L38.3044 40.5634L37.1714 39.4308ZM5.60146 24.7993V7.19983C5.60146 6.31619 6.31775 5.59991 7.20138 5.59991H24.8009C25.6845 5.59991 26.4008 6.31619 26.4008 7.19983V16.0402C25.3048 16.1171 24.2263 16.3566 23.201 16.7506V11.1994C23.201 9.87417 22.1265 8.79975 20.8009 8.79975H11.2014C9.87573 8.79975 8.8013 9.87417 8.8013 11.1994V20.7993C8.8013 22.1246 9.87573 23.199 11.2014 23.199H16.7522C16.3582 24.2248 16.119 25.3032 16.0418 26.3992H7.20138C6.31775 26.3992 5.60146 25.683 5.60146 24.7993ZM17.5161 21.5991H11.2014C10.7594 21.5991 10.4012 21.241 10.4012 20.7993V11.1994C10.4012 10.7578 10.7594 10.3997 11.2014 10.3997H20.8009C21.2429 10.3997 21.601 10.7578 21.601 11.1994V17.5145C19.9077 18.4981 18.5001 19.9062 17.5161 21.5991ZM17.601 27.199C17.601 21.8972 21.8991 17.5995 27.2006 17.5995C32.5024 17.5995 36.8005 21.8972 36.8005 27.199C36.8005 32.5008 32.5024 36.7989 27.2006 36.7989C21.9013 36.793 17.6069 32.4983 17.601 27.199ZM36.1603 33.895L38.3044 36.0387L36.0402 38.2996L33.8965 36.1588C34.7549 35.5154 35.5169 34.7533 36.1603 33.895ZM45.9258 45.9337C45.2941 46.5368 44.2987 46.5347 43.6696 45.929L39.4356 41.6946L41.6962 39.4337L45.9305 43.6681C46.2308 43.9691 46.3989 44.3766 46.3982 44.8018C46.3971 45.227 46.2271 45.6342 45.9258 45.9337Z" fill="#0366FF"/>
<path d="M13.6011 11.9995H12.8013C12.3593 11.9995 12.0011 12.3577 12.0011 12.7997C12.0011 13.2413 12.3593 13.5994 12.8013 13.5994H13.6011C14.0431 13.5994 14.4012 13.2413 14.4012 12.7997C14.4012 12.3577 14.0431 11.9995 13.6011 11.9995Z" fill="#0366FF"/>
<path d="M13.6011 18.3989H12.8013C12.3593 18.3989 12.0011 18.7571 12.0011 19.1991C12.0011 19.6407 12.3593 19.9988 12.8013 19.9988H13.6011C14.0431 19.9988 14.4012 19.6407 14.4012 19.1991C14.4012 18.7571 14.0431 18.3989 13.6011 18.3989Z" fill="#0366FF"/>
<path d="M20.0011 12.7997C20.0011 12.3577 19.643 11.9995 19.201 11.9995H18.4012C17.9592 11.9995 17.6011 12.3577 17.6011 12.7997C17.6011 13.2413 17.9592 13.5994 18.4012 13.5994H19.201C19.643 13.5994 20.0011 13.2413 20.0011 12.7997Z" fill="#0366FF"/>
<path d="M33.1063 23.2606C33.0092 23.22 32.9056 23.1991 32.8005 23.1987H30.4008C29.9588 23.1987 29.6006 23.5572 29.6006 23.9989C29.6006 24.4405 29.9588 24.799 30.4008 24.799H30.8695L28.0007 27.6674L26.4495 26.1155C26.2247 25.8903 25.9192 25.7639 25.6007 25.7639C25.2824 25.7639 24.977 25.8903 24.7522 26.1155L21.0353 29.8331C20.8273 30.0338 20.7441 30.3312 20.817 30.611C20.8902 30.8907 21.1089 31.1093 21.3886 31.1822C21.668 31.2555 21.9658 31.1723 22.1664 30.9643L25.6007 27.5301L27.1519 29.0821C27.3771 29.3069 27.6821 29.4336 28.0007 29.4336C28.3189 29.4336 28.6244 29.3069 28.8496 29.0821L32.0007 25.9298V26.3989C32.0007 26.8406 32.3588 27.1987 32.8005 27.1987C33.2425 27.1987 33.6006 26.8406 33.6006 26.3989V23.9989C33.6003 23.6755 33.4051 23.384 33.1063 23.2606Z" fill="#0366FF"/>
</g>
<defs>
<clipPath id="clip0_143_2515">
<rect width="48" height="48" fill="white"/>
</clipPath>
</defs>
</svg>
