<svg width="48" height="48" viewBox="0 0 48 48" fill="none" xmlns="http://www.w3.org/2000/svg">
<g clip-path="url(#clip0_85_877)">
<path d="M47.68 31.0688C47.3524 30.4841 46.8066 30.053 46.1619 29.8696C45.5173 29.6863 44.8263 29.7656 44.24 30.0904L42.956 30.816L42.9032 30.7704C42.3629 30.2335 41.681 29.8615 40.9372 29.6976C40.1934 29.5337 39.4183 29.5847 38.7024 29.8448L32.428 32.2248L16.8152 29.7016C15.471 29.4875 14.0945 29.6191 12.8152 30.084L9.544 31.4944C9.42848 30.9583 9.1329 30.478 8.70643 30.1334C8.27997 29.7887 7.74833 29.6005 7.2 29.6H2.4C1.76348 29.6 1.15303 29.8528 0.702944 30.3029C0.252856 30.753 0 31.3635 0 32L0 43.2C0 43.8365 0.252856 44.4469 0.702944 44.897C1.15303 45.3471 1.76348 45.6 2.4 45.6H7.2C7.80698 45.5973 8.39039 45.3647 8.83275 44.9491C9.2751 44.5334 9.54354 43.9656 9.584 43.36C9.75983 43.3566 9.93507 43.3812 10.1032 43.4328L26.3632 47.8328C26.9729 48.015 27.6172 48.0499 28.243 47.9346C28.8689 47.8193 29.4584 47.5571 29.9632 47.1696L47.04 34.284C47.5091 33.9116 47.8313 33.3852 47.9494 32.798C48.0676 32.2109 47.9741 31.6008 47.6856 31.076L47.68 31.0688ZM39.2544 31.344C39.6206 31.2143 40.0127 31.175 40.3974 31.2293C40.7821 31.2836 41.148 31.43 41.464 31.656L36.6904 34.3528C36.5902 34.0196 36.4219 33.7108 36.1962 33.446C35.9705 33.1812 35.6923 32.9661 35.3792 32.8144L39.2544 31.344ZM8 43.2C8 43.4122 7.91571 43.6156 7.76569 43.7657C7.61566 43.9157 7.41217 44 7.2 44H2.4C2.18783 44 1.98434 43.9157 1.83431 43.7657C1.68429 43.6156 1.6 43.4122 1.6 43.2V32C1.6 31.7878 1.68429 31.5843 1.83431 31.4343C1.98434 31.2843 2.18783 31.2 2.4 31.2H7.2C7.41217 31.2 7.61566 31.2843 7.76569 31.4343C7.91571 31.5843 8 31.7878 8 32V32.64C8 32.6584 7.992 32.6752 7.992 32.6928L8 42.7V43.2ZM46.0616 33.0184L28.9888 45.8984C28.6819 46.1337 28.3233 46.2924 27.9427 46.3611C27.5621 46.4299 27.1706 46.4067 26.8008 46.2936L10.5496 41.8936C10.2487 41.8009 9.93563 41.754 9.6208 41.7544H9.6V33.2128L13.3984 31.572C14.4108 31.2098 15.4984 31.1093 16.56 31.28L34.4144 34.1656C34.6321 34.2013 34.8302 34.3127 34.9739 34.4801C35.1176 34.6475 35.1976 34.8602 35.2 35.0808C35.1989 35.2014 35.1753 35.3208 35.1304 35.4328C35.0866 35.5429 35.0213 35.6433 34.9384 35.728C34.7612 35.9043 34.5219 36.0039 34.272 36.0056H33.976H22.28H22.2704L19.2 36C18.9878 36 18.7843 36.0843 18.6343 36.2343C18.4843 36.3843 18.4 36.5878 18.4 36.8C18.4 37.0121 18.4843 37.2156 18.6343 37.3657C18.7843 37.5157 18.9878 37.6 19.2 37.6L22.0552 37.608L26.7096 40.4968C27.0713 40.6996 27.4789 40.8065 27.8936 40.8072C28.3002 40.807 28.7001 40.7029 29.0552 40.5048L34.1872 37.608H34.2672C34.9376 37.6068 35.5806 37.3415 36.0568 36.8696C36.2145 36.7069 36.3491 36.5233 36.4568 36.324L45.0168 31.488C45.2198 31.3769 45.4569 31.3455 45.6818 31.3998C45.9067 31.4541 46.1034 31.5903 46.2333 31.7818C46.3632 31.9733 46.4171 32.2063 46.3845 32.4354C46.3518 32.6645 46.235 32.8732 46.0568 33.0208L46.0616 33.0184ZM28.2728 39.108C28.1577 39.1724 28.0283 39.207 27.8964 39.2087C27.7645 39.2104 27.6343 39.1791 27.5176 39.1176L25.084 37.6072H30.9312L28.2728 39.108Z" fill="#0366FF"/>
<path d="M5.59995 32.8H3.99995C3.78778 32.8 3.5843 32.8843 3.43427 33.0344C3.28424 33.1844 3.19995 33.3879 3.19995 33.6C3.19995 33.8122 3.28424 34.0157 3.43427 34.1657C3.5843 34.3158 3.78778 34.4 3.99995 34.4H5.59995C5.81212 34.4 6.01561 34.3158 6.16564 34.1657C6.31567 34.0157 6.39995 33.8122 6.39995 33.6C6.39995 33.3879 6.31567 33.1844 6.16564 33.0344C6.01561 32.8843 5.81212 32.8 5.59995 32.8Z" fill="#0366FF"/>
<path d="M5.59995 40.8H3.99995C3.78778 40.8 3.5843 40.8843 3.43427 41.0344C3.28424 41.1844 3.19995 41.3879 3.19995 41.6C3.19995 41.8122 3.28424 42.0157 3.43427 42.1657C3.5843 42.3158 3.78778 42.4 3.99995 42.4H5.59995C5.81212 42.4 6.01561 42.3158 6.16564 42.1657C6.31567 42.0157 6.39995 41.8122 6.39995 41.6C6.39995 41.3879 6.31567 41.1844 6.16564 41.0344C6.01561 40.8843 5.81212 40.8 5.59995 40.8Z" fill="#0366FF"/>
<path d="M16.5656 18.6344C16.4156 18.4844 16.2122 18.4001 16 18.4001C15.7879 18.4001 15.5845 18.4844 15.4344 18.6344L13.8344 20.2344C13.6887 20.3853 13.6081 20.5873 13.6099 20.7971C13.6117 21.0069 13.6959 21.2075 13.8442 21.3558C13.9925 21.5042 14.1932 21.5883 14.4029 21.5901C14.6127 21.5919 14.8148 21.5113 14.9656 21.3656L15.2 21.1312V23.2C15.2 23.4121 15.2843 23.6156 15.4343 23.7657C15.5844 23.9157 15.7879 24 16 24C16.2122 24 16.4157 23.9157 16.5657 23.7657C16.7157 23.6156 16.8 23.4121 16.8 23.2V21.1312L17.0344 21.3656C17.1853 21.5113 17.3874 21.5919 17.5972 21.5901C17.8069 21.5883 18.0076 21.5042 18.1559 21.3558C18.3042 21.2075 18.3884 21.0069 18.3902 20.7971C18.392 20.5873 18.3114 20.3853 18.1656 20.2344L16.5656 18.6344Z" fill="#0366FF"/>
<path d="M22.9655 18.6344C22.8155 18.4844 22.6121 18.4001 22.3999 18.4001C22.1878 18.4001 21.9844 18.4844 21.8343 18.6344L20.2343 20.2344C20.0886 20.3853 20.008 20.5873 20.0098 20.7971C20.0116 21.0069 20.0958 21.2075 20.2441 21.3558C20.3924 21.5042 20.5931 21.5883 20.8028 21.5901C21.0126 21.5919 21.2147 21.5113 21.3655 21.3656L21.5999 21.1312V23.2C21.5999 23.4121 21.6842 23.6156 21.8342 23.7657C21.9843 23.9157 22.1878 24 22.3999 24C22.6121 24 22.8156 23.9157 22.9656 23.7657C23.1157 23.6156 23.1999 23.4121 23.1999 23.2V21.1312L23.4343 21.3656C23.5852 21.5113 23.7873 21.5919 23.9971 21.5901C24.2068 21.5883 24.4075 21.5042 24.5558 21.3558C24.7041 21.2075 24.7883 21.0069 24.7901 20.7971C24.7919 20.5873 24.7113 20.3853 24.5655 20.2344L22.9655 18.6344Z" fill="#0366FF"/>
<path d="M39.9999 6.40001C40.4243 6.40001 40.8312 6.23143 41.1313 5.93138C41.4314 5.63132 41.5999 5.22435 41.5999 4.80001V3.20001H43.3471C43.5359 3.73378 43.9072 4.18365 44.3955 4.47011C44.8839 4.75657 45.4577 4.86118 46.0157 4.76544C46.5737 4.6697 47.0799 4.37979 47.4448 3.94693C47.8097 3.51408 48.0099 2.96616 48.0099 2.40001C48.0099 1.83386 47.8097 1.28593 47.4448 0.853077C47.0799 0.420222 46.5737 0.130305 46.0157 0.0345684C45.4577 -0.0611686 44.8839 0.043438 44.3955 0.3299C43.9072 0.616362 43.5359 1.06623 43.3471 1.60001H41.5999C41.1756 1.60001 40.7686 1.76858 40.4686 2.06863C40.1685 2.36869 39.9999 2.77566 39.9999 3.20001V4.80001H37.5999V2.40001C37.5999 1.76349 37.3471 1.15304 36.897 0.702949C36.4469 0.252861 35.8365 4.96162e-06 35.1999 4.96162e-06H12.7999C12.1634 4.96162e-06 11.553 0.252861 11.1029 0.702949C10.6528 1.15304 10.3999 1.76349 10.3999 2.40001V4.80001H7.99993V3.20001C7.99993 2.77566 7.83136 2.36869 7.5313 2.06863C7.23125 1.76858 6.82428 1.60001 6.39993 1.60001H4.65273C4.46402 1.06623 4.09268 0.616362 3.60435 0.3299C3.11602 0.043438 2.54214 -0.0611686 1.98415 0.0345684C1.42615 0.130305 0.919962 0.420222 0.555048 0.853077C0.190134 1.28593 -0.0100098 1.83386 -0.0100098 2.40001C-0.0100098 2.96616 0.190134 3.51408 0.555048 3.94693C0.919962 4.37979 1.42615 4.6697 1.98415 4.76544C2.54214 4.86118 3.11602 4.75657 3.60435 4.47011C4.09268 4.18365 4.46402 3.73378 4.65273 3.20001H6.39993V4.80001C6.39993 5.22435 6.5685 5.63132 6.86856 5.93138C7.16862 6.23143 7.57559 6.40001 7.99993 6.40001H10.3999V12.8H4.65273C4.46402 12.2662 4.09268 11.8164 3.60435 11.5299C3.11602 11.2434 2.54214 11.1388 1.98415 11.2346C1.42615 11.3303 0.919962 11.6202 0.555048 12.0531C0.190134 12.4859 -0.0100098 13.0339 -0.0100098 13.6C-0.0100098 14.1662 0.190134 14.7141 0.555048 15.1469C0.919962 15.5798 1.42615 15.8697 1.98415 15.9654C2.54214 16.0612 3.11602 15.9566 3.60435 15.6701C4.09268 15.3836 4.46402 14.9338 4.65273 14.4H10.3999V20.8H7.99993C7.57559 20.8 7.16862 20.9686 6.86856 21.2686C6.5685 21.5687 6.39993 21.9757 6.39993 22.4V24H4.65273C4.46402 23.4662 4.09268 23.0164 3.60435 22.7299C3.11602 22.4434 2.54214 22.3388 1.98415 22.4346C1.42615 22.5303 0.919962 22.8202 0.555048 23.2531C0.190134 23.6859 -0.0100098 24.2339 -0.0100098 24.8C-0.0100098 25.3662 0.190134 25.9141 0.555048 26.3469C0.919962 26.7798 1.42615 27.0697 1.98415 27.1654C2.54214 27.2612 3.11602 27.1566 3.60435 26.8701C4.09268 26.5837 4.46402 26.1338 4.65273 25.6H6.39993C6.82428 25.6 7.23125 25.4314 7.5313 25.1314C7.83136 24.8313 7.99993 24.4244 7.99993 24V22.4H10.3999V24.8C10.3999 25.4365 10.6528 26.047 11.1029 26.4971C11.553 26.9472 12.1634 27.2 12.7999 27.2H35.1999C35.8365 27.2 36.4469 26.9472 36.897 26.4971C37.3471 26.047 37.5999 25.4365 37.5999 24.8V22.4H39.9999V24C39.9999 24.4244 40.1685 24.8313 40.4686 25.1314C40.7686 25.4314 41.1756 25.6 41.5999 25.6H43.3471C43.5359 26.1338 43.9072 26.5837 44.3955 26.8701C44.8839 27.1566 45.4577 27.2612 46.0157 27.1654C46.5737 27.0697 47.0799 26.7798 47.4448 26.3469C47.8097 25.9141 48.0099 25.3662 48.0099 24.8C48.0099 24.2339 47.8097 23.6859 47.4448 23.2531C47.0799 22.8202 46.5737 22.5303 46.0157 22.4346C45.4577 22.3388 44.8839 22.4434 44.3955 22.7299C43.9072 23.0164 43.5359 23.4662 43.3471 24H41.5999V22.4C41.5999 21.9757 41.4314 21.5687 41.1313 21.2686C40.8312 20.9686 40.4243 20.8 39.9999 20.8H37.5999V14.4H43.3471C43.5359 14.9338 43.9072 15.3836 44.3955 15.6701C44.8839 15.9566 45.4577 16.0612 46.0157 15.9654C46.5737 15.8697 47.0799 15.5798 47.4448 15.1469C47.8097 14.7141 48.0099 14.1662 48.0099 13.6C48.0099 13.0339 47.8097 12.4859 47.4448 12.0531C47.0799 11.6202 46.5737 11.3303 46.0157 11.2346C45.4577 11.1388 44.8839 11.2434 44.3955 11.5299C43.9072 11.8164 43.5359 12.2662 43.3471 12.8H37.5999V6.40001H39.9999ZM45.5999 1.60001C45.7582 1.60001 45.9128 1.64692 46.0444 1.73483C46.176 1.82273 46.2785 1.94768 46.339 2.09386C46.3996 2.24004 46.4154 2.40089 46.3846 2.55608C46.3537 2.71126 46.2775 2.85381 46.1656 2.96569C46.0537 3.07757 45.9112 3.15377 45.756 3.18463C45.6008 3.2155 45.44 3.19966 45.2938 3.13911C45.1476 3.07856 45.0227 2.97602 44.9348 2.84446C44.8469 2.7129 44.7999 2.55823 44.7999 2.40001C44.7999 2.18783 44.8842 1.98435 45.0343 1.83432C45.1843 1.68429 45.3878 1.60001 45.5999 1.60001ZM2.39993 3.20001C2.24171 3.20001 2.08704 3.15309 1.95548 3.06518C1.82392 2.97728 1.72138 2.85233 1.66083 2.70615C1.60028 2.55997 1.58444 2.39912 1.6153 2.24393C1.64617 2.08875 1.72236 1.9462 1.83425 1.83432C1.94613 1.72244 2.08868 1.64625 2.24386 1.61538C2.39904 1.58451 2.5599 1.60035 2.70608 1.6609C2.85226 1.72145 2.9772 1.82399 3.06511 1.95555C3.15301 2.08711 3.19993 2.24178 3.19993 2.40001C3.19993 2.61218 3.11565 2.81566 2.96562 2.96569C2.81559 3.11572 2.61211 3.20001 2.39993 3.20001ZM2.39993 14.4C2.24171 14.4 2.08704 14.3531 1.95548 14.2652C1.82392 14.1773 1.72138 14.0523 1.66083 13.9062C1.60028 13.76 1.58444 13.5991 1.6153 13.4439C1.64617 13.2887 1.72236 13.1462 1.83425 13.0343C1.94613 12.9224 2.08868 12.8462 2.24386 12.8154C2.39904 12.7845 2.5599 12.8004 2.70608 12.8609C2.85226 12.9215 2.9772 13.024 3.06511 13.1555C3.15301 13.2871 3.19993 13.4418 3.19993 13.6C3.19993 13.8122 3.11565 14.0157 2.96562 14.1657C2.81559 14.3157 2.61211 14.4 2.39993 14.4ZM2.39993 25.6C2.24171 25.6 2.08704 25.5531 1.95548 25.4652C1.82392 25.3773 1.72138 25.2523 1.66083 25.1062C1.60028 24.96 1.58444 24.7991 1.6153 24.6439C1.64617 24.4887 1.72236 24.3462 1.83425 24.2343C1.94613 24.1224 2.08868 24.0462 2.24386 24.0154C2.39904 23.9845 2.5599 24.0004 2.70608 24.0609C2.85226 24.1215 2.9772 24.224 3.06511 24.3556C3.15301 24.4871 3.19993 24.6418 3.19993 24.8C3.19993 25.0122 3.11565 25.2157 2.96562 25.3657C2.81559 25.5157 2.61211 25.6 2.39993 25.6ZM45.5999 24C45.7582 24 45.9128 24.0469 46.0444 24.1348C46.176 24.2227 46.2785 24.3477 46.339 24.4939C46.3996 24.64 46.4154 24.8009 46.3846 24.9561C46.3537 25.1113 46.2775 25.2538 46.1656 25.3657C46.0537 25.4776 45.9112 25.5538 45.756 25.5846C45.6008 25.6155 45.44 25.5997 45.2938 25.5391C45.1476 25.4786 45.0227 25.376 44.9348 25.2445C44.8469 25.1129 44.7999 24.9582 44.7999 24.8C44.7999 24.5878 44.8842 24.3843 45.0343 24.2343C45.1843 24.0843 45.3878 24 45.5999 24ZM45.5999 12.8C45.7582 12.8 45.9128 12.8469 46.0444 12.9348C46.176 13.0227 46.2785 13.1477 46.339 13.2939C46.3996 13.44 46.4154 13.6009 46.3846 13.7561C46.3537 13.9113 46.2775 14.0538 46.1656 14.1657C46.0537 14.2776 45.9112 14.3538 45.756 14.3846C45.6008 14.4155 45.44 14.3997 45.2938 14.3391C45.1476 14.2786 45.0227 14.176 44.9348 14.0445C44.8469 13.9129 44.7999 13.7582 44.7999 13.6C44.7999 13.3878 44.8842 13.1843 45.0343 13.0343C45.1843 12.8843 45.3878 12.8 45.5999 12.8ZM19.9999 1.60001H27.9999V9.70481L26.8439 8.93441C26.7125 8.84669 26.558 8.79989 26.3999 8.79989C26.2419 8.79989 26.0874 8.84669 25.9559 8.93441L23.9999 10.24L22.0439 8.93601C21.9125 8.8483 21.758 8.80149 21.5999 8.80149C21.4419 8.80149 21.2874 8.8483 21.1559 8.93601L19.9999 9.70481V1.60001ZM35.9999 24.8C35.9999 25.0122 35.9156 25.2157 35.7656 25.3657C35.6156 25.5157 35.4121 25.6 35.1999 25.6H12.7999C12.5878 25.6 12.3843 25.5157 12.2342 25.3657C12.0842 25.2157 11.9999 25.0122 11.9999 24.8V2.40001C11.9999 2.18783 12.0842 1.98435 12.2342 1.83432C12.3843 1.68429 12.5878 1.60001 12.7999 1.60001H18.3999V11.2C18.3999 11.3448 18.4392 11.487 18.5136 11.6112C18.5881 11.7355 18.6948 11.8372 18.8225 11.9055C18.9502 11.9738 19.0941 12.0062 19.2387 11.9992C19.3834 11.9922 19.5235 11.946 19.6439 11.8656L21.5999 10.56L23.5559 11.864C23.6874 11.9517 23.8419 11.9985 23.9999 11.9985C24.158 11.9985 24.3125 11.9517 24.4439 11.864L26.3999 10.56L28.3559 11.864C28.4763 11.9443 28.6162 11.9905 28.7607 11.9976C28.9052 12.0047 29.049 11.9724 29.1766 11.9043C29.3043 11.8361 29.4111 11.7347 29.4856 11.6106C29.5602 11.4866 29.5997 11.3447 29.5999 11.2V1.60001H35.1999C35.4121 1.60001 35.6156 1.68429 35.7656 1.83432C35.9156 1.98435 35.9999 2.18783 35.9999 2.40001V24.8Z" fill="#0366FF"/>
</g>
<defs>
<clipPath id="clip0_85_877">
<rect width="48" height="48" fill="white"/>
</clipPath>
</defs>
</svg>
