<svg width="48" height="48" viewBox="0 0 48 48" fill="none" xmlns="http://www.w3.org/2000/svg">
<g clip-path="url(#clip0_143_2500)">
<path d="M0.800171 12C1.24182 12 1.59998 11.6418 1.59998 11.1998V3.19995C1.59998 2.31628 2.31628 1.59998 3.19995 1.59998H11.1998C11.6418 1.59998 12 1.24182 12 0.800171C12 0.358154 11.6418 0 11.1998 0H3.19995C1.43262 0 0 1.43262 0 3.19995V11.1998C0 11.6418 0.358154 12 0.800171 12Z" fill="#0366FF"/>
<path d="M44.8 0H36.8001C36.3581 0 36 0.358154 36 0.800171C36 1.24182 36.3581 1.59998 36.8001 1.59998H44.8C45.6837 1.59998 46.4 2.31628 46.4 3.19995V11.1998C46.4 11.6418 46.7581 12 47.1998 12C47.6418 12 48 11.6418 48 11.1998V3.19995C48 1.43262 46.5674 0 44.8 0Z" fill="#0366FF"/>
<path d="M11.1998 46.4H3.19992C2.31625 46.4 1.59995 45.6837 1.59995 44.8V36.8002C1.59995 36.3582 1.24179 36 0.80014 36C0.358124 36 -3.05176e-05 36.3582 -3.05176e-05 36.8002V44.8C-3.05176e-05 46.5674 1.43259 48 3.19992 48H11.1998C11.6418 48 12 47.6418 12 47.1998C12 46.7582 11.6418 46.4 11.1998 46.4Z" fill="#0366FF"/>
<path d="M47.1998 36C46.7581 36 46.4 36.3582 46.4 36.8002V44.8C46.4 45.6837 45.6837 46.4 44.8 46.4H36.8001C36.3581 46.4 36 46.7582 36 47.1998C36 47.6418 36.3581 48 36.8001 48H44.8C46.5674 48 48 46.5674 48 44.8V36.8002C48 36.3582 47.6418 36 47.1998 36Z" fill="#0366FF"/>
<path d="M47.1998 19.9996H36.4687C37.0327 18.9021 36.8873 17.5735 36.0992 16.6239C35.7293 16.2401 35.2379 15.9966 34.7087 15.9343C35.3166 14.0212 36.056 10.4364 34.348 7.51111C32.6784 4.65027 29.1833 3.19971 23.9601 3.19971C18.7368 3.19971 15.2398 4.65027 13.5721 7.51111C11.8615 10.4404 12.6039 14.03 13.2129 15.9406C12.7082 16.0197 12.2439 16.2632 11.8919 16.6334C11.1101 17.5826 10.9676 18.9058 11.5294 19.9996H0.80014C0.358124 19.9996 -3.05176e-05 20.3578 -3.05176e-05 20.7998C-3.05176e-05 21.2415 0.358124 21.5996 0.80014 21.5996H12.2256C12.3548 21.957 12.4244 22.3335 12.4321 22.7133C12.3958 23.3823 12.6331 24.0371 13.0887 24.5278C13.4612 24.8981 13.9394 25.1427 14.4576 25.2277C14.5228 26.4153 14.8114 27.5798 15.308 28.6605C15.6049 29.1696 15.9909 29.6211 16.448 29.9935L16.0711 32.9869L8.42319 35.3398C6.74081 35.8507 5.59348 37.4049 5.60007 39.1631V41.5999C5.60007 42.4835 6.31638 43.1998 7.20004 43.1998H40.7999C41.6836 43.1998 42.3999 42.4835 42.3999 41.5999V39.1631C42.4065 37.4049 41.2591 35.8507 39.5768 35.3398L31.9288 32.9869L31.552 29.9943C32.0086 29.6215 32.395 29.1696 32.692 28.6605C33.193 27.5806 33.4841 26.4156 33.5504 25.2269C34.7757 25.0468 35.6572 23.9554 35.5759 22.7198C35.5781 22.3379 35.6451 21.9592 35.7744 21.5996H47.1998C47.6418 21.5996 48 21.2415 48 20.7998C48 20.3578 47.6418 19.9996 47.1998 19.9996ZM15.0201 8.20691C16.4135 5.94629 19.4209 4.79968 23.9601 4.79968C28.4992 4.79968 31.5073 5.94629 32.9 8.20691C33.7701 9.82483 34.0378 11.6991 33.6551 13.4957C33.1208 11.8038 32.2295 9.92847 30.7752 9.03748C30.0721 8.60022 29.1511 8.77783 28.6615 9.44543C28.1799 10.1006 26.9337 11.1996 24 11.1996C21.0663 11.1996 19.82 10.1006 19.3392 9.44543C18.8499 8.77673 17.9275 8.59912 17.2247 9.03821C15.7214 9.95886 14.8249 11.9294 14.2935 13.6631C13.8709 11.8163 14.1288 9.87866 15.0201 8.20691ZM13.1711 19.7532C12.6335 18.7391 12.7577 18.0463 13.0521 17.735C13.3154 17.4852 13.7083 17.4307 14.0295 17.5999C14.0493 17.6083 14.0698 17.6152 14.0903 17.6215C14.128 17.6387 14.1672 17.6526 14.2071 17.6636C14.2558 17.6775 14.3056 17.6866 14.3558 17.691C14.3767 17.691 14.3968 17.702 14.4177 17.702C14.4382 17.702 14.451 17.6925 14.4686 17.6918C14.5228 17.6874 14.5766 17.6775 14.6286 17.6621L14.6473 17.6566L14.6689 17.6493C14.6982 17.6409 14.7275 17.6313 14.7561 17.6196C14.8026 17.5951 14.8465 17.5662 14.8872 17.5325C14.9 17.5229 14.9121 17.5142 14.9238 17.5039C14.9538 17.4838 14.982 17.4622 15.0088 17.438C15.041 17.3977 15.0692 17.3545 15.0926 17.3087C15.0992 17.2981 15.1065 17.2893 15.112 17.2791C15.1292 17.2498 15.1443 17.2194 15.1567 17.1879C15.1662 17.1604 15.1736 17.1322 15.179 17.1036C15.1933 17.0601 15.2032 17.015 15.2094 16.9692C15.3863 15.5022 16.2345 11.5182 18.0465 10.3917C18.7104 11.2911 20.3609 12.7999 24 12.7999C27.639 12.7999 29.2895 11.2911 29.9392 10.3998C31.6534 11.4493 32.5063 15.0356 32.7487 16.6799C32.6433 17.0304 32.7931 17.4072 33.1102 17.5903C33.1728 17.6204 33.2391 17.642 33.3072 17.6541C33.3665 17.6702 33.4281 17.6793 33.4896 17.6815C33.5442 17.6896 33.5995 17.6921 33.6544 17.6885H33.6767C33.695 17.6885 33.7104 17.6749 33.7287 17.6716C33.7932 17.6639 33.8562 17.6482 33.9166 17.6244C34.244 17.4281 34.6615 17.4709 34.9424 17.7295C35.2393 18.0397 35.3646 18.734 34.8193 19.7678C34.7783 19.8477 34.7439 19.9213 34.7065 19.9982H13.292C13.2513 19.9198 13.2151 19.8396 13.1711 19.7532ZM40.7999 39.1631V41.5999H7.20004V39.1631C7.19601 38.1084 7.88449 37.176 8.8934 36.8695L16.311 34.5876C16.9376 35.9254 18.8001 38.3999 24 38.3999C29.1998 38.3999 31.0623 35.9254 31.6889 34.5876L39.1065 36.8695C40.1154 37.176 40.8039 38.1084 40.7999 39.1631ZM30.3863 33.5454C30.2032 34.1365 29.0921 36.7999 24 36.7999C18.8943 36.7999 17.7905 34.1215 17.6136 33.5469L17.9249 31.075C18.4416 31.4012 18.9448 31.6829 19.3465 31.8909C19.4366 31.9341 19.5161 31.9967 19.5791 32.074C20.6539 33.444 22.2623 34.2903 24 34.3998C25.7439 34.2885 27.357 33.437 28.4326 32.0597C28.4967 31.9857 28.5758 31.926 28.6648 31.8854C29.0647 31.6799 29.5616 31.3998 30.075 31.0757L30.3863 33.5454ZM33.9759 22.7455C33.9917 22.9875 33.9148 23.2263 33.7617 23.4142C33.4808 23.6233 33.1329 23.7225 32.7839 23.6932C32.3423 23.6932 31.9841 24.0514 31.9841 24.4934C31.9826 25.6711 31.7431 26.8368 31.2799 27.9197C30.9177 28.6085 29.6334 29.5852 27.9415 30.4637C27.6544 30.6036 27.4006 30.8036 27.1977 31.05C26.4239 32.0553 25.2638 32.6903 24 32.7998C22.7424 32.6899 21.5881 32.059 20.8169 31.0599C20.6143 30.8105 20.3606 30.6077 20.0727 30.4652C18.3695 29.5812 17.0855 28.6045 16.7248 27.9182C16.2704 26.8335 16.0323 25.6708 16.0239 24.4949C16.0239 24.0532 15.6657 23.6951 15.2241 23.6951C14.8714 23.7251 14.5202 23.6244 14.2368 23.4127C14.0852 23.2249 14.0119 22.9857 14.0321 22.7455C14.0335 22.3595 13.9889 21.975 13.8991 21.5996H34.1023C34.0122 21.9757 33.9697 22.3613 33.9759 22.7477V22.7455Z" fill="#0366FF"/>
</g>
<defs>
<clipPath id="clip0_143_2500">
<rect width="48" height="48" fill="white"/>
</clipPath>
</defs>
</svg>
