<svg width="24" height="24" viewBox="0 0 24 24" fill="none" xmlns="http://www.w3.org/2000/svg">
<path d="M9.97051 5.577L10.5728 7.2495C11.2418 9.10575 12.7035 10.5675 14.5598 11.2365L16.2323 11.8388C16.383 11.8935 16.383 12.1073 16.2323 12.1613L14.5598 12.7635C12.7035 13.4325 11.2418 14.8943 10.5728 16.7505L9.97051 18.423C9.91576 18.5738 9.70201 18.5738 9.64801 18.423L9.04576 16.7505C8.37676 14.8943 6.91501 13.4325 5.05876 12.7635L3.38626 12.1613C3.23551 12.1065 3.23551 11.8928 3.38626 11.8388L5.05876 11.2365C6.91501 10.5675 8.37676 9.10575 9.04576 7.2495L9.64801 5.577C9.70201 5.4255 9.91576 5.4255 9.97051 5.577Z" fill="#0366FF"/>
<path d="M17.499 1.55769L17.8042 2.40444C18.1432 3.34419 18.8835 4.08444 19.8232 4.42344L20.67 4.72869C20.7465 4.75644 20.7465 4.86444 20.67 4.89219L19.8232 5.19744C18.8835 5.53644 18.1432 6.27669 17.8042 7.21644L17.499 8.06319C17.4712 8.13969 17.3632 8.13969 17.3355 8.06319L17.0302 7.21644C16.6912 6.27669 15.951 5.53644 15.0112 5.19744L14.1645 4.89219C14.088 4.86444 14.088 4.75644 14.1645 4.72869L15.0112 4.42344C15.951 4.08444 16.6912 3.34419 17.0302 2.40444L17.3355 1.55769C17.3632 1.48044 17.472 1.48044 17.499 1.55769Z" fill="#0366FF"/>
<path d="M17.499 15.9375L17.8042 16.7843C18.1432 17.724 18.8835 18.4643 19.8232 18.8033L20.67 19.1085C20.7465 19.1363 20.7465 19.2443 20.67 19.272L19.8232 19.5773C18.8835 19.9163 18.1432 20.6565 17.8042 21.5963L17.499 22.443C17.4712 22.5195 17.3632 22.5195 17.3355 22.443L17.0302 21.5963C16.6912 20.6565 15.951 19.9163 15.0112 19.5773L14.1645 19.272C14.088 19.2443 14.088 19.1363 14.1645 19.1085L15.0112 18.8033C15.951 18.4643 16.6912 17.724 17.0302 16.7843L17.3355 15.9375C17.3632 15.861 17.472 15.861 17.499 15.9375Z" fill="#0366FF"/>
</svg>
