<svg width="48" height="48" viewBox="0 0 48 48" fill="none" xmlns="http://www.w3.org/2000/svg">
<g clip-path="url(#clip0_84_773)">
<path d="M9.60002 44H6.28642C6.09171 43.2459 5.62864 42.5886 4.98402 42.1515C4.33939 41.7144 3.55747 41.5274 2.78482 41.6255C2.01217 41.7236 1.30184 42.1002 0.786966 42.6846C0.272095 43.269 -0.0119629 44.0211 -0.0119629 44.8C-0.0119629 45.5789 0.272095 46.331 0.786966 46.9154C1.30184 47.4998 2.01217 47.8764 2.78482 47.9745C3.55747 48.0726 4.33939 47.8856 4.98402 47.4485C5.62864 47.0114 6.09171 46.3541 6.28642 45.6H9.60002C9.60002 46.2365 9.85288 46.847 10.303 47.2971C10.7531 47.7471 11.3635 48 12 48H20C20.6365 48 21.247 47.7471 21.6971 47.2971C22.1472 46.847 22.4 46.2365 22.4 45.6H32.1136C32.3083 46.3541 32.7714 47.0114 33.416 47.4485C34.0607 47.8856 34.8426 48.0726 35.6152 47.9745C36.3879 47.8764 37.0982 47.4998 37.6131 46.9154C38.128 46.331 38.412 45.5789 38.412 44.8C38.412 44.0211 38.128 43.269 37.6131 42.6846C37.0982 42.1002 36.3879 41.7236 35.6152 41.6255C34.8426 41.5274 34.0607 41.7144 33.416 42.1515C32.7714 42.5886 32.3083 43.2459 32.1136 44H22.4C22.4 43.3635 22.1472 42.753 21.6971 42.3029C21.247 41.8529 20.6365 41.6 20 41.6V39.7776C20.2425 39.6383 20.444 39.4377 20.5844 39.1959C20.7248 38.9541 20.7992 38.6796 20.8 38.4V36.8208C21.2729 36.8647 21.7301 37.0134 22.1384 37.256L24.24 38.516C24.9856 38.9633 25.8386 39.1997 26.708 39.2H36.8C37.8605 39.1987 38.8772 38.7769 39.627 38.027C40.3769 37.2772 40.7988 36.2605 40.8 35.2V34.4C40.8 33.9757 40.6315 33.5687 40.3314 33.2686C40.0313 32.9686 39.6244 32.8 39.2 32.8V31.2C39.2 30.7757 39.0315 30.3687 38.7314 30.0686C38.4313 29.7686 38.0244 29.6 37.6 29.6H29.6C29.1757 29.6 28.7687 29.7686 28.4687 30.0686C28.1686 30.3687 28 30.7757 28 31.2V32.7792C27.5271 32.7353 27.0699 32.5866 26.6616 32.344L24.56 31.084C23.8145 30.6367 22.9615 30.4003 22.092 30.4H20V28C20.2122 28 20.4157 27.9157 20.5657 27.7657C20.7157 27.6157 20.8 27.4122 20.8 27.2C20.8 26.9878 20.7157 26.7843 20.5657 26.6343C20.4157 26.4843 20.2122 26.4 20 26.4V24C20.2122 24 20.4157 23.9157 20.5657 23.7657C20.7157 23.6157 20.8 23.4122 20.8 23.2C20.8 22.9878 20.7157 22.7843 20.5657 22.6343C20.4157 22.4843 20.2122 22.4 20 22.4V20C20.2122 20 20.4157 19.9157 20.5657 19.7657C20.7157 19.6157 20.8 19.4122 20.8 19.2C20.8 18.9878 20.7157 18.7843 20.5657 18.6343C20.4157 18.4843 20.2122 18.4 20 18.4V16C20.2122 16 20.4157 15.9157 20.5657 15.7657C20.7157 15.6157 20.8 15.4122 20.8 15.2C20.8 14.9878 20.7157 14.7843 20.5657 14.6343C20.4157 14.4843 20.2122 14.4 20 14.4V12C20.2122 12 20.4157 11.9157 20.5657 11.7657C20.7157 11.6157 20.8 11.4122 20.8 11.2C20.8 10.9878 20.7157 10.7843 20.5657 10.6343C20.4157 10.4843 20.2122 10.4 20 10.4V8.8H20.492C21.362 8.80001 22.2156 8.56359 22.9616 8.116L25.0616 6.856C25.559 6.55761 26.128 6.39999 26.708 6.4H28V8C28 8.42435 28.1686 8.83131 28.4687 9.13137C28.7687 9.43143 29.1757 9.6 29.6 9.6H37.6C38.0244 9.6 38.4313 9.43143 38.7314 9.13137C39.0315 8.83131 39.2 8.42435 39.2 8V6.4C39.6244 6.4 40.0313 6.23143 40.3314 5.93137C40.6315 5.63131 40.8 5.22435 40.8 4.8V4C40.7988 2.93952 40.3769 1.92285 39.627 1.17298C38.8772 0.423106 37.8605 0.00127029 36.8 0L25.108 0C24.2386 0.000275942 23.3856 0.236691 22.64 0.684L20.5384 1.944C20.0411 2.24239 19.472 2.40001 18.892 2.4H11.2C10.3513 2.4 9.5374 2.73714 8.93728 3.33726C8.33717 3.93737 8.00002 4.75131 8.00002 5.6V7.2C8.00002 7.62435 8.1686 8.03131 8.46865 8.33137C8.76871 8.63143 9.17568 8.8 9.60002 8.8H12V10.4C11.7879 10.4 11.5844 10.4843 11.4343 10.6343C11.2843 10.7843 11.2 10.9878 11.2 11.2C11.2 11.4122 11.2843 11.6157 11.4343 11.7657C11.5844 11.9157 11.7879 12 12 12V14.4C11.7879 14.4 11.5844 14.4843 11.4343 14.6343C11.2843 14.7843 11.2 14.9878 11.2 15.2C11.2 15.4122 11.2843 15.6157 11.4343 15.7657C11.5844 15.9157 11.7879 16 12 16V18.4C11.7879 18.4 11.5844 18.4843 11.4343 18.6343C11.2843 18.7843 11.2 18.9878 11.2 19.2C11.2 19.4122 11.2843 19.6157 11.4343 19.7657C11.5844 19.9157 11.7879 20 12 20V22.4C11.7879 22.4 11.5844 22.4843 11.4343 22.6343C11.2843 22.7843 11.2 22.9878 11.2 23.2C11.2 23.4122 11.2843 23.6157 11.4343 23.7657C11.5844 23.9157 11.7879 24 12 24V26.4C11.7879 26.4 11.5844 26.4843 11.4343 26.6343C11.2843 26.7843 11.2 26.9878 11.2 27.2C11.2 27.4122 11.2843 27.6157 11.4343 27.7657C11.5844 27.9157 11.7879 28 12 28V30.4H9.60002C9.17568 30.4 8.76871 30.5686 8.46865 30.8686C8.1686 31.1687 8.00002 31.5757 8.00002 32V33.6C8.00002 34.4487 8.33717 35.2626 8.93728 35.8627C9.5374 36.4629 10.3513 36.8 11.2 36.8V38.4C11.2009 38.6796 11.2752 38.9541 11.4156 39.1959C11.5561 39.4377 11.7576 39.6383 12 39.7776V41.6C11.3635 41.6 10.7531 41.8529 10.303 42.3029C9.85288 42.753 9.60002 43.3635 9.60002 44ZM3.20002 46.4C2.88357 46.4 2.57423 46.3062 2.31111 46.1304C2.04799 45.9545 1.84292 45.7047 1.72182 45.4123C1.60072 45.1199 1.56903 44.7982 1.63077 44.4879C1.6925 44.1775 1.84489 43.8924 2.06865 43.6686C2.29242 43.4449 2.57751 43.2925 2.88788 43.2307C3.19825 43.169 3.51996 43.2007 3.81232 43.3218C4.10468 43.4429 4.35456 43.648 4.53038 43.9111C4.70619 44.1742 4.80002 44.4836 4.80002 44.8C4.80002 45.2243 4.63145 45.6313 4.33139 45.9314C4.03134 46.2314 3.62437 46.4 3.20002 46.4ZM35.2 43.2C35.5165 43.2 35.8258 43.2938 36.0889 43.4696C36.3521 43.6455 36.5571 43.8953 36.6782 44.1877C36.7993 44.4801 36.831 44.8018 36.7693 45.1121C36.7075 45.4225 36.5552 45.7076 36.3314 45.9314C36.1076 46.1551 35.8225 46.3075 35.5122 46.3693C35.2018 46.431 34.8801 46.3993 34.5877 46.2782C34.2954 46.1571 34.0455 45.952 33.8697 45.6889C33.6939 45.4258 33.6 45.1165 33.6 44.8C33.6 44.3757 33.7686 43.9687 34.0687 43.6686C34.3687 43.3686 34.7757 43.2 35.2 43.2ZM20.8 44V45.6C20.8 45.8122 20.7157 46.0157 20.5657 46.1657C20.4157 46.3157 20.2122 46.4 20 46.4H12C11.7879 46.4 11.5844 46.3157 11.4343 46.1657C11.2843 46.0157 11.2 45.8122 11.2 45.6V44C11.2 43.7878 11.2843 43.5843 11.4343 43.4343C11.5844 43.2843 11.7879 43.2 12 43.2H20C20.2122 43.2 20.4157 43.2843 20.5657 43.4343C20.7157 43.5843 20.8 43.7878 20.8 44ZM37.6 31.2V32.8H29.6V31.2H37.6ZM37.6 8H29.6V6.4H37.6V8ZM9.60002 5.6C9.60002 5.17565 9.76859 4.76869 10.0687 4.46863C10.3687 4.16857 10.7757 4 11.2 4H18.892C19.7615 3.99972 20.6145 3.76331 21.36 3.316L23.4616 2.056C23.959 1.75761 24.528 1.59999 25.108 1.6H36.8C37.4365 1.6 38.047 1.85286 38.4971 2.30294C38.9472 2.75303 39.2 3.36348 39.2 4V4.8H26.708C25.838 4.79999 24.9844 5.03641 24.2384 5.484L22.1384 6.744C21.6411 7.04239 21.072 7.20001 20.492 7.2H9.60002V5.6ZM13.6 8.8H18.4V10.4H13.6V8.8ZM13.6 12H18.4V14.4H13.6V12ZM13.6 16H18.4V18.4H13.6V16ZM13.6 20H18.4V22.4H13.6V20ZM13.6 24H18.4V26.4H13.6V24ZM13.6 28H18.4V30.4H13.6V28ZM9.60002 33.6V32H22.092C22.672 32 23.2411 32.1576 23.7384 32.456L25.84 33.716C26.5856 34.1633 27.4386 34.3997 28.308 34.4H39.2V35.2C39.2 35.8365 38.9472 36.447 38.4971 36.8971C38.047 37.3471 37.4365 37.6 36.8 37.6H26.708C26.128 37.6 25.559 37.4424 25.0616 37.144L22.96 35.884C22.2145 35.4367 21.3615 35.2003 20.492 35.2H11.2C10.7757 35.2 10.3687 35.0314 10.0687 34.7314C9.76859 34.4313 9.60002 34.0243 9.60002 33.6ZM19.2 36.8V38.4H12.8V36.8H19.2ZM13.6 40H18.4V41.6H13.6V40Z" fill="#0366FF"/>
<path d="M46.4 16H43.2V15.2C43.2 14.5635 42.9471 13.953 42.497 13.503C42.0469 13.0529 41.4365 12.8 40.8 12.8H35.68C35.5222 12.8002 35.3679 12.7534 35.2368 12.6656L33.6472 11.6C33.2539 11.3387 32.7921 11.1995 32.32 11.2H28.8C28.3756 11.2 27.9686 11.3686 27.6686 11.6686C27.3685 11.9687 27.2 12.3757 27.2 12.8V25.6C27.2 26.2365 27.4528 26.847 27.9029 27.2971C28.353 27.7472 28.9634 28 29.6 28H45.6C46.2365 28 46.8469 27.7472 47.297 27.2971C47.7471 26.847 48 26.2365 48 25.6V17.6C48 17.1757 47.8314 16.7687 47.5313 16.4686C47.2313 16.1686 46.8243 16 46.4 16ZM30.4 17.6V25.6C30.4 25.8122 30.3157 26.0157 30.1656 26.1657C30.0156 26.3157 29.8121 26.4 29.6 26.4C29.3878 26.4 29.1843 26.3157 29.0343 26.1657C28.8842 26.0157 28.8 25.8122 28.8 25.6V12.8H32.32C32.4777 12.7998 32.632 12.8466 32.7632 12.9344L34.3528 14C34.7472 14.2621 35.2104 14.4013 35.684 14.4H40.8C41.0121 14.4 41.2156 14.4843 41.3656 14.6343C41.5157 14.7844 41.6 14.9878 41.6 15.2V16H32C31.5756 16 31.1686 16.1686 30.8686 16.4686C30.5685 16.7687 30.4 17.1757 30.4 17.6ZM46.4 25.6C46.4 25.8122 46.3157 26.0157 46.1656 26.1657C46.0156 26.3157 45.8121 26.4 45.6 26.4H31.8632C31.9538 26.143 32.0001 25.8725 32 25.6V17.6H46.4V25.6Z" fill="#0366FF"/>
</g>
<defs>
<clipPath id="clip0_84_773">
<rect width="48" height="48" fill="white"/>
</clipPath>
</defs>
</svg>
