<svg width="48" height="48" viewBox="0 0 48 48" fill="none" xmlns="http://www.w3.org/2000/svg">
<g clip-path="url(#clip0_62_328)">
<path d="M36.92 11.28C36.8037 11.5538 36.771 11.8559 36.826 12.1482C36.8809 12.4406 37.0211 12.7102 37.2288 12.9232L41.3944 17.1688C41.5242 17.3049 41.6802 17.4133 41.853 17.4874C42.0259 17.5615 42.2119 17.5998 42.4 17.6C42.587 17.6001 42.7721 17.5625 42.9442 17.4894C43.1163 17.4162 43.2719 17.3091 43.4016 17.1744L47.5704 12.9264C47.7781 12.7134 47.9183 12.4438 47.9732 12.1514C48.0282 11.8591 47.9955 11.557 47.8792 11.2832C47.7751 11.0228 47.5954 10.7995 47.3633 10.6421C47.1312 10.4847 46.8572 10.4004 46.5768 10.4H45.5744C45.4734 8.14966 44.5436 6.01625 42.964 4.41036C41.2137 2.7433 38.9297 1.74991 36.5168 1.60636C36.2645 1.58471 36.0117 1.64274 35.7941 1.77229C35.5765 1.90184 35.405 2.09637 35.3038 2.32851C35.2026 2.56064 35.1767 2.81868 35.2299 3.06628C35.283 3.31389 35.4124 3.5386 35.6 3.70876C37.564 5.43 38.8312 7.80966 39.1632 10.4H38.224C37.9436 10.3998 37.6697 10.4835 37.4373 10.6403C37.2049 10.7971 37.0247 11.0199 36.92 11.28ZM40 12C40.2122 12 40.4157 11.9157 40.5657 11.7656C40.7157 11.6156 40.8 11.4121 40.8 11.2C40.7291 8.26766 39.5583 5.46919 37.52 3.35996C39.1459 3.64099 40.6504 4.40218 41.84 5.54556C42.5607 6.29511 43.1234 7.18195 43.4944 8.15333C43.8655 9.12471 44.0374 10.1608 44 11.2C44 11.4121 44.0843 11.6156 44.2343 11.7656C44.3843 11.9157 44.5878 12 44.8 12H46.24L42.4 15.9128L38.56 12H40Z" fill="#0366FF"/>
<path d="M11.08 36.72C11.1963 36.4462 11.229 36.1441 11.174 35.8517C11.1191 35.5594 10.9789 35.2898 10.7712 35.0768L6.6056 30.828C6.47556 30.6925 6.31942 30.5847 6.14659 30.5111C5.97376 30.4376 5.78783 30.3998 5.6 30.4C5.413 30.3999 5.22789 30.4375 5.05578 30.5106C4.88367 30.5838 4.7281 30.6909 4.5984 30.8256L0.428003 35.0736C0.21963 35.2868 0.0790944 35.557 0.0241353 35.85C-0.0308238 36.1431 0.00225742 36.4458 0.119203 36.72C0.223936 36.9801 0.404084 37.2028 0.63647 37.3597C0.868857 37.5165 1.14285 37.6002 1.4232 37.6H2.4256C2.5273 39.8514 3.45857 41.9855 5.04 43.5912C6.79027 45.2583 9.07434 46.2517 11.4872 46.3952C11.5224 46.3952 11.5584 46.4 11.5936 46.4C11.8379 46.3991 12.0761 46.3242 12.277 46.1854C12.478 46.0465 12.6322 45.8501 12.7194 45.622C12.8067 45.3938 12.8229 45.1446 12.7658 44.9071C12.7088 44.6696 12.5813 44.4549 12.4 44.2912C10.436 42.57 9.1688 40.1903 8.8368 37.6H9.776C10.0564 37.6002 10.3304 37.5165 10.5627 37.3597C10.7951 37.2028 10.9753 36.9801 11.08 36.72ZM8 36C7.78783 36 7.58435 36.0843 7.43432 36.2343C7.28429 36.3844 7.2 36.5879 7.2 36.8C7.27093 39.7323 8.44172 42.5308 10.48 44.64C8.85414 44.359 7.34958 43.5978 6.16 42.4544C5.43927 41.7049 4.87664 40.818 4.50557 39.8467C4.1345 38.8753 3.96257 37.8392 4 36.8C4 36.5879 3.91572 36.3844 3.76569 36.2343C3.61566 36.0843 3.41218 36 3.2 36H1.76L5.6 32.0872L9.44 36H8Z" fill="#0366FF"/>
<path d="M45.6 21.6H32V4.8C32 4.16348 31.7471 3.55303 31.2971 3.10294C30.847 2.65286 30.2365 2.4 29.6 2.4H15.2C14.7276 2.39891 14.2682 2.24575 13.8896 1.9632L12.2816 0.7568C11.6257 0.267249 10.8296 0.00188943 10.0112 0L2.4 0C1.76348 0 1.15303 0.252856 0.702944 0.702944C0.252856 1.15303 0 1.76348 0 2.4L0 26.4C0 27.0365 0.252856 27.647 0.702944 28.0971C1.15303 28.5471 1.76348 28.8 2.4 28.8H16V45.6C16 46.2365 16.2529 46.847 16.7029 47.2971C17.153 47.7471 17.7635 48 18.4 48H45.6C46.2365 48 46.847 47.7471 47.2971 47.2971C47.7471 46.847 48 46.2365 48 45.6V24C48 23.3635 47.7471 22.753 47.2971 22.3029C46.847 21.8529 46.2365 21.6 45.6 21.6ZM46.4 24V28.1472C46.1438 28.0524 45.8732 28.0027 45.6 28H44.8V27.2C44.8 26.5635 44.5471 25.953 44.0971 25.5029C43.647 25.0529 43.0365 24.8 42.4 24.8H21.6C20.9635 24.8 20.353 25.0529 19.9029 25.5029C19.4529 25.953 19.2 26.5635 19.2 27.2V28H18.4C18.1268 28.0027 17.8562 28.0524 17.6 28.1472V21.6C17.6 21.3878 17.6843 21.1843 17.8343 21.0343C17.9843 20.8843 18.1878 20.8 18.4 20.8H26.0112C26.4834 20.8009 26.9426 20.9541 27.3208 21.2368L28.9296 22.4432C29.5854 22.9329 30.3815 23.1982 31.2 23.2H45.6C45.8122 23.2 46.0157 23.2843 46.1657 23.4343C46.3157 23.5843 46.4 23.7878 46.4 24ZM43.2 28H20.8V27.2C20.8 26.9878 20.8843 26.7843 21.0343 26.6343C21.1843 26.4843 21.3878 26.4 21.6 26.4H42.4C42.6122 26.4 42.8157 26.4843 42.9657 26.6343C43.1157 26.7843 43.2 26.9878 43.2 27.2V28ZM2.4 1.6H10.0112C10.4834 1.60092 10.9426 1.7541 11.3208 2.0368L12.9296 3.2432C13.5854 3.73285 14.3815 3.99822 15.2 4H29.6C29.8122 4 30.0157 4.08429 30.1657 4.23431C30.3157 4.38434 30.4 4.58783 30.4 4.8V8.9472C30.1438 8.85245 29.8732 8.80265 29.6 8.8H28.8V8C28.8 7.36348 28.5471 6.75303 28.0971 6.30294C27.647 5.85286 27.0365 5.6 26.4 5.6H5.6C4.96348 5.6 4.35303 5.85286 3.90294 6.30294C3.45286 6.75303 3.2 7.36348 3.2 8V8.8H2.4C2.12685 8.80265 1.85621 8.85245 1.6 8.9472V2.4C1.6 2.18783 1.68429 1.98434 1.83431 1.83431C1.98434 1.68429 2.18783 1.6 2.4 1.6ZM27.2 8.8H4.8V8C4.8 7.78783 4.88429 7.58434 5.03431 7.43431C5.18434 7.28429 5.38783 7.2 5.6 7.2H26.4C26.6122 7.2 26.8157 7.28429 26.9657 7.43431C27.1157 7.58434 27.2 7.78783 27.2 8V8.8ZM2.4 27.2C2.18783 27.2 1.98434 27.1157 1.83431 26.9657C1.68429 26.8157 1.6 26.6122 1.6 26.4V11.2C1.6 10.9878 1.68429 10.7843 1.83431 10.6343C1.98434 10.4843 2.18783 10.4 2.4 10.4H29.6C29.8122 10.4 30.0157 10.4843 30.1657 10.6343C30.3157 10.7843 30.4 10.9878 30.4 11.2V21.44C30.2182 21.3707 30.0466 21.2773 29.8896 21.1624L28.2816 19.956C27.6256 19.4667 26.8295 19.2017 26.0112 19.2H18.4C17.7635 19.2 17.153 19.4529 16.7029 19.9029C16.2529 20.353 16 20.9635 16 21.6V27.2H2.4ZM46.4 45.6C46.4 45.8122 46.3157 46.0157 46.1657 46.1657C46.0157 46.3157 45.8122 46.4 45.6 46.4H18.4C18.1878 46.4 17.9843 46.3157 17.8343 46.1657C17.6843 46.0157 17.6 45.8122 17.6 45.6V30.4C17.6 30.1878 17.6843 29.9843 17.8343 29.8343C17.9843 29.6843 18.1878 29.6 18.4 29.6H45.6C45.8122 29.6 46.0157 29.6843 46.1657 29.8343C46.3157 29.9843 46.4 30.1878 46.4 30.4V45.6Z" fill="#0366FF"/>
</g>
<defs>
<clipPath id="clip0_62_328">
<rect width="48" height="48" fill="white"/>
</clipPath>
</defs>
</svg>
