<svg width="48" height="48" viewBox="0 0 48 48" fill="none" xmlns="http://www.w3.org/2000/svg">
<g clip-path="url(#clip0_62_343)">
<path d="M21 7.5H23.25V10.5C23.25 10.6989 23.329 10.8897 23.4697 11.0303C23.6103 11.171 23.8011 11.25 24 11.25C24.1989 11.25 24.3897 11.171 24.5303 11.0303C24.671 10.8897 24.75 10.6989 24.75 10.5V7.5H27C27.1989 7.5 27.3897 7.42098 27.5303 7.28033C27.671 7.13968 27.75 6.94891 27.75 6.75V0.75C27.75 0.551088 27.671 0.360322 27.5303 0.21967C27.3897 0.0790176 27.1989 0 27 0L21 0C20.8011 0 20.6103 0.0790176 20.4697 0.21967C20.329 0.360322 20.25 0.551088 20.25 0.75V6.75C20.25 6.94891 20.329 7.13968 20.4697 7.28033C20.6103 7.42098 20.8011 7.5 21 7.5ZM21.75 1.5H26.25V6H21.75V1.5Z" fill="#0366FF"/>
<path d="M27 40.5H24.75V37.5C24.75 37.3011 24.671 37.1103 24.5303 36.9697C24.3897 36.829 24.1989 36.75 24 36.75C23.8011 36.75 23.6103 36.829 23.4697 36.9697C23.329 37.1103 23.25 37.3011 23.25 37.5V40.5H21C20.8011 40.5 20.6103 40.579 20.4697 40.7197C20.329 40.8603 20.25 41.0511 20.25 41.25V47.25C20.25 47.4489 20.329 47.6397 20.4697 47.7803C20.6103 47.921 20.8011 48 21 48H27C27.1989 48 27.3897 47.921 27.5303 47.7803C27.671 47.6397 27.75 47.4489 27.75 47.25V41.25C27.75 41.0511 27.671 40.8603 27.5303 40.7197C27.3897 40.579 27.1989 40.5 27 40.5ZM26.25 46.5H21.75V42H26.25V46.5Z" fill="#0366FF"/>
<path d="M47.25 0H38.25C38.0511 0 37.8603 0.0790176 37.7197 0.21967C37.579 0.360322 37.5 0.551088 37.5 0.75V9.4395L32.4698 14.4697C32.3331 14.6112 32.2575 14.8007 32.2592 14.9973C32.261 15.1939 32.3398 15.3821 32.4789 15.5211C32.6179 15.6602 32.8061 15.739 33.0027 15.7408C33.1993 15.7425 33.3888 15.6669 33.5303 15.5303L38.5605 10.5H47.25C47.4489 10.5 47.6397 10.421 47.7803 10.2803C47.921 10.1397 48 9.94891 48 9.75V0.75C48 0.551088 47.921 0.360322 47.7803 0.21967C47.6397 0.0790176 47.4489 0 47.25 0ZM46.5 9H39V1.5H46.5V9Z" fill="#0366FF"/>
<path d="M23.625 12.8519L14.625 18.1019C14.513 18.1697 14.4199 18.2646 14.3544 18.3779C14.2888 18.4911 14.2529 18.6191 14.25 18.7499V29.2499C14.2503 29.3813 14.285 29.5104 14.3509 29.6241C14.4167 29.7378 14.5112 29.8322 14.625 29.8979L23.625 35.1479C23.7397 35.2149 23.8702 35.2502 24.003 35.2502C24.1358 35.2502 24.2663 35.2149 24.381 35.1479L33.381 29.8979C33.4937 29.8315 33.587 29.7367 33.6517 29.6231C33.7165 29.5094 33.7503 29.3808 33.75 29.2499V18.7499C33.747 18.6191 33.7111 18.4912 33.6455 18.3779C33.58 18.2646 33.4869 18.1697 33.375 18.1019L24.375 12.8519C24.261 12.7861 24.1317 12.7515 24 12.7515C23.8683 12.7515 23.739 12.7861 23.625 12.8519ZM15.75 20.0557L23.25 24.4304V33.1942L15.75 28.8194V20.0557ZM24.75 33.1942V24.4304L32.25 20.0557V28.8194L24.75 33.1942ZM24 23.1314L16.488 18.7499L24 14.3684L31.512 18.7499L24 23.1314Z" fill="#0366FF"/>
<path d="M47.25 20.25H41.25C41.0511 20.25 40.8603 20.329 40.7197 20.4697C40.579 20.6103 40.5 20.8011 40.5 21V23.25H36C35.8011 23.25 35.6103 23.329 35.4697 23.4697C35.329 23.6103 35.25 23.8011 35.25 24C35.25 24.1989 35.329 24.3897 35.4697 24.5303C35.6103 24.671 35.8011 24.75 36 24.75H40.5V27C40.5 27.1989 40.579 27.3897 40.7197 27.5303C40.8603 27.671 41.0511 27.75 41.25 27.75H47.25C47.4489 27.75 47.6397 27.671 47.7803 27.5303C47.921 27.3897 48 27.1989 48 27V21C48 20.8011 47.921 20.6103 47.7803 20.4697C47.6397 20.329 47.4489 20.25 47.25 20.25ZM46.5 26.25H42V21.75H46.5V26.25Z" fill="#0366FF"/>
<path d="M0.75 27.75H6.75C6.94891 27.75 7.13968 27.671 7.28033 27.5303C7.42098 27.3897 7.5 27.1989 7.5 27V24.75H12C12.1989 24.75 12.3897 24.671 12.5303 24.5303C12.671 24.3897 12.75 24.1989 12.75 24C12.75 23.8011 12.671 23.6103 12.5303 23.4697C12.3897 23.329 12.1989 23.25 12 23.25H7.5V21C7.5 20.8011 7.42098 20.6103 7.28033 20.4697C7.13968 20.329 6.94891 20.25 6.75 20.25H0.75C0.551088 20.25 0.360322 20.329 0.21967 20.4697C0.0790176 20.6103 0 20.8011 0 21L0 27C0 27.1989 0.0790176 27.3897 0.21967 27.5303C0.360322 27.671 0.551088 27.75 0.75 27.75ZM1.5 21.75H6V26.25H1.5V21.75Z" fill="#0366FF"/>
<path d="M0.75 10.5H9.4395L14.4697 15.5303C14.6112 15.6669 14.8007 15.7425 14.9973 15.7408C15.1939 15.739 15.3821 15.6602 15.5211 15.5211C15.6602 15.3821 15.739 15.1939 15.7408 14.9973C15.7425 14.8007 15.6669 14.6112 15.5303 14.4697L10.5 9.4395V0.75C10.5 0.551088 10.421 0.360322 10.2803 0.21967C10.1397 0.0790176 9.94891 0 9.75 0L0.75 0C0.551088 0 0.360322 0.0790176 0.21967 0.21967C0.0790176 0.360322 0 0.551088 0 0.75L0 9.75C0 9.94891 0.0790176 10.1397 0.21967 10.2803C0.360322 10.421 0.551088 10.5 0.75 10.5ZM1.5 1.5H9V9H1.5V1.5Z" fill="#0366FF"/>
<path d="M47.25 37.5001H38.5605L33.5303 32.4698C33.3888 32.3332 33.1993 32.2576 33.0027 32.2593C32.8061 32.261 32.6179 32.3399 32.4789 32.4789C32.3398 32.618 32.261 32.8061 32.2592 33.0028C32.2575 33.1994 32.3331 33.3889 32.4698 33.5303L37.5 38.5606V47.2501C37.5 47.449 37.579 47.6397 37.7197 47.7804C37.8603 47.921 38.0511 48.0001 38.25 48.0001H47.25C47.4489 48.0001 47.6397 47.921 47.7803 47.7804C47.921 47.6397 48 47.449 48 47.2501V38.2501C48 38.0511 47.921 37.8604 47.7803 37.7197C47.6397 37.5791 47.4489 37.5001 47.25 37.5001ZM46.5 46.5001H39V39.0001H46.5V46.5001Z" fill="#0366FF"/>
<path d="M14.4697 32.4698L9.4395 37.5001H0.75C0.551088 37.5001 0.360322 37.5791 0.21967 37.7197C0.0790176 37.8604 0 38.0511 0 38.2501L0 47.2501C0 47.449 0.0790176 47.6397 0.21967 47.7804C0.360322 47.921 0.551088 48.0001 0.75 48.0001H9.75C9.94891 48.0001 10.1397 47.921 10.2803 47.7804C10.421 47.6397 10.5 47.449 10.5 47.2501V38.5606L15.5303 33.5303C15.6669 33.3889 15.7425 33.1994 15.7408 33.0028C15.739 32.8061 15.6602 32.618 15.5211 32.4789C15.3821 32.3399 15.1939 32.261 14.9973 32.2593C14.8007 32.2576 14.6112 32.3332 14.4697 32.4698ZM9 46.5001H1.5V39.0001H9V46.5001Z" fill="#0366FF"/>
</g>
<defs>
<clipPath id="clip0_62_343">
<rect width="48" height="48" fill="white"/>
</clipPath>
</defs>
</svg>
