<svg width="48" height="48" viewBox="0 0 48 48" fill="none" xmlns="http://www.w3.org/2000/svg">
<g clip-path="url(#clip0_62_333)">
<path d="M45.6 26.4H36.4432L33.1464 21.12C32.9293 20.7768 32.629 20.4942 32.2733 20.2983C31.9175 20.1025 31.5181 19.9999 31.112 20H25.6V13.6C25.6 12.96 25.1656 12.4288 24.276 11.9856C25.0888 11.572 25.6 11.0536 25.6 10.4V3.2C25.6 0.0896 14.1104 0 12.8 0C11.4896 0 0 0.0896 0 3.2V10.4C0 11.0536 0.5112 11.572 1.324 11.9856C0.4344 12.4288 0 12.96 0 13.6V20.8C0 21.4536 0.5112 21.972 1.324 22.3856C0.4344 22.8288 0 23.36 0 24V31.2C0 34.3104 11.4896 34.4 12.8 34.4C15.2081 34.4122 17.6141 34.2544 20 33.928V45.6C20 46.2365 20.2529 46.847 20.7029 47.2971C21.153 47.7471 21.7635 48 22.4 48H45.6C46.2365 48 46.847 47.7471 47.2971 47.2971C47.7471 46.847 48 46.2365 48 45.6V28.8C48 28.1635 47.7471 27.553 47.2971 27.1029C46.847 26.6529 46.2365 26.4 45.6 26.4ZM22.4 20C21.8513 20.0004 21.3193 20.1888 20.8927 20.5338C20.466 20.8788 20.1704 21.3595 20.0552 21.896C17.653 22.2467 15.2276 22.4152 12.8 22.4C5.896 22.4 2.1128 21.3064 1.6 20.7144V15.3168C4.8 16.7456 11.7952 16.8 12.8 16.8C13.8048 16.8 20.8 16.7456 24 15.3168V20H22.4ZM1.6 10.3144V4.9168C4.8 6.3456 11.7952 6.4 12.8 6.4C13.8048 6.4 20.8 6.3456 24 4.9168V10.3144C23.4864 10.9064 19.7016 12 12.8 12C5.8984 12 2.1136 10.9064 1.6 10.3144ZM12.8 1.6C19.3792 1.6 23.1256 2.5936 23.9064 3.2C23.1256 3.8064 19.3792 4.8 12.8 4.8C6.2208 4.8 2.4744 3.8064 1.6936 3.2C2.4744 2.5936 6.2208 1.6 12.8 1.6ZM12.8 13.6C15.792 13.6087 18.7786 13.3461 21.7232 12.8152C22.4908 12.9439 23.2283 13.212 23.8992 13.6064C23.1024 14.2128 19.36 15.2 12.8 15.2C6.24 15.2 2.4976 14.2128 1.7008 13.6064C2.37174 13.212 3.10924 12.9439 3.8768 12.8152C6.82135 13.3461 9.80799 13.6087 12.8 13.6ZM12.8 24C15.2082 24.0124 17.6143 23.8536 20 23.5248V25.1096C17.6154 25.4501 15.2088 25.6141 12.8 25.6C6.24 25.6 2.4976 24.6128 1.7008 24.0064C2.37174 23.612 3.10924 23.3439 3.8768 23.2152C6.82135 23.7461 9.80799 24.0087 12.8 24ZM12.8 32.8C5.896 32.8 2.1128 31.7064 1.6 31.1144V25.7168C4.8 27.1456 11.7952 27.2 12.8 27.2C15.2081 27.2121 17.614 27.0546 20 26.7288V32.3088C17.6154 32.6499 15.2088 32.8141 12.8 32.8ZM23.2 28.8V45.6C23.2 45.8122 23.1157 46.0157 22.9657 46.1657C22.8157 46.3157 22.6122 46.4 22.4 46.4C22.1878 46.4 21.9843 46.3157 21.8343 46.1657C21.6843 46.0157 21.6 45.8122 21.6 45.6V22.4C21.6 22.1878 21.6843 21.9843 21.8343 21.8343C21.9843 21.6843 22.1878 21.6 22.4 21.6H31.112C31.2479 21.6015 31.3813 21.6367 31.5003 21.7025C31.6192 21.7683 31.72 21.8625 31.7936 21.9768L34.56 26.4H25.6C24.9635 26.4 24.353 26.6529 23.9029 27.1029C23.4529 27.553 23.2 28.1635 23.2 28.8ZM46.4 45.6C46.4 45.8122 46.3157 46.0157 46.1657 46.1657C46.0157 46.3157 45.8122 46.4 45.6 46.4H24.6632C24.7539 46.143 24.8001 45.8725 24.8 45.6V28.8C24.8 28.5878 24.8843 28.3843 25.0343 28.2343C25.1843 28.0843 25.3878 28 25.6 28H45.6C45.8122 28 46.0157 28.0843 46.1657 28.2343C46.3157 28.3843 46.4 28.5878 46.4 28.8V45.6Z" fill="#0366FF"/>
<path d="M35.2 31.2H28.8C28.3757 31.2 27.9687 31.3685 27.6686 31.6686C27.3686 31.9686 27.2 32.3756 27.2 32.8V36C27.2 36.4243 27.3686 36.8313 27.6686 37.1313C27.9687 37.4314 28.3757 37.6 28.8 37.6H35.2C35.6244 37.6 36.0313 37.4314 36.3314 37.1313C36.6314 36.8313 36.8 36.4243 36.8 36V32.8C36.8 32.3756 36.6314 31.9686 36.3314 31.6686C36.0313 31.3685 35.6244 31.2 35.2 31.2ZM28.8 36V32.8H35.2V36H28.8Z" fill="#0366FF"/>
<path d="M34.4 39.2H28C27.7878 39.2 27.5844 39.2842 27.4343 39.4343C27.2843 39.5843 27.2 39.7878 27.2 40C27.2 40.2121 27.2843 40.4156 27.4343 40.5656C27.5844 40.7157 27.7878 40.8 28 40.8H34.4C34.6122 40.8 34.8157 40.7157 34.9657 40.5656C35.1157 40.4156 35.2 40.2121 35.2 40C35.2 39.7878 35.1157 39.5843 34.9657 39.4343C34.8157 39.2842 34.6122 39.2 34.4 39.2Z" fill="#0366FF"/>
</g>
<defs>
<clipPath id="clip0_62_333">
<rect width="48" height="48" fill="white"/>
</clipPath>
</defs>
</svg>
