<svg width="48" height="48" viewBox="0 0 48 48" fill="none" xmlns="http://www.w3.org/2000/svg">
<g clip-path="url(#clip0_143_2535)">
<path d="M3.2 48H44.8C45.6487 48 46.4626 47.6629 47.0627 47.0627C47.6629 46.4626 48 45.6487 48 44.8V3.2C48 2.35131 47.6629 1.53737 47.0627 0.937258C46.4626 0.337142 45.6487 0 44.8 0L3.2 0C2.35131 0 1.53737 0.337142 0.937258 0.937258C0.337142 1.53737 0 2.35131 0 3.2L0 44.8C0 45.6487 0.337142 46.4626 0.937258 47.0627C1.53737 47.6629 2.35131 48 3.2 48ZM16.8 37.6C16.8 37.4418 16.8469 37.2871 16.9348 37.1555C17.0227 37.024 17.1477 36.9214 17.2939 36.8609C17.44 36.8003 17.6009 36.7845 17.7561 36.8154C17.9113 36.8462 18.0538 36.9224 18.1657 37.0343C18.2776 37.1462 18.3538 37.2887 18.3846 37.4439C18.4155 37.5991 18.3997 37.76 18.3391 37.9061C18.2786 38.0523 18.176 38.1773 18.0445 38.2652C17.9129 38.3531 17.7582 38.4 17.6 38.4C17.3878 38.4 17.1843 38.3157 17.0343 38.1657C16.8843 38.0157 16.8 37.8122 16.8 37.6ZM23.2 32C23.2 31.8418 23.2469 31.6871 23.3348 31.5555C23.4227 31.424 23.5477 31.3214 23.6939 31.2609C23.84 31.2003 24.0009 31.1845 24.1561 31.2154C24.3113 31.2462 24.4538 31.3224 24.5657 31.4343C24.6776 31.5462 24.7538 31.6887 24.7846 31.8439C24.8155 31.9991 24.7997 32.16 24.7391 32.3061C24.6786 32.4523 24.576 32.5773 24.4445 32.6652C24.3129 32.7531 24.1582 32.8 24 32.8C23.7878 32.8 23.5843 32.7157 23.4343 32.5657C23.2843 32.4157 23.2 32.2122 23.2 32ZM29.6 37.6C29.6 37.4418 29.6469 37.2871 29.7348 37.1555C29.8227 37.024 29.9477 36.9214 30.0939 36.8609C30.24 36.8003 30.4009 36.7845 30.5561 36.8154C30.7113 36.8462 30.8538 36.9224 30.9657 37.0343C31.0776 37.1462 31.1538 37.2887 31.1846 37.4439C31.2155 37.5991 31.1997 37.76 31.1391 37.9061C31.0786 38.0523 30.976 38.1773 30.8445 38.2652C30.7129 38.3531 30.5582 38.4 30.4 38.4C30.1878 38.4 29.9843 38.3157 29.8343 38.1657C29.6843 38.0157 29.6 37.8122 29.6 37.6ZM31.2 10.4C31.2 10.5582 31.1531 10.7129 31.0652 10.8445C30.9773 10.976 30.8523 11.0786 30.7061 11.1391C30.56 11.1997 30.3991 11.2155 30.2439 11.1846C30.0887 11.1538 29.9462 11.0776 29.8343 10.9657C29.7224 10.8538 29.6462 10.7113 29.6154 10.5561C29.5845 10.4009 29.6003 10.24 29.6609 10.0939C29.7214 9.94767 29.824 9.82273 29.9555 9.73482C30.0871 9.64692 30.2418 9.6 30.4 9.6C30.6122 9.6 30.8157 9.68429 30.9657 9.83432C31.1157 9.98434 31.2 10.1878 31.2 10.4ZM24.8 16C24.8 16.1582 24.7531 16.3129 24.6652 16.4445C24.5773 16.576 24.4523 16.6786 24.3061 16.7391C24.16 16.7997 23.9991 16.8155 23.8439 16.7846C23.6887 16.7538 23.5462 16.6776 23.4343 16.5657C23.3224 16.4538 23.2462 16.3113 23.2154 16.1561C23.1845 16.0009 23.2003 15.84 23.2609 15.6939C23.3214 15.5477 23.424 15.4227 23.5555 15.3348C23.6871 15.2469 23.8418 15.2 24 15.2C24.2122 15.2 24.4157 15.2843 24.5657 15.4343C24.7157 15.5843 24.8 15.7878 24.8 16ZM18.4 10.4C18.4 10.5582 18.3531 10.7129 18.2652 10.8445C18.1773 10.976 18.0523 11.0786 17.9061 11.1391C17.76 11.1997 17.5991 11.2155 17.4439 11.1846C17.2887 11.1538 17.1462 11.0776 17.0343 10.9657C16.9224 10.8538 16.8462 10.7113 16.8154 10.5561C16.7845 10.4009 16.8003 10.24 16.8609 10.0939C16.9214 9.94767 17.024 9.82273 17.1555 9.73482C17.2871 9.64692 17.4418 9.6 17.6 9.6C17.8122 9.6 18.0157 9.68429 18.1657 9.83432C18.3157 9.98434 18.4 10.1878 18.4 10.4ZM3.2 1.6H11.2V8.8C11.2 9.01217 11.2843 9.21566 11.4343 9.36569C11.5843 9.51571 11.7878 9.6 12 9.6C12.2122 9.6 12.4157 9.51571 12.5657 9.36569C12.7157 9.21566 12.8 9.01217 12.8 8.8V1.6H16.8V8.1472C16.2662 8.33592 15.8164 8.70726 15.5299 9.19558C15.2434 9.68391 15.1388 10.2578 15.2346 10.8158C15.3303 11.3738 15.6202 11.88 16.0531 12.2449C16.4859 12.6098 17.0338 12.8099 17.6 12.8099C18.1661 12.8099 18.7141 12.6098 19.1469 12.2449C19.5798 11.88 19.8697 11.3738 19.9654 10.8158C20.0612 10.2578 19.9566 9.68391 19.6701 9.19558C19.3836 8.70726 18.9338 8.33592 18.4 8.1472V1.6H23.2V13.7472C22.6662 13.9359 22.2164 14.3073 21.9299 14.7956C21.6434 15.2839 21.5388 15.8578 21.6346 16.4158C21.7303 16.9738 22.0202 17.48 22.4531 17.8449C22.8859 18.2098 23.4339 18.4099 24 18.4099C24.5662 18.4099 25.1141 18.2098 25.5469 17.8449C25.9798 17.48 26.2697 16.9738 26.3654 16.4158C26.4612 15.8578 26.3566 15.2839 26.0701 14.7956C25.7836 14.3073 25.3338 13.9359 24.8 13.7472V1.6H29.6V8.1472C29.0662 8.33592 28.6164 8.70726 28.3299 9.19558C28.0434 9.68391 27.9388 10.2578 28.0346 10.8158C28.1303 11.3738 28.4202 11.88 28.8531 12.2449C29.2859 12.6098 29.8339 12.8099 30.4 12.8099C30.9662 12.8099 31.5141 12.6098 31.9469 12.2449C32.3798 11.88 32.6697 11.3738 32.7654 10.8158C32.8612 10.2578 32.7566 9.68391 32.4701 9.19558C32.1836 8.70726 31.7338 8.33592 31.2 8.1472V1.6H35.2V8.8C35.2 9.01217 35.2843 9.21566 35.4343 9.36569C35.5843 9.51571 35.7878 9.6 36 9.6C36.2122 9.6 36.4157 9.51571 36.5657 9.36569C36.7157 9.21566 36.8 9.01217 36.8 8.8V1.6H44.8C45.2243 1.6 45.6313 1.76857 45.9314 2.06863C46.2314 2.36869 46.4 2.77565 46.4 3.2V11.2H43.2C42.9878 11.2 42.7843 11.1157 42.6343 10.9657C42.4843 10.8157 42.4 10.6122 42.4 10.4V9.4528C42.9338 9.26408 43.3836 8.89275 43.6701 8.40442C43.9566 7.91609 44.0612 7.34221 43.9654 6.78421C43.8697 6.22622 43.5798 5.72003 43.1469 5.35512C42.7141 4.9902 42.1661 4.79006 41.6 4.79006C41.0339 4.79006 40.4859 4.9902 40.0531 5.35512C39.6202 5.72003 39.3303 6.22622 39.2346 6.78421C39.1388 7.34221 39.2434 7.91609 39.5299 8.40442C39.8164 8.89275 40.2662 9.26408 40.8 9.4528V10.4C40.8 11.0365 41.0529 11.647 41.5029 12.0971C41.953 12.5471 42.5635 12.8 43.2 12.8H46.4V16H38.2528C38.0641 15.4662 37.6927 15.0164 37.2044 14.7299C36.7161 14.4434 36.1422 14.3388 35.5842 14.4346C35.0262 14.5303 34.52 14.8202 34.1551 15.2531C33.7902 15.6859 33.5901 16.2339 33.5901 16.8C33.5901 17.3661 33.7902 17.9141 34.1551 18.3469C34.52 18.7798 35.0262 19.0697 35.5842 19.1654C36.1422 19.2612 36.7161 19.1566 37.2044 18.8701C37.6927 18.5836 38.0641 18.1338 38.2528 17.6H46.4V20.8H34.2528C34.0641 20.2662 33.6927 19.8164 33.2044 19.5299C32.7161 19.2434 32.1422 19.1388 31.5842 19.2346C31.0262 19.3303 30.52 19.6202 30.1551 20.0531C29.7902 20.4859 29.5901 21.0338 29.5901 21.6C29.5901 22.1661 29.7902 22.7141 30.1551 23.1469C30.52 23.5798 31.0262 23.8697 31.5842 23.9654C32.1422 24.0612 32.7161 23.9566 33.2044 23.6701C33.6927 23.3836 34.0641 22.9338 34.2528 22.4H46.4V25.6H39.2C38.9878 25.6 38.7843 25.6843 38.6343 25.8343C38.4843 25.9843 38.4 26.1878 38.4 26.4C38.4 26.6122 38.4843 26.8157 38.6343 26.9657C38.7843 27.1157 38.9878 27.2 39.2 27.2H46.4V30.4H38.2528C38.0641 29.8662 37.6927 29.4164 37.2044 29.1299C36.7161 28.8434 36.1422 28.7388 35.5842 28.8346C35.0262 28.9303 34.52 29.2202 34.1551 29.6531C33.7902 30.0859 33.5901 30.6339 33.5901 31.2C33.5901 31.7661 33.7902 32.3141 34.1551 32.7469C34.52 33.1798 35.0262 33.4697 35.5842 33.5654C36.1422 33.6612 36.7161 33.5566 37.2044 33.2701C37.6927 32.9836 38.0641 32.5338 38.2528 32H46.4V35.2H43.2C42.5635 35.2 41.953 35.4529 41.5029 35.9029C41.0529 36.353 40.8 36.9635 40.8 37.6V38.5472C40.2662 38.7359 39.8164 39.1073 39.5299 39.5956C39.2434 40.0839 39.1388 40.6578 39.2346 41.2158C39.3303 41.7738 39.6202 42.28 40.0531 42.6449C40.4859 43.0098 41.0339 43.2099 41.6 43.2099C42.1661 43.2099 42.7141 43.0098 43.1469 42.6449C43.5798 42.28 43.8697 41.7738 43.9654 41.2158C44.0612 40.6578 43.9566 40.0839 43.6701 39.5956C43.3836 39.1073 42.9338 38.7359 42.4 38.5472V37.6C42.4 37.3878 42.4843 37.1843 42.6343 37.0343C42.7843 36.8843 42.9878 36.8 43.2 36.8H46.4V44.8C46.4 45.2243 46.2314 45.6313 45.9314 45.9314C45.6313 46.2314 45.2243 46.4 44.8 46.4H36.8V39.2C36.8 38.9878 36.7157 38.7843 36.5657 38.6343C36.4157 38.4843 36.2122 38.4 36 38.4C35.7878 38.4 35.5843 38.4843 35.4343 38.6343C35.2843 38.7843 35.2 38.9878 35.2 39.2V46.4H31.2V39.8528C31.7338 39.6641 32.1836 39.2927 32.4701 38.8044C32.7566 38.3161 32.8612 37.7422 32.7654 37.1842C32.6697 36.6262 32.3798 36.12 31.9469 35.7551C31.5141 35.3902 30.9662 35.1901 30.4 35.1901C29.8339 35.1901 29.2859 35.3902 28.8531 35.7551C28.4202 36.12 28.1303 36.6262 28.0346 37.1842C27.9388 37.7422 28.0434 38.3161 28.3299 38.8044C28.6164 39.2927 29.0662 39.6641 29.6 39.8528V46.4H24.8V34.2528C25.3338 34.0641 25.7836 33.6927 26.0701 33.2044C26.3566 32.7161 26.4612 32.1422 26.3654 31.5842C26.2697 31.0262 25.9798 30.52 25.5469 30.1551C25.1141 29.7902 24.5662 29.5901 24 29.5901C23.4339 29.5901 22.8859 29.7902 22.4531 30.1551C22.0202 30.52 21.7303 31.0262 21.6346 31.5842C21.5388 32.1422 21.6434 32.7161 21.9299 33.2044C22.2164 33.6927 22.6662 34.0641 23.2 34.2528V46.4H18.4V39.8528C18.9338 39.6641 19.3836 39.2927 19.6701 38.8044C19.9566 38.3161 20.0612 37.7422 19.9654 37.1842C19.8697 36.6262 19.5798 36.12 19.1469 35.7551C18.7141 35.3902 18.1661 35.1901 17.6 35.1901C17.0338 35.1901 16.4859 35.3902 16.0531 35.7551C15.6202 36.12 15.3303 36.6262 15.2346 37.1842C15.1388 37.7422 15.2434 38.3161 15.5299 38.8044C15.8164 39.2927 16.2662 39.6641 16.8 39.8528V46.4H12.8V39.2C12.8 38.9878 12.7157 38.7843 12.5657 38.6343C12.4157 38.4843 12.2122 38.4 12 38.4C11.7878 38.4 11.5843 38.4843 11.4343 38.6343C11.2843 38.7843 11.2 38.9878 11.2 39.2V46.4H3.2C2.77565 46.4 2.36869 46.2314 2.06863 45.9314C1.76857 45.6313 1.6 45.2243 1.6 44.8V36.8H4.8C5.01217 36.8 5.21566 36.8843 5.36569 37.0343C5.51571 37.1843 5.6 37.3878 5.6 37.6V38.5472C5.06623 38.7359 4.61636 39.1073 4.32989 39.5956C4.04343 40.0839 3.93883 40.6578 4.03456 41.2158C4.1303 41.7738 4.42022 42.28 4.85307 42.6449C5.28593 43.0098 5.83385 43.2099 6.4 43.2099C6.96615 43.2099 7.51407 43.0098 7.94693 42.6449C8.37978 42.28 8.6697 41.7738 8.76544 41.2158C8.86117 40.6578 8.75657 40.0839 8.47011 39.5956C8.18364 39.1073 7.73377 38.7359 7.2 38.5472V37.6C7.2 36.9635 6.94714 36.353 6.49706 35.9029C6.04697 35.4529 5.43652 35.2 4.8 35.2H1.6V32H9.7472C9.93592 32.5338 10.3073 32.9836 10.7956 33.2701C11.2839 33.5566 11.8578 33.6612 12.4158 33.5654C12.9738 33.4697 13.48 33.1798 13.8449 32.7469C14.2098 32.3141 14.4099 31.7661 14.4099 31.2C14.4099 30.6339 14.2098 30.0859 13.8449 29.6531C13.48 29.2202 12.9738 28.9303 12.4158 28.8346C11.8578 28.7388 11.2839 28.8434 10.7956 29.1299C10.3073 29.4164 9.93592 29.8662 9.7472 30.4H1.6V27.2H8.8C9.01217 27.2 9.21566 27.1157 9.36569 26.9657C9.51571 26.8157 9.6 26.6122 9.6 26.4C9.6 26.1878 9.51571 25.9843 9.36569 25.8343C9.21566 25.6843 9.01217 25.6 8.8 25.6H1.6V22.4H13.7472C13.9359 22.9338 14.3073 23.3836 14.7956 23.6701C15.2839 23.9566 15.8578 24.0612 16.4158 23.9654C16.9738 23.8697 17.48 23.5798 17.8449 23.1469C18.2098 22.7141 18.4099 22.1661 18.4099 21.6C18.4099 21.0338 18.2098 20.4859 17.8449 20.0531C17.48 19.6202 16.9738 19.3303 16.4158 19.2346C15.8578 19.1388 15.2839 19.2434 14.7956 19.5299C14.3073 19.8164 13.9359 20.2662 13.7472 20.8H1.6V17.6H9.7472C9.93592 18.1338 10.3073 18.5836 10.7956 18.8701C11.2839 19.1566 11.8578 19.2612 12.4158 19.1654C12.9738 19.0697 13.48 18.7798 13.8449 18.3469C14.2098 17.9141 14.4099 17.3661 14.4099 16.8C14.4099 16.2339 14.2098 15.6859 13.8449 15.2531C13.48 14.8202 12.9738 14.5303 12.4158 14.4346C11.8578 14.3388 11.2839 14.4434 10.7956 14.7299C10.3073 15.0164 9.93592 15.4662 9.7472 16H1.6V12.8H4.8C5.43652 12.8 6.04697 12.5471 6.49706 12.0971C6.94714 11.647 7.2 11.0365 7.2 10.4V9.4528C7.73377 9.26408 8.18364 8.89275 8.47011 8.40442C8.75657 7.91609 8.86117 7.34221 8.76544 6.78421C8.6697 6.22622 8.37978 5.72003 7.94693 5.35512C7.51407 4.9902 6.96615 4.79006 6.4 4.79006C5.83385 4.79006 5.28593 4.9902 4.85307 5.35512C4.42022 5.72003 4.1303 6.22622 4.03456 6.78421C3.93883 7.34221 4.04343 7.91609 4.32989 8.40442C4.61636 8.89275 5.06623 9.26408 5.6 9.4528V10.4C5.6 10.6122 5.51571 10.8157 5.36569 10.9657C5.21566 11.1157 5.01217 11.2 4.8 11.2H1.6V3.2C1.6 2.77565 1.76857 2.36869 2.06863 2.06863C2.36869 1.76857 2.77565 1.6 3.2 1.6ZM40.8 7.2C40.8 7.04178 40.8469 6.8871 40.9348 6.75554C41.0227 6.62398 41.1477 6.52145 41.2939 6.4609C41.44 6.40035 41.6009 6.3845 41.7561 6.41537C41.9113 6.44624 42.0538 6.52243 42.1657 6.63432C42.2776 6.7462 42.3538 6.88874 42.3846 7.04393C42.4155 7.19911 42.3997 7.35997 42.3391 7.50615C42.2786 7.65233 42.176 7.77727 42.0445 7.86518C41.9129 7.95308 41.7582 8 41.6 8C41.3878 8 41.1843 7.91571 41.0343 7.76569C40.8843 7.61566 40.8 7.41217 40.8 7.2ZM36.8 16.8C36.8 16.9582 36.7531 17.1129 36.6652 17.2445C36.5773 17.376 36.4523 17.4786 36.3061 17.5391C36.16 17.5997 35.9991 17.6155 35.8439 17.5846C35.6887 17.5538 35.5462 17.4776 35.4343 17.3657C35.3224 17.2538 35.2462 17.1113 35.2154 16.9561C35.1845 16.8009 35.2003 16.64 35.2609 16.4939C35.3214 16.3477 35.424 16.2227 35.5555 16.1348C35.6871 16.0469 35.8418 16 36 16C36.2122 16 36.4157 16.0843 36.5657 16.2343C36.7157 16.3843 36.8 16.5878 36.8 16.8ZM32.8 21.6C32.8 21.7582 32.7531 21.9129 32.6652 22.0445C32.5773 22.176 32.4523 22.2786 32.3061 22.3391C32.16 22.3997 31.9991 22.4155 31.8439 22.3846C31.6887 22.3538 31.5462 22.2776 31.4343 22.1657C31.3224 22.0538 31.2462 21.9113 31.2154 21.7561C31.1845 21.6009 31.2003 21.44 31.2609 21.2939C31.3214 21.1477 31.424 21.0227 31.5555 20.9348C31.6871 20.8469 31.8418 20.8 32 20.8C32.2122 20.8 32.4157 20.8843 32.5657 21.0343C32.7157 21.1843 32.8 21.3878 32.8 21.6ZM36.8 31.2C36.8 31.3582 36.7531 31.5129 36.6652 31.6445C36.5773 31.776 36.4523 31.8786 36.3061 31.9391C36.16 31.9997 35.9991 32.0155 35.8439 31.9846C35.6887 31.9538 35.5462 31.8776 35.4343 31.7657C35.3224 31.6538 35.2462 31.5113 35.2154 31.3561C35.1845 31.2009 35.2003 31.04 35.2609 30.8939C35.3214 30.7477 35.424 30.6227 35.5555 30.5348C35.6871 30.4469 35.8418 30.4 36 30.4C36.2122 30.4 36.4157 30.4843 36.5657 30.6343C36.7157 30.7843 36.8 30.9878 36.8 31.2ZM42.4 40.8C42.4 40.9582 42.3531 41.1129 42.2652 41.2445C42.1773 41.376 42.0523 41.4786 41.9061 41.5391C41.76 41.5997 41.5991 41.6155 41.4439 41.5846C41.2887 41.5538 41.1462 41.4776 41.0343 41.3657C40.9224 41.2538 40.8462 41.1113 40.8154 40.9561C40.7845 40.8009 40.8004 40.64 40.8609 40.4939C40.9214 40.3477 41.024 40.2227 41.1555 40.1348C41.2871 40.0469 41.4418 40 41.6 40C41.8122 40 42.0157 40.0843 42.1657 40.2343C42.3157 40.3843 42.4 40.5878 42.4 40.8ZM7.2 40.8C7.2 40.9582 7.15308 41.1129 7.06518 41.2445C6.97727 41.376 6.85233 41.4786 6.70615 41.5391C6.55997 41.5997 6.39911 41.6155 6.24393 41.5846C6.08874 41.5538 5.9462 41.4776 5.83431 41.3657C5.72243 41.2538 5.64624 41.1113 5.61537 40.9561C5.5845 40.8009 5.60035 40.64 5.6609 40.4939C5.72145 40.3477 5.82398 40.2227 5.95554 40.1348C6.0871 40.0469 6.24178 40 6.4 40C6.61217 40 6.81566 40.0843 6.96569 40.2343C7.11571 40.3843 7.2 40.5878 7.2 40.8ZM11.2 31.2C11.2 31.0418 11.2469 30.8871 11.3348 30.7555C11.4227 30.624 11.5477 30.5214 11.6939 30.4609C11.84 30.4003 12.0009 30.3845 12.1561 30.4154C12.3113 30.4462 12.4538 30.5224 12.5657 30.6343C12.6776 30.7462 12.7538 30.8887 12.7846 31.0439C12.8155 31.1991 12.7997 31.36 12.7391 31.5061C12.6786 31.6523 12.576 31.7773 12.4445 31.8652C12.3129 31.9531 12.1582 32 12 32C11.7878 32 11.5843 31.9157 11.4343 31.7657C11.2843 31.6157 11.2 31.4122 11.2 31.2ZM15.2 21.6C15.2 21.4418 15.2469 21.2871 15.3348 21.1555C15.4227 21.024 15.5477 20.9214 15.6939 20.8609C15.84 20.8003 16.0009 20.7845 16.1561 20.8154C16.3113 20.8462 16.4538 20.9224 16.5657 21.0343C16.6776 21.1462 16.7538 21.2887 16.7846 21.4439C16.8155 21.5991 16.7997 21.76 16.7391 21.9061C16.6786 22.0523 16.576 22.1773 16.4445 22.2652C16.3129 22.3531 16.1582 22.4 16 22.4C15.7878 22.4 15.5843 22.3157 15.4343 22.1657C15.2843 22.0157 15.2 21.8122 15.2 21.6ZM11.2 16.8C11.2 16.6418 11.2469 16.4871 11.3348 16.3555C11.4227 16.224 11.5477 16.1214 11.6939 16.0609C11.84 16.0003 12.0009 15.9845 12.1561 16.0154C12.3113 16.0462 12.4538 16.1224 12.5657 16.2343C12.6776 16.3462 12.7538 16.4887 12.7846 16.6439C12.8155 16.7991 12.7997 16.96 12.7391 17.1061C12.6786 17.2523 12.576 17.3773 12.4445 17.4652C12.3129 17.5531 12.1582 17.6 12 17.6C11.7878 17.6 11.5843 17.5157 11.4343 17.3657C11.2843 17.2157 11.2 17.0122 11.2 16.8ZM5.6 7.2C5.6 7.04178 5.64692 6.8871 5.73482 6.75554C5.82273 6.62398 5.94767 6.52145 6.09385 6.4609C6.24003 6.40035 6.40089 6.3845 6.55607 6.41537C6.71126 6.44624 6.8538 6.52243 6.96569 6.63432C7.07757 6.7462 7.15376 6.88874 7.18463 7.04393C7.2155 7.19911 7.19965 7.35997 7.1391 7.50615C7.07855 7.65233 6.97602 7.77727 6.84446 7.86518C6.7129 7.95308 6.55823 8 6.4 8C6.18783 8 5.98434 7.91571 5.83431 7.76569C5.68429 7.61566 5.6 7.41217 5.6 7.2Z" fill="#0366FF"/>
<path d="M24 28C24.7911 28 25.5645 27.7654 26.2223 27.3259C26.8801 26.8864 27.3928 26.2616 27.6955 25.5307C27.9983 24.7998 28.0775 23.9956 27.9231 23.2196C27.7688 22.4437 27.3878 21.731 26.8284 21.1716C26.269 20.6122 25.5563 20.2312 24.7804 20.0769C24.0044 19.9225 23.2002 20.0017 22.4693 20.3045C21.7384 20.6072 21.1136 21.1199 20.6741 21.7777C20.2346 22.4355 20 23.2089 20 24C20.0013 25.0605 20.4231 26.0772 21.173 26.827C21.9228 27.5769 22.9395 27.9987 24 28ZM24 21.6C24.4747 21.6 24.9387 21.7408 25.3334 22.0045C25.728 22.2682 26.0357 22.643 26.2173 23.0816C26.399 23.5201 26.4465 24.0027 26.3539 24.4682C26.2613 24.9338 26.0327 25.3614 25.6971 25.6971C25.3614 26.0327 24.9338 26.2613 24.4682 26.3539C24.0027 26.4465 23.5201 26.399 23.0816 26.2173C22.643 26.0357 22.2682 25.728 22.0045 25.3334C21.7408 24.9387 21.6 24.4747 21.6 24C21.6 23.3635 21.8529 22.753 22.3029 22.3029C22.753 21.8529 23.3635 21.6 24 21.6Z" fill="#0366FF"/>
</g>
<defs>
<clipPath id="clip0_143_2535">
<rect width="48" height="48" fill="white"/>
</clipPath>
</defs>
</svg>
