<svg width="48" height="48" viewBox="0 0 48 48" fill="none" xmlns="http://www.w3.org/2000/svg">
<g clip-path="url(#clip0_62_338)">
<path d="M17.0044 24.0086C16.5864 24.0086 16.1666 23.9091 15.7849 23.7071C14.9698 23.2768 14.4393 22.4361 14.4009 21.5143L14.4002 10.5213C14.4397 9.56654 14.9702 8.72685 15.7849 8.29592C16.6001 7.86629 17.5934 7.90026 18.3755 8.38694L27.5619 13.8614C28.3178 14.2927 28.7958 15.1148 28.7961 16.0003C28.7965 16.8827 28.3228 17.7034 27.5584 18.1441L18.3638 23.6231C17.954 23.8788 17.4806 24.0086 17.0044 24.0086ZM16.9974 9.59534C16.8368 9.59534 16.6774 9.63393 16.5325 9.71055C16.2184 9.87617 16.0142 10.2 15.9993 10.5547L16 21.4809C16.0141 21.8027 16.2184 22.1265 16.5329 22.2925C16.8465 22.4585 17.2285 22.4452 17.5308 22.2569L26.7445 16.7664C26.7484 16.7636 26.7527 16.7612 26.7567 16.759C27.0281 16.6039 27.1965 16.3133 27.1961 16.0009C27.1958 15.6883 27.0274 15.3977 26.756 15.2432L17.5435 9.7532C17.3739 9.64815 17.1848 9.59534 16.9974 9.59534Z" fill="#0366FF"/>
<path d="M23.4 30.3991H3.20055C1.43623 30.3991 0.00073244 28.9636 0.00073244 27.1993V3.19982C0.00054781 1.4355 1.43604 0 3.20055 0H38.3994C40.1638 0 41.5993 1.4355 41.5993 3.19982V19.8392H39.9993V3.19982C39.9993 2.31747 39.2818 1.59982 38.3993 1.59982H3.20055C2.3182 1.59982 1.60055 2.31729 1.60055 3.19982V27.1991C1.60055 28.0814 2.31802 28.7991 3.20055 28.7991H23.4V30.3991Z" fill="#0366FF"/>
<path d="M35.1994 43.1994C34.6686 43.1994 34.1375 43.0276 33.694 42.6838L32.2144 41.5385L30.3612 41.7916C29.252 41.9377 28.1758 41.3229 27.7524 40.2823L27.0469 38.5519L25.3153 37.8457C24.2762 37.4224 23.656 36.3501 23.8071 35.2377L24.0602 33.3842L22.9142 31.9042C22.2279 31.0183 22.2279 29.78 22.9146 28.8938L24.0602 27.4142L23.8071 25.561C23.6551 24.4486 24.2755 23.3756 25.3157 22.9522L27.0469 22.2468L27.7524 20.5151C28.1758 19.4753 29.2457 18.8542 30.3609 19.0069L32.2144 19.26L33.6943 18.114C34.5798 17.4285 35.8178 17.4274 36.7047 18.1144L38.1843 19.26L40.0375 19.0069C41.148 18.856 42.2229 19.4749 42.6463 20.5155L43.3518 22.2468L45.0834 22.9522C46.1225 23.3759 46.7427 24.4483 46.5916 25.5607L46.3385 27.4142L47.4845 28.8942C48.1708 29.78 48.1708 31.0179 47.4845 31.9042L46.3385 33.3842L46.5916 35.2373C46.7436 36.3497 46.1232 37.4228 45.083 37.8457L43.3518 38.5519L42.6459 40.2832C42.2229 41.3231 41.1519 41.9379 40.0375 41.7918L38.1843 41.5387L36.7044 42.6847C36.2616 43.0275 35.7308 43.1994 35.1994 43.1994ZM32.4387 39.9003C32.6148 39.9003 32.7874 39.9588 32.9285 40.0676L34.6742 41.4191C34.9844 41.6604 35.4168 41.6596 35.7245 41.4198L37.4706 40.0676C37.6404 39.937 37.8577 39.8792 38.0686 39.9075L40.254 40.2059C40.6431 40.2605 41.0169 40.0417 41.1646 39.6793L41.9979 37.6356C42.0791 37.4368 42.2373 37.2786 42.4366 37.1969L44.4799 36.3641C44.8432 36.2164 45.0596 35.8418 45.0068 35.4535L44.7084 33.268C44.6791 33.0555 44.7369 32.8399 44.8681 32.67L46.2192 30.9243C46.2196 30.9243 46.2196 30.9243 46.2196 30.924C46.4594 30.6151 46.4594 30.1831 46.2196 29.874L44.8681 28.1279C44.7369 27.9581 44.6791 27.7424 44.7084 27.5299L45.0068 25.3445C45.0596 24.9562 44.8426 24.5816 44.4799 24.4339L42.4366 23.601C42.2373 23.5194 42.0791 23.3612 41.9975 23.162L41.1646 21.1187C41.0169 20.7562 40.644 20.5421 40.254 20.5917L38.0686 20.8901C37.8581 20.922 37.6404 20.8617 37.4706 20.7304L35.7249 19.3793C35.4155 19.1387 34.9831 19.1398 34.6745 19.3789L32.9285 20.7304C32.759 20.8617 32.5434 20.9215 32.3305 20.8901L30.145 20.5917C29.7532 20.5413 29.3821 20.7553 29.2344 21.1187L28.4016 23.162C28.32 23.3612 28.1617 23.5194 27.9625 23.601L25.9192 24.4339C25.5559 24.5816 25.3395 24.9562 25.3923 25.3445L25.6907 27.5299C25.72 27.7424 25.6622 27.9581 25.5309 28.1279L24.1798 29.8736C23.9396 30.1831 23.9396 30.6151 24.1795 30.924L25.5309 32.67C25.6622 32.8399 25.72 33.0555 25.6907 33.268L25.3923 35.4535C25.3395 35.8418 25.5564 36.2164 25.9192 36.3641L27.9625 37.1969C28.1617 37.2786 28.32 37.4368 28.4012 37.6356L29.2341 39.6786C29.3821 40.0426 29.756 40.259 30.145 40.2059L32.3305 39.9075C32.3663 39.9027 32.4027 39.9003 32.4387 39.9003Z" fill="#0366FF"/>
<path d="M35.1995 38.3987C30.7883 38.3987 27.1996 34.81 27.1996 30.3989C27.1996 25.9877 30.7883 22.399 35.1995 22.399C39.6106 22.399 43.1993 25.9877 43.1993 30.3989C43.1993 34.81 39.6106 38.3987 35.1995 38.3987ZM35.1995 23.9992C31.6706 23.9992 28.7996 26.8702 28.7996 30.399C28.7996 33.9279 31.6706 36.7989 35.1995 36.7989C38.7283 36.7989 41.5993 33.9279 41.5993 30.399C41.5993 26.8702 38.7283 23.9992 35.1995 23.9992Z" fill="#0366FF"/>
<path d="M36.9416 34.3961C36.7498 34.3961 36.5579 34.3492 36.3849 34.2543L35.2002 33.5969L34.0189 34.2527C33.6299 34.4648 33.1482 34.4382 32.7885 34.1847C32.43 33.9312 32.2437 33.4866 32.3135 33.0531L32.5537 31.5759L31.5288 30.5213C31.2256 30.2097 31.1226 29.7588 31.26 29.346C31.3975 28.9324 31.7502 28.6335 32.1798 28.5655L33.5505 28.3562L34.152 27.0674C34.3457 26.6609 34.7563 26.4019 35.2003 26.4019C35.6446 26.4019 36.055 26.6609 36.2461 27.0619C36.2468 27.0639 36.2476 27.0654 36.2485 27.0674L36.8507 28.3562L38.2166 28.5652C38.6505 28.6335 39.0033 28.9324 39.1409 29.3452C39.2784 29.7588 39.1752 30.2097 38.8721 30.5213L37.8463 31.5759L38.0861 33.052C38.1564 33.4868 37.9702 33.9312 37.6114 34.1847C37.4135 34.3251 37.1779 34.3961 36.9416 34.3961ZM34.9854 33.4778C34.9858 33.4778 34.9865 33.4782 34.9869 33.4785L34.9854 33.4778ZM35.4167 33.4767L35.4153 33.4778C35.4154 33.4774 35.4158 33.477 35.4167 33.4767ZM33.2702 30.0175L33.8549 30.6193C34.1096 30.8802 34.2272 31.253 34.1683 31.6147L34.039 32.4119L34.6387 32.0787C34.9899 31.883 35.411 31.883 35.7636 32.0798L36.3617 32.4117L36.2324 31.6145C36.1735 31.2528 36.291 30.8802 36.5468 30.6177L37.1308 30.0173L36.3757 29.9017C35.9895 29.8408 35.6639 29.5954 35.5007 29.2459L35.2007 28.6037L34.9007 29.2466C34.7362 29.5967 34.4112 29.8408 34.03 29.9013L33.2702 30.0175ZM32.7073 31.7341C32.7077 31.7345 32.708 31.7349 32.7084 31.7356L32.7073 31.7341ZM37.694 31.7334L37.6928 31.7345C37.6932 31.7341 37.6936 31.7338 37.694 31.7334Z" fill="#0366FF"/>
<path d="M32.8011 48C32.5578 48 32.3128 47.9437 32.0848 47.8297C31.5383 47.5563 31.1996 47.0079 31.1996 46.3985V40.7588H32.7996V46.3985L34.7194 44.9587C35.0038 44.7448 35.3952 44.7448 35.6795 44.9587L37.5993 46.3985V40.7588H39.1993V46.3985C39.1993 47.0078 38.8607 47.5563 38.3156 47.829C37.768 48.1024 37.1266 48.0439 36.6392 47.6782L35.1995 46.5984L33.7597 47.6782C33.4761 47.8914 33.1403 48 32.8011 48Z" fill="#0366FF"/>
<path d="M21.6 4.79983H8.00038C7.55856 4.79983 7.20038 4.44165 7.20038 3.99983C7.20038 3.55801 7.55856 3.19983 8.00038 3.19983H21.6C22.0418 3.19983 22.4 3.55801 22.4 3.99983C22.4 4.44165 22.0416 4.79983 21.6 4.79983Z" fill="#0366FF"/>
<path d="M4.80056 4.79983H4.00056C3.55874 4.79983 3.20056 4.44165 3.20056 3.99983C3.20056 3.55801 3.55874 3.19983 4.00056 3.19983H4.80056C5.24238 3.19983 5.60056 3.55801 5.60056 3.99983C5.60056 4.44165 5.2422 4.79983 4.80056 4.79983Z" fill="#0366FF"/>
<path d="M4.00056 15.9994C3.55874 15.9994 3.20056 15.6412 3.20056 15.1994V7.19978C3.20056 6.75796 3.55874 6.39978 4.00056 6.39978C4.44238 6.39978 4.80056 6.75796 4.80056 7.19978V15.1996C4.80056 15.6412 4.44238 15.9994 4.00056 15.9994Z" fill="#0366FF"/>
</g>
<defs>
<clipPath id="clip0_62_338">
<rect width="48" height="48" fill="white"/>
</clipPath>
</defs>
</svg>
