<svg width="48" height="48" viewBox="0 0 48 48" fill="none" xmlns="http://www.w3.org/2000/svg">
<path d="M8.44395 38.32L22.688 47.6096C23.0781 47.8643 23.534 48 24 48C24.4659 48 24.9218 47.8643 25.3119 47.6096L39.5552 38.32C40.6765 37.5911 41.5975 36.5931 42.2342 35.4169C42.8708 34.2407 43.2028 32.9238 43.2 31.5864V8.05359C43.2026 7.36674 42.9831 6.69745 42.5742 6.14556C42.1653 5.59366 41.589 5.18874 40.9312 4.99119L25.0504 0.159993C24.366 -0.0495875 23.6347 -0.0495875 22.9503 0.159993L7.06875 4.99119C6.41092 5.18874 5.83458 5.59366 5.4257 6.14556C5.01682 6.69745 4.79733 7.36674 4.79995 8.05359V31.5864C4.79704 32.9237 5.12897 34.2405 5.76547 35.4167C6.40197 36.5929 7.32279 37.591 8.44395 38.32ZM6.39995 8.05359C6.39857 7.71015 6.5083 7.37548 6.71275 7.09952C6.91719 6.82356 7.2054 6.62111 7.53435 6.52239L23.4167 1.68639C23.7972 1.57068 24.2035 1.57068 24.584 1.68639L40.4656 6.52239C40.7945 6.62111 41.0827 6.82356 41.2872 7.09952C41.4916 7.37548 41.6013 7.71015 41.6 8.05359V31.5864C41.6022 32.657 41.3363 33.7111 40.8265 34.6525C40.3167 35.594 39.5793 36.3927 38.6816 36.976L24.4368 46.2696C24.3068 46.3543 24.1551 46.3994 24 46.3994C23.8448 46.3994 23.6931 46.3543 23.5632 46.2696L9.31755 36.976C8.42004 36.3925 7.68286 35.5937 7.17324 34.6523C6.66362 33.7109 6.39778 32.6569 6.39995 31.5864V8.05359Z" fill="#0366FF"/>
<path d="M10.1927 35.6375L23.1255 44.0743C23.3859 44.2435 23.6898 44.3336 24.0003 44.3336C24.3108 44.3336 24.6147 44.2435 24.8751 44.0743L37.8071 35.6359C38.4818 35.1978 39.0359 34.5977 39.419 33.8903C39.802 33.1829 40.0018 32.3908 39.9999 31.5863V9.23914C40.0014 8.89567 39.8917 8.56093 39.6873 8.28495C39.4828 8.00896 39.1945 7.80654 38.8655 7.70794L24.4655 3.32314C24.1619 3.23115 23.8379 3.23115 23.5343 3.32314L9.13429 7.70794C8.80528 7.80654 8.517 8.00896 8.31253 8.28495C8.10806 8.56093 7.99839 8.89567 7.99989 9.23914V31.5863C7.99842 32.3909 8.19829 33.1831 8.58129 33.8907C8.96429 34.5983 9.51824 35.1988 10.1927 35.6375ZM18.3999 27.9999C18.3999 27.8417 18.4468 27.687 18.5347 27.5555C18.6226 27.4239 18.7476 27.3214 18.8937 27.2608C19.0399 27.2003 19.2008 27.1844 19.356 27.2153C19.5112 27.2462 19.6537 27.3224 19.7656 27.4343C19.8775 27.5461 19.9537 27.6887 19.9845 27.8439C20.0154 27.9991 19.9995 28.1599 19.939 28.3061C19.8784 28.4523 19.7759 28.5772 19.6444 28.6651C19.5128 28.753 19.3581 28.7999 19.1999 28.7999C18.9877 28.7999 18.7842 28.7157 18.6342 28.5656C18.4842 28.4156 18.3999 28.2121 18.3999 27.9999ZM23.1999 22.3999C23.1999 22.2417 23.2468 22.087 23.3347 21.9555C23.4226 21.8239 23.5476 21.7214 23.6937 21.6608C23.8399 21.6003 24.0008 21.5844 24.156 21.6153C24.3112 21.6462 24.4537 21.7224 24.5656 21.8343C24.6775 21.9461 24.7537 22.0887 24.7845 22.2439C24.8154 22.3991 24.7995 22.5599 24.739 22.7061C24.6784 22.8523 24.5759 22.9772 24.4443 23.0651C24.3128 23.153 24.1581 23.1999 23.9999 23.1999C23.7877 23.1999 23.5842 23.1157 23.4342 22.9656C23.2842 22.8156 23.1999 22.6121 23.1999 22.3999ZM27.9999 27.9999C27.9999 27.8417 28.0468 27.687 28.1347 27.5555C28.2226 27.4239 28.3476 27.3214 28.4937 27.2608C28.6399 27.2003 28.8008 27.1844 28.956 27.2153C29.1112 27.2462 29.2537 27.3224 29.3656 27.4343C29.4775 27.5461 29.5537 27.6887 29.5845 27.8439C29.6154 27.9991 29.5995 28.1599 29.539 28.3061C29.4784 28.4523 29.3759 28.5772 29.2443 28.6651C29.1128 28.753 28.9581 28.7999 28.7999 28.7999C28.5877 28.7999 28.3842 28.7157 28.2342 28.5656C28.0842 28.4156 27.9999 28.2121 27.9999 27.9999ZM24.7999 14.3999C24.7999 14.5582 24.753 14.7128 24.6651 14.8444C24.5772 14.976 24.4522 15.0785 24.306 15.139C24.1599 15.1996 23.999 15.2154 23.8438 15.1846C23.6886 15.1537 23.5461 15.0775 23.4342 14.9656C23.3223 14.8537 23.2461 14.7112 23.2153 14.556C23.1844 14.4008 23.2002 14.24 23.2608 14.0938C23.3213 13.9476 23.4239 13.8227 23.5554 13.7348C23.687 13.6469 23.8417 13.5999 23.9999 13.5999C24.2121 13.5999 24.4156 13.6842 24.5656 13.8343C24.7156 13.9843 24.7999 14.1878 24.7999 14.3999ZM12.7999 8.26474V17.5999C12.7999 18.2365 13.0527 18.8469 13.5028 19.297C13.9529 19.7471 14.5634 19.9999 15.1999 19.9999H16.1471C16.3358 20.5337 16.7071 20.9836 17.1955 21.27C17.6838 21.5565 18.2577 21.6611 18.8157 21.5654C19.3737 21.4696 19.8799 21.1797 20.2448 20.7469C20.6097 20.314 20.8098 19.7661 20.8098 19.1999C20.8098 18.6338 20.6097 18.0859 20.2448 17.653C19.8799 17.2202 19.3737 16.9302 18.8157 16.8345C18.2577 16.7388 17.6838 16.8434 17.1955 17.1298C16.7071 17.4163 16.3358 17.8662 16.1471 18.3999H15.1999C14.9877 18.3999 14.7842 18.3157 14.6342 18.1656C14.4842 18.0156 14.3999 17.8121 14.3999 17.5999V7.77754L18.3999 6.55994V13.5999C18.3999 13.8121 18.4842 14.0156 18.6342 14.1656C18.7842 14.3157 18.9877 14.3999 19.1999 14.3999C19.4121 14.3999 19.6156 14.3157 19.7656 14.1656C19.9156 14.0156 19.9999 13.8121 19.9999 13.5999V6.07274L23.1999 5.09834V12.1471C22.6661 12.3359 22.2163 12.7072 21.9298 13.1955C21.6433 13.6839 21.5387 14.2577 21.6345 14.8157C21.7302 15.3737 22.0201 15.8799 22.453 16.2448C22.8858 16.6097 23.4337 16.8099 23.9999 16.8099C24.566 16.8099 25.114 16.6097 25.5468 16.2448C25.9797 15.8799 26.2696 15.3737 26.3653 14.8157C26.4611 14.2577 26.3565 13.6839 26.07 13.1955C25.7835 12.7072 25.3337 12.3359 24.7999 12.1471V5.09834L27.9999 6.07274V13.5999C27.9999 13.8121 28.0842 14.0156 28.2342 14.1656C28.3842 14.3157 28.5877 14.3999 28.7999 14.3999C29.0121 14.3999 29.2156 14.3157 29.3656 14.1656C29.5156 14.0156 29.5999 13.8121 29.5999 13.5999V6.55994L33.5999 7.77754V17.5999C33.5999 17.8121 33.5156 18.0156 33.3656 18.1656C33.2156 18.3157 33.0121 18.3999 32.7999 18.3999H31.8527C31.664 17.8662 31.2926 17.4163 30.8043 17.1298C30.316 16.8434 29.7421 16.7388 29.1841 16.8345C28.6261 16.9302 28.1199 17.2202 27.755 17.653C27.3901 18.0859 27.19 18.6338 27.19 19.1999C27.19 19.7661 27.3901 20.314 27.755 20.7469C28.1199 21.1797 28.6261 21.4696 29.1841 21.5654C29.7421 21.6611 30.316 21.5565 30.8043 21.27C31.2926 20.9836 31.664 20.5337 31.8527 19.9999H32.7999C33.4364 19.9999 34.0469 19.7471 34.4969 19.297C34.947 18.8469 35.1999 18.2365 35.1999 17.5999V8.26474L38.3999 9.23914V23.1999H35.8527C35.664 22.6662 35.2926 22.2163 34.8043 21.9298C34.316 21.6434 33.7421 21.5388 33.1841 21.6345C32.6261 21.7302 32.1199 22.0202 31.755 22.453C31.3901 22.8859 31.19 23.4338 31.19 23.9999C31.19 24.5661 31.3901 25.114 31.755 25.5469C32.1199 25.9797 32.6261 26.2696 33.1841 26.3654C33.7421 26.4611 34.316 26.3565 34.8043 26.07C35.2926 25.7836 35.664 25.3337 35.8527 24.7999H38.3999V31.5863C38.401 32.1245 38.2672 32.6543 38.011 33.1274C37.7547 33.6006 37.384 34.002 36.9327 34.2951L35.1999 35.4255V30.3999C35.1999 30.1878 35.1156 29.9843 34.9656 29.8343C34.8155 29.6842 34.6121 29.5999 34.3999 29.5999C34.1877 29.5999 33.9842 29.6842 33.8342 29.8343C33.6842 29.9843 33.5999 30.1878 33.5999 30.3999V36.4695L29.5999 39.0799V30.2527C30.1337 30.064 30.5835 29.6927 30.87 29.2044C31.1565 28.716 31.2611 28.1422 31.1653 27.5842C31.0696 27.0262 30.7797 26.52 30.3468 26.1551C29.914 25.7901 29.366 25.59 28.7999 25.59C28.2337 25.59 27.6858 25.7901 27.253 26.1551C26.8201 26.52 26.5302 27.0262 26.4345 27.5842C26.3387 28.1422 26.4433 28.716 26.7298 29.2044C27.0163 29.6927 27.4661 30.064 27.9999 30.2527V40.1239L24.7999 42.2119V24.6527C25.3337 24.464 25.7835 24.0927 26.07 23.6044C26.3565 23.116 26.4611 22.5422 26.3653 21.9842C26.2696 21.4262 25.9797 20.92 25.5468 20.5551C25.114 20.1901 24.566 19.99 23.9999 19.99C23.4337 19.99 22.8858 20.1901 22.453 20.5551C22.0201 20.92 21.7302 21.4262 21.6345 21.9842C21.5387 22.5422 21.6433 23.116 21.9298 23.6044C22.2163 24.0927 22.6661 24.464 23.1999 24.6527V42.2119L19.9999 40.1239V30.2527C20.5337 30.064 20.9835 29.6927 21.27 29.2044C21.5565 28.716 21.6611 28.1422 21.5653 27.5842C21.4696 27.0262 21.1797 26.52 20.7468 26.1551C20.314 25.7901 19.766 25.59 19.1999 25.59C18.6337 25.59 18.0858 25.7901 17.653 26.1551C17.2201 26.52 16.9302 27.0262 16.8345 27.5842C16.7387 28.1422 16.8433 28.716 17.1298 29.2044C17.4163 29.6927 17.8661 30.064 18.3999 30.2527V39.0799L14.3999 36.4703V30.3999C14.3999 30.1878 14.3156 29.9843 14.1656 29.8343C14.0156 29.6842 13.8121 29.5999 13.5999 29.5999C13.3877 29.5999 13.1842 29.6842 13.0342 29.8343C12.8842 29.9843 12.7999 30.1878 12.7999 30.3999V35.4271L11.0679 34.2967C10.6164 34.0034 10.2455 33.6017 9.98909 33.1283C9.73267 32.6549 9.59887 32.1248 9.59989 31.5863V24.7999H12.1471C12.3358 25.3337 12.7071 25.7836 13.1955 26.07C13.6838 26.3565 14.2577 26.4611 14.8157 26.3654C15.3737 26.2696 15.8799 25.9797 16.2448 25.5469C16.6097 25.114 16.8098 24.5661 16.8098 23.9999C16.8098 23.4338 16.6097 22.8859 16.2448 22.453C15.8799 22.0202 15.3737 21.7302 14.8157 21.6345C14.2577 21.5388 13.6838 21.6434 13.1955 21.9298C12.7071 22.2163 12.3358 22.6662 12.1471 23.1999H9.59989V9.23914L12.7999 8.26474ZM17.5999 19.1999C17.5999 19.0417 17.6468 18.887 17.7347 18.7555C17.8226 18.6239 17.9476 18.5214 18.0937 18.4608C18.2399 18.4003 18.4008 18.3844 18.556 18.4153C18.7112 18.4462 18.8537 18.5224 18.9656 18.6343C19.0775 18.7461 19.1537 18.8887 19.1845 19.0439C19.2154 19.1991 19.1995 19.3599 19.139 19.5061C19.0784 19.6523 18.9759 19.7772 18.8443 19.8651C18.7128 19.953 18.5581 19.9999 18.3999 19.9999C18.1877 19.9999 17.9842 19.9157 17.8342 19.7656C17.6842 19.6156 17.5999 19.4121 17.5999 19.1999ZM30.3999 19.1999C30.3999 19.3582 30.353 19.5128 30.2651 19.6444C30.1772 19.776 30.0522 19.8785 29.906 19.939C29.7599 19.9996 29.599 20.0154 29.4438 19.9846C29.2886 19.9537 29.1461 19.8775 29.0342 19.7656C28.9223 19.6537 28.8461 19.5112 28.8153 19.356C28.7844 19.2008 28.8002 19.04 28.8608 18.8938C28.9213 18.7476 29.0239 18.6227 29.1554 18.5348C29.287 18.4469 29.4417 18.3999 29.5999 18.3999C29.8121 18.3999 30.0156 18.4842 30.1656 18.6343C30.3156 18.7843 30.3999 18.9878 30.3999 19.1999ZM34.3999 23.9999C34.3999 24.1582 34.353 24.3128 34.2651 24.4444C34.1772 24.576 34.0522 24.6785 33.906 24.739C33.7599 24.7996 33.599 24.8154 33.4438 24.7846C33.2886 24.7537 33.1461 24.6775 33.0342 24.5656C32.9223 24.4537 32.8461 24.3112 32.8153 24.156C32.7844 24.0008 32.8002 23.84 32.8608 23.6938C32.9213 23.5476 33.0239 23.4227 33.1554 23.3348C33.287 23.2469 33.4417 23.1999 33.5999 23.1999C33.8121 23.1999 34.0156 23.2842 34.1656 23.4343C34.3156 23.5843 34.3999 23.7878 34.3999 23.9999ZM13.5999 23.9999C13.5999 23.8417 13.6468 23.687 13.7347 23.5555C13.8226 23.4239 13.9476 23.3214 14.0937 23.2608C14.2399 23.2003 14.4008 23.1844 14.556 23.2153C14.7112 23.2462 14.8537 23.3224 14.9656 23.4343C15.0775 23.5461 15.1537 23.6887 15.1845 23.8439C15.2154 23.9991 15.1995 24.1599 15.139 24.3061C15.0784 24.4523 14.9759 24.5772 14.8443 24.6651C14.7128 24.753 14.5581 24.7999 14.3999 24.7999C14.1877 24.7999 13.9842 24.7157 13.8342 24.5656C13.6842 24.4156 13.5999 24.2121 13.5999 23.9999Z" fill="#0366FF"/>
</svg>
