<svg width="1000" height="360" viewBox="0 0 1000 360" fill="none" xmlns="http://www.w3.org/2000/svg">
<path d="M286.5 274.27V206.57H259.88V193.95H328.04V206.57H301.42V274.27H286.5Z" fill="#0C0646"/>
<path d="M362.35 275.07C357.15 275.07 352.56 274.09 348.58 272.14C344.6 270.19 341.5 267.21 339.29 263.19C337.07 259.17 335.96 254.11 335.96 247.99V212.99H350.3V246.04C350.3 251.55 351.54 255.66 354.03 258.38C356.51 261.1 360.05 262.45 364.64 262.45C368.01 262.45 370.93 261.76 373.42 260.38C375.9 259 377.86 256.94 379.27 254.18C380.68 251.43 381.39 248.02 381.39 243.97V212.99H395.73V274.27H382.08V257.75L384.49 262.8C382.42 266.78 379.4 269.82 375.42 271.92C371.44 274.03 367.08 275.08 362.34 275.08L362.35 275.07Z" fill="#0C0646"/>
<path d="M449.33 212.3C454.23 212.3 458.6 213.26 462.47 215.17C466.33 217.08 469.37 220.01 471.59 223.95C473.81 227.89 474.92 232.96 474.92 239.15V274.26H460.58V240.98C460.58 235.55 459.3 231.5 456.74 228.82C454.18 226.14 450.6 224.8 446.01 224.8C442.64 224.8 439.66 225.49 437.06 226.87C434.46 228.25 432.45 230.29 431.04 233.01C429.62 235.73 428.92 239.15 428.92 243.28V274.26H414.58V212.98H428.24V229.5L425.83 224.45C427.97 220.55 431.09 217.55 435.18 215.44C439.27 213.34 444 212.28 449.35 212.28L449.33 212.3Z" fill="#0C0646"/>
<path d="M485.02 224.93V213.45H525.87V224.93H485.02ZM516.23 275.08C509.5 275.08 504.3 273.34 500.63 269.86C496.96 266.38 495.12 261.24 495.12 254.43V199.47H509.46V254.09C509.46 257 510.21 259.25 511.7 260.86C513.19 262.47 515.28 263.27 517.95 263.27C521.16 263.27 523.84 262.43 525.98 260.75L530 270.96C528.32 272.34 526.25 273.37 523.8 274.06C521.35 274.75 518.83 275.09 516.23 275.09V275.08Z" fill="#0C0646"/>
<path d="M560.29 275.07C555.7 275.07 551.68 274.28 548.24 272.72C544.8 271.15 542.14 268.97 540.27 266.18C538.39 263.39 537.46 260.23 537.46 256.71C537.46 253.19 538.28 250.17 539.93 247.42C541.57 244.67 544.27 242.49 548.02 240.88C551.77 239.27 556.74 238.47 562.94 238.47H580.73V247.99H563.98C559.08 247.99 555.79 248.78 554.11 250.34C552.43 251.91 551.59 253.84 551.59 256.13C551.59 258.73 552.62 260.8 554.69 262.33C556.76 263.86 559.62 264.62 563.3 264.62C566.98 264.62 569.97 263.82 572.77 262.21C575.56 260.6 577.57 258.23 578.79 255.1L581.2 263.71C579.82 267.31 577.36 270.1 573.8 272.09C570.24 274.08 565.75 275.07 560.32 275.07H560.29ZM579.57 274.27V261.88L578.77 259.24V237.55C578.77 233.34 577.51 230.07 574.98 227.74C572.46 225.41 568.63 224.24 563.5 224.24C560.06 224.24 556.67 224.78 553.34 225.85C550.01 226.92 547.2 228.41 544.91 230.32L539.29 219.88C542.58 217.36 546.5 215.46 551.05 214.2C555.6 212.94 560.33 212.31 565.22 212.31C574.09 212.31 580.96 214.43 585.82 218.68C590.68 222.93 593.11 229.49 593.11 238.36V274.28H579.57V274.27Z" fill="#0C0646"/>
<path d="M630.4 275.07C625.27 275.07 620.36 274.4 615.65 273.06C610.94 271.72 607.22 270.1 604.46 268.18L609.97 257.28C612.72 259.04 616.01 260.49 619.84 261.64C623.66 262.79 627.49 263.36 631.31 263.36C635.82 263.36 639.09 262.75 641.12 261.52C643.15 260.3 644.16 258.65 644.16 256.59C644.16 254.91 643.47 253.63 642.09 252.75C640.71 251.87 638.91 251.2 636.7 250.74C634.48 250.28 632.01 249.86 629.3 249.48C626.58 249.1 623.87 248.58 621.15 247.93C618.43 247.28 615.97 246.32 613.75 245.06C611.53 243.8 609.73 242.1 608.36 239.95C606.98 237.81 606.29 234.98 606.29 231.46C606.29 227.56 607.4 224.17 609.62 221.3C611.84 218.43 614.96 216.21 618.97 214.64C622.99 213.07 627.75 212.29 633.26 212.29C637.39 212.29 641.56 212.75 645.77 213.67C649.98 214.59 653.46 215.89 656.21 217.57L650.7 228.47C647.79 226.71 644.87 225.51 641.92 224.86C638.97 224.21 636.05 223.88 633.14 223.88C628.78 223.88 625.55 224.53 623.44 225.83C621.34 227.13 620.28 228.78 620.28 230.76C620.28 232.6 620.97 233.97 622.35 234.89C623.73 235.81 625.52 236.54 627.74 237.07C629.96 237.61 632.42 238.05 635.14 238.39C637.85 238.73 640.55 239.25 643.23 239.94C645.91 240.63 648.37 241.57 650.63 242.75C652.89 243.94 654.7 245.6 656.08 247.74C657.46 249.88 658.15 252.67 658.15 256.12C658.15 259.95 657.02 263.27 654.77 266.1C652.51 268.93 649.32 271.13 645.19 272.7C641.06 274.27 636.12 275.05 630.39 275.05L630.4 275.07Z" fill="#0C0646"/>
<path d="M677.79 202.89C675.11 202.89 672.91 202.05 671.19 200.37C669.47 198.69 668.61 196.66 668.61 194.29C668.61 191.92 669.47 189.8 671.19 188.15C672.91 186.51 675.11 185.68 677.79 185.68C680.47 185.68 682.67 186.47 684.39 188.03C686.11 189.6 686.97 191.57 686.97 193.94C686.97 196.46 686.13 198.59 684.45 200.31C682.77 202.03 680.55 202.89 677.79 202.89ZM670.56 274.26V212.98H684.9V274.26H670.56Z" fill="#0C0646"/>
<path d="M738.49 212.3C743.38 212.3 747.76 213.26 751.63 215.17C755.49 217.08 758.53 220.01 760.75 223.95C762.97 227.89 764.08 232.96 764.08 239.15V274.26H749.74V240.98C749.74 235.55 748.46 231.5 745.9 228.82C743.34 226.14 739.76 224.8 735.17 224.8C731.8 224.8 728.82 225.49 726.22 226.87C723.62 228.25 721.61 230.29 720.2 233.01C718.78 235.73 718.08 239.15 718.08 243.28V274.26H703.74V212.98H717.4V229.5L714.99 224.45C717.13 220.55 720.25 217.55 724.34 215.44C728.43 213.34 733.16 212.28 738.51 212.28L738.49 212.3Z" fill="#0C0646"/>
<path d="M773.9 274.27L810.05 193.95H824.74L861 274.27H845.39L814.29 201.86H820.26L789.28 274.27H773.9ZM790.54 255.68L794.56 243.97H837.94L841.96 255.68H790.55H790.54Z" fill="#0166FF"/>
<path d="M863.52 297.33C860.84 297.33 858.3 297.04 855.89 296.47C853.48 295.9 851.43 295 849.75 293.77L853.88 283.1C856.1 284.71 858.89 285.51 862.26 285.51C864.86 285.51 866.89 284.69 868.34 283.04C869.79 281.39 870.52 278.97 870.52 275.75V212.98H884.86V275.4C884.86 282.13 883 287.47 879.29 291.41C875.58 295.35 870.32 297.32 863.51 297.32L863.52 297.33ZM877.63 202.89C874.95 202.89 872.75 202.05 871.03 200.37C869.31 198.69 868.45 196.66 868.45 194.29C868.45 191.92 869.31 189.8 871.03 188.15C872.75 186.51 874.95 185.68 877.63 185.68C880.31 185.68 882.51 186.47 884.23 188.03C885.95 189.6 886.81 191.57 886.81 193.94C886.81 196.46 885.97 198.59 884.29 200.31C882.61 202.03 880.39 202.89 877.63 202.89Z" fill="#0166FF"/>
<path d="M922.16 275.07C917.57 275.07 913.55 274.28 910.11 272.72C906.67 271.15 904.01 268.97 902.14 266.18C900.26 263.39 899.33 260.23 899.33 256.71C899.33 253.19 900.15 250.17 901.8 247.42C903.44 244.67 906.14 242.49 909.89 240.88C913.64 239.27 918.61 238.47 924.81 238.47H942.6V247.99H925.85C920.95 247.99 917.66 248.78 915.98 250.34C914.3 251.91 913.46 253.84 913.46 256.13C913.46 258.73 914.49 260.8 916.56 262.33C918.63 263.86 921.49 264.62 925.17 264.62C928.85 264.62 931.84 263.82 934.64 262.21C937.43 260.6 939.44 258.23 940.66 255.1L943.07 263.71C941.69 267.31 939.23 270.1 935.67 272.09C932.11 274.08 927.62 275.07 922.19 275.07H922.16ZM941.44 274.27V261.88L940.64 259.24V237.55C940.64 233.34 939.38 230.07 936.85 227.74C934.33 225.41 930.5 224.24 925.37 224.24C921.93 224.24 918.54 224.78 915.21 225.85C911.88 226.92 909.07 228.41 906.78 230.32L901.16 219.88C904.45 217.36 908.37 215.46 912.92 214.2C917.47 212.94 922.2 212.31 927.09 212.31C935.96 212.31 942.83 214.43 947.69 218.68C952.55 222.93 954.98 229.49 954.98 238.36V274.28H941.44V274.27Z" fill="#0166FF"/>
<path d="M206.25 232.21H168.25C160.805 232.21 154.77 238.245 154.77 245.69V283.69C154.77 291.135 160.805 297.17 168.25 297.17H206.25C213.695 297.17 219.73 291.135 219.73 283.69V245.69C219.73 238.245 213.695 232.21 206.25 232.21Z" fill="#0166FF"/>
<path d="M273.31 108.82V147.02C273.2 152.91 265.1 154.52 262.47 149.28L243.85 112.07C242.6 109.55 238.98 109.55 237.71 112.07L219.71 148.06V190.82C219.71 196.81 214.86 201.66 208.87 201.66H171.21C165.25 201.66 160.37 206.54 160.37 212.5V233.18C160.37 239.17 155.52 244.02 149.53 244.02H106.21C100.24 244.02 95.3701 239.18 95.3701 233.18V212.5C95.3701 206.51 90.5201 201.66 84.5301 201.66H46.9001C40.9301 201.66 36.0601 196.82 36.0601 190.82V147.5C36.0601 141.54 40.9401 136.66 46.9001 136.66H90.1901C96.1901 136.66 101.03 141.53 101.03 147.5V168.18C101.03 174.18 105.9 179.02 111.87 179.02H143.87C149.86 179.02 154.71 174.17 154.71 168.18V147.5C154.71 141.54 159.59 136.66 165.55 136.66H196.2C202.9 136.66 208.33 131.23 208.33 124.53V108.79C208.33 101.35 214.36 95.32 221.8 95.32H259.8C267.25 95.32 273.3 101.36 273.3 108.82H273.31Z" fill="#0166FF"/>
<path d="M251.11 151.44C244.55 148.57 237.09 148.57 230.53 151.44C228.45 151.44 227.1 149.25 228.03 147.39L238.32 126.81C239.35 124.75 242.29 124.75 243.32 126.81L253.61 147.39C254.54 149.25 253.19 151.44 251.11 151.44Z" fill="#0C0646"/>
</svg>
