<svg width="178" height="64" viewBox="0 0 178 64" fill="none" xmlns="http://www.w3.org/2000/svg">
<path d="M50.8059 48.7591V36.7235H46.0853V34.48H58.1724V36.7235H53.4518V48.7591H50.8059Z" fill="white"/>
<path d="M64.2566 48.9012C63.3345 48.9012 62.5205 48.727 61.8147 48.3803C61.1089 48.0336 60.5592 47.5039 60.1673 46.7892C59.7736 46.0745 59.5768 45.175 59.5768 44.087V37.8647H62.1197V43.7403C62.1197 44.7199 62.3396 45.4505 62.7812 45.9341C63.221 46.4176 63.8487 46.6576 64.6627 46.6576C65.2603 46.6576 65.7781 46.535 66.2197 46.2896C66.6595 46.0443 67.0071 45.6781 67.2571 45.1874C67.5071 44.6985 67.633 44.0923 67.633 43.3723V37.8647H70.176V48.759H67.7554V45.8221L68.1828 46.7199C67.8157 47.4274 67.2801 47.9679 66.5744 48.3412C65.8686 48.7163 65.0954 48.903 64.2548 48.903L64.2566 48.9012Z" fill="white"/>
<path d="M79.6811 37.7423C80.5501 37.7423 81.325 37.913 82.0113 38.2525C82.6958 38.5921 83.2349 39.113 83.6286 39.8134C84.0223 40.5139 84.2191 41.4152 84.2191 42.5157V48.7574H81.6761V42.841C81.6761 41.8756 81.4491 41.1557 80.9952 40.6792C80.5412 40.2028 79.9063 39.9645 79.0924 39.9645C78.4948 39.9645 77.9663 40.0872 77.5053 40.3325C77.0442 40.5779 76.6877 40.9405 76.4377 41.4241C76.1859 41.9077 76.0618 42.5157 76.0618 43.2499V48.7574H73.5188V37.8632H75.9412V40.8001L75.5138 39.9023C75.8933 39.209 76.4466 38.6757 77.1719 38.3005C77.8972 37.9272 78.7359 37.7388 79.6847 37.7388L79.6811 37.7423Z" fill="white"/>
<path d="M86.0101 39.9876V37.9468H93.2542V39.9876H86.0101ZM91.5447 48.9032C90.3513 48.9032 89.4291 48.5939 88.7783 47.9752C88.1275 47.3565 87.8012 46.4428 87.8012 45.2321V35.4614H90.3442V45.1717C90.3442 45.689 90.4772 46.089 90.7414 46.3752C91.0056 46.6614 91.3762 46.8037 91.8497 46.8037C92.419 46.8037 92.8942 46.6543 93.2737 46.3556L93.9866 48.1708C93.6887 48.4161 93.3216 48.5992 92.8871 48.7219C92.4527 48.8445 92.0058 48.905 91.5447 48.905V48.9032Z" fill="white"/>
<path d="M99.3581 48.9015C98.5441 48.9015 97.8312 48.761 97.2212 48.4837C96.6112 48.2046 96.1395 47.817 95.8079 47.321C95.4745 46.825 95.3096 46.2633 95.3096 45.6375C95.3096 45.0117 95.455 44.4748 95.7476 43.9859C96.0384 43.497 96.5172 43.1095 97.1822 42.8233C97.8472 42.537 98.7286 42.3948 99.828 42.3948H102.983V44.0873H100.012C99.1435 44.0873 98.5601 44.2277 98.2622 44.505C97.9642 44.7841 97.8153 45.1273 97.8153 45.5344C97.8153 45.9966 97.9979 46.3646 98.365 46.6366C98.7321 46.9086 99.2393 47.0437 99.8919 47.0437C100.544 47.0437 101.075 46.9015 101.571 46.6153C102.066 46.329 102.422 45.9077 102.639 45.3512L103.066 46.8819C102.821 47.5219 102.385 48.0179 101.754 48.3717C101.123 48.7255 100.326 48.9015 99.3634 48.9015H99.3581ZM102.777 48.7593V46.5566L102.635 46.0873V42.2313C102.635 41.4828 102.412 40.9015 101.963 40.4873C101.516 40.073 100.837 39.865 99.9273 39.865C99.3173 39.865 98.7161 39.961 98.1256 40.1512C97.5351 40.3415 97.0368 40.6064 96.6307 40.9459L95.6341 39.0899C96.2175 38.6419 96.9127 38.3041 97.7195 38.0801C98.5264 37.8561 99.3652 37.7441 100.232 37.7441C101.805 37.7441 103.024 38.121 103.885 38.8766C104.747 39.6321 105.178 40.7984 105.178 42.3752V48.761H102.777V48.7593Z" fill="white"/>
<path d="M111.791 48.9011C110.881 48.9011 110.01 48.782 109.175 48.5438C108.34 48.3056 107.68 48.0176 107.191 47.6762L108.168 45.7385C108.656 46.0514 109.239 46.3091 109.918 46.5136C110.596 46.718 111.275 46.8193 111.952 46.8193C112.752 46.8193 113.332 46.7109 113.692 46.4922C114.052 46.2754 114.231 45.982 114.231 45.6158C114.231 45.3171 114.109 45.0896 113.864 44.9331C113.619 44.7767 113.3 44.6576 112.908 44.5758C112.514 44.494 112.076 44.4193 111.596 44.3518C111.113 44.2842 110.633 44.1918 110.15 44.0762C109.668 43.9607 109.232 43.79 108.838 43.566C108.445 43.342 108.125 43.0398 107.882 42.6576C107.638 42.2771 107.515 41.774 107.515 41.1482C107.515 40.4549 107.712 39.8522 108.106 39.342C108.5 38.8318 109.053 38.4371 109.764 38.158C110.477 37.8789 111.321 37.7402 112.298 37.7402C113.03 37.7402 113.77 37.822 114.516 37.9856C115.263 38.1491 115.88 38.3802 116.368 38.6789L115.391 40.6167C114.875 40.3038 114.357 40.0905 113.834 39.9749C113.311 39.8593 112.793 39.8007 112.277 39.8007C111.504 39.8007 110.931 39.9162 110.557 40.1474C110.184 40.3785 109.996 40.6718 109.996 41.0238C109.996 41.3509 110.119 41.5945 110.363 41.758C110.608 41.9216 110.925 42.0514 111.319 42.1456C111.713 42.2416 112.149 42.3198 112.631 42.3802C113.112 42.4407 113.591 42.5331 114.066 42.6558C114.541 42.7785 114.978 42.9456 115.378 43.1553C115.779 43.3669 116.1 43.662 116.345 44.0425C116.589 44.4229 116.712 44.9189 116.712 45.5322C116.712 46.2131 116.511 46.8033 116.112 47.3065C115.712 47.8096 115.146 48.2007 114.414 48.4798C113.681 48.7589 112.805 48.8976 111.789 48.8976L111.791 48.9011Z" fill="white"/>
<path d="M120.195 36.0693C119.719 36.0693 119.329 35.92 119.024 35.6213C118.719 35.3227 118.567 34.9618 118.567 34.5404C118.567 34.1191 118.719 33.7422 119.024 33.4489C119.329 33.1573 119.719 33.0098 120.195 33.0098C120.67 33.0098 121.06 33.1502 121.365 33.4275C121.67 33.7067 121.823 34.0569 121.823 34.4782C121.823 34.9262 121.674 35.3049 121.376 35.6107C121.078 35.9164 120.684 36.0693 120.195 36.0693ZM118.913 48.7573V37.8631H121.456V48.7573H118.913Z" fill="white"/>
<path d="M130.959 37.7423C131.826 37.7423 132.603 37.913 133.289 38.2525C133.974 38.5921 134.513 39.113 134.906 39.8134C135.3 40.5139 135.497 41.4152 135.497 42.5157V48.7574H132.954V42.841C132.954 41.8756 132.727 41.1557 132.273 40.6792C131.819 40.2028 131.184 39.9645 130.37 39.9645C129.772 39.9645 129.244 40.0872 128.783 40.3325C128.322 40.5779 127.965 40.9405 127.715 41.4241C127.464 41.9077 127.339 42.5157 127.339 43.2499V48.7574H124.797V37.8632H127.219V40.8001L126.792 39.9023C127.171 39.209 127.724 38.6757 128.45 38.3005C129.175 37.9272 130.014 37.7388 130.962 37.7388L130.959 37.7423Z" fill="white"/>
<path d="M137.238 48.7591L143.649 34.48H146.254L152.684 48.7591H149.916L144.401 35.8862H145.459L139.966 48.7591H137.238ZM140.189 45.4542L140.902 43.3724H148.595L149.308 45.4542H140.191H140.189Z" fill="white"/>
<path d="M153.131 52.8587C152.656 52.8587 152.205 52.8071 151.778 52.7058C151.35 52.6044 150.987 52.4444 150.689 52.2258L151.421 50.3289C151.815 50.6151 152.31 50.7573 152.907 50.7573C153.368 50.7573 153.728 50.6115 153.986 50.3182C154.243 50.0249 154.372 49.5947 154.372 49.0222V37.8631H156.915V48.96C156.915 50.1564 156.585 51.1058 155.927 51.8062C155.269 52.5067 154.337 52.8569 153.129 52.8569L153.131 52.8587ZM155.633 36.0693C155.158 36.0693 154.768 35.92 154.463 35.6213C154.158 35.3227 154.005 34.9618 154.005 34.5404C154.005 34.1191 154.158 33.7422 154.463 33.4489C154.768 33.1573 155.158 33.0098 155.633 33.0098C156.108 33.0098 156.498 33.1502 156.803 33.4275C157.108 33.7067 157.261 34.0569 157.261 34.4782C157.261 34.9262 157.112 35.3049 156.814 35.6107C156.516 35.9164 156.122 36.0693 155.633 36.0693Z" fill="white"/>
<path d="M163.53 48.9015C162.716 48.9015 162.003 48.761 161.393 48.4837C160.783 48.2046 160.311 47.817 159.98 47.321C159.646 46.825 159.481 46.2633 159.481 45.6375C159.481 45.0117 159.627 44.4748 159.919 43.9859C160.21 43.497 160.689 43.1095 161.354 42.8233C162.019 42.537 162.9 42.3948 164 42.3948H167.154V44.0873H164.184C163.315 44.0873 162.732 44.2277 162.434 44.505C162.136 44.7841 161.987 45.1273 161.987 45.5344C161.987 45.9966 162.17 46.3646 162.537 46.6366C162.904 46.9086 163.411 47.0437 164.063 47.0437C164.716 47.0437 165.246 46.9015 165.743 46.6153C166.238 46.329 166.594 45.9077 166.81 45.3512L167.238 46.8819C166.993 47.5219 166.557 48.0179 165.925 48.3717C165.294 48.7255 164.498 48.9015 163.535 48.9015H163.53ZM166.949 48.7593V46.5566L166.807 46.0873V42.2313C166.807 41.4828 166.583 40.9015 166.135 40.4873C165.688 40.073 165.009 39.865 164.099 39.865C163.489 39.865 162.888 39.961 162.297 40.1512C161.707 40.3415 161.208 40.6064 160.802 40.9459L159.806 39.0899C160.389 38.6419 161.084 38.3041 161.891 38.0801C162.698 37.8561 163.537 37.7441 164.404 37.7441C165.977 37.7441 167.195 38.121 168.057 38.8766C168.919 39.6321 169.35 40.7984 169.35 42.3752V48.761H166.949V48.7593Z" fill="white"/>
<path d="M36.575 41.2817H29.8364C28.5162 41.2817 27.4459 42.3547 27.4459 43.6782V50.4337C27.4459 51.7573 28.5162 52.8302 29.8364 52.8302H36.575C37.8953 52.8302 38.9655 51.7573 38.9655 50.4337V43.6782C38.9655 42.3547 37.8953 41.2817 36.575 41.2817Z" fill="white"/>
<path d="M48.467 19.3458V26.1369C48.4475 27.184 47.0111 27.4702 46.5447 26.5387L43.2427 19.9236C43.0211 19.4756 42.3791 19.4756 42.1539 19.9236L38.9619 26.3218V33.9236C38.9619 34.9885 38.1019 35.8507 37.0396 35.8507H30.3613C29.3043 35.8507 28.439 36.7182 28.439 37.7778V41.4542C28.439 42.5191 27.5789 43.3814 26.5167 43.3814H18.8346C17.7759 43.3814 16.9123 42.5209 16.9123 41.4542V37.7778C16.9123 36.7129 16.0522 35.8507 14.99 35.8507H8.31695C7.25827 35.8507 6.39465 34.9902 6.39465 33.9236V26.2222C6.39465 25.1627 7.26004 24.2951 8.31695 24.2951H15.9937C17.0577 24.2951 17.916 25.1609 17.916 26.2222V29.8987C17.916 30.9654 18.7796 31.8258 19.8383 31.8258H25.513C26.5752 31.8258 27.4353 30.9636 27.4353 29.8987V26.2222C27.4353 25.1627 28.3006 24.2951 29.3575 24.2951H34.7928C35.9809 24.2951 36.9439 23.3298 36.9439 22.1387V19.3405C36.9439 18.0178 38.0132 16.9458 39.3325 16.9458H46.0712C47.3923 16.9458 48.4652 18.0196 48.4652 19.3458H48.467Z" fill="white"/>
<path d="M44.5302 26.9229C43.3669 26.4126 42.044 26.4126 40.8807 26.9229C40.5118 26.9229 40.2724 26.5335 40.4373 26.2029L42.2621 22.5442C42.4448 22.178 42.9661 22.178 43.1488 22.5442L44.9735 26.2029C45.1385 26.5335 44.8991 26.9229 44.5302 26.9229Z" fill="white"/>
</svg>
