<svg width="133" height="48" viewBox="0 0 133 48" fill="none" xmlns="http://www.w3.org/2000/svg">
<path d="M38.2 34.3933V25.3667H34.6507V23.684H43.7387V25.3667H40.1893V34.3933H38.2Z" fill="#0C0646"/>
<path d="M48.3133 34.5C47.62 34.5 47.008 34.3693 46.4773 34.1093C45.9467 33.8493 45.5333 33.452 45.2387 32.916C44.9427 32.38 44.7947 31.7053 44.7947 30.8893V26.2227H46.7067V30.6293C46.7067 31.364 46.872 31.912 47.204 32.2747C47.5347 32.6373 48.0067 32.8173 48.6187 32.8173C49.068 32.8173 49.4573 32.7253 49.7893 32.5413C50.12 32.3573 50.3813 32.0827 50.5693 31.7147C50.7573 31.348 50.852 30.8933 50.852 30.3533V26.2227H52.764V34.3933H50.944V32.1907L51.2653 32.864C50.9893 33.3947 50.5867 33.8 50.056 34.08C49.5253 34.3613 48.944 34.5013 48.312 34.5013L48.3133 34.5Z" fill="#0C0646"/>
<path d="M59.9107 26.1307C60.564 26.1307 61.1467 26.2587 61.6627 26.5133C62.1773 26.768 62.5827 27.1587 62.8787 27.684C63.1747 28.2093 63.3227 28.8853 63.3227 29.7107V34.392H61.4107V29.9547C61.4107 29.2307 61.24 28.6907 60.8987 28.3333C60.5573 27.976 60.08 27.7973 59.468 27.7973C59.0187 27.7973 58.6213 27.8893 58.2747 28.0733C57.928 28.2573 57.66 28.5293 57.472 28.892C57.2827 29.2547 57.1893 29.7107 57.1893 30.2613V34.392H55.2773V26.2213H57.0987V28.424L56.7773 27.7507C57.0627 27.2307 57.4787 26.8307 58.024 26.5493C58.5693 26.2693 59.2 26.128 59.9133 26.128L59.9107 26.1307Z" fill="#0C0646"/>
<path d="M64.6693 27.8147V26.284H70.116V27.8147H64.6693ZM68.8307 34.5013C67.9333 34.5013 67.24 34.2693 66.7507 33.8053C66.2613 33.3413 66.016 32.656 66.016 31.748V24.42H67.928V31.7027C67.928 32.0907 68.028 32.3907 68.2267 32.6053C68.4253 32.82 68.704 32.9267 69.06 32.9267C69.488 32.9267 69.8453 32.8147 70.1307 32.5907L70.6667 33.952C70.4427 34.136 70.1667 34.2733 69.84 34.3653C69.5133 34.4573 69.1773 34.5027 68.8307 34.5027V34.5013Z" fill="#0C0646"/>
<path d="M74.7053 34.5C74.0933 34.5 73.5573 34.3947 73.0987 34.1867C72.64 33.9773 72.2853 33.6867 72.036 33.3147C71.7853 32.9427 71.6613 32.5213 71.6613 32.052C71.6613 31.5827 71.7707 31.18 71.9907 30.8133C72.2093 30.4467 72.5693 30.156 73.0693 29.9413C73.5693 29.7267 74.232 29.62 75.0587 29.62H77.4307V30.8893H75.1973C74.544 30.8893 74.1053 30.9947 73.8813 31.2027C73.6573 31.412 73.5453 31.6693 73.5453 31.9747C73.5453 32.3213 73.6827 32.5973 73.9587 32.8013C74.2347 33.0053 74.616 33.1067 75.1067 33.1067C75.5973 33.1067 75.996 33 76.3693 32.7853C76.7413 32.5707 77.0093 32.2547 77.172 31.8373L77.4933 32.9853C77.3093 33.4653 76.9813 33.8373 76.5067 34.1027C76.032 34.368 75.4333 34.5 74.7093 34.5H74.7053ZM77.276 34.3933V32.7413L77.1693 32.3893V29.4973C77.1693 28.936 77.0013 28.5 76.664 28.1893C76.328 27.8787 75.8173 27.7227 75.1333 27.7227C74.6747 27.7227 74.2227 27.7947 73.7787 27.9373C73.3347 28.08 72.96 28.2787 72.6547 28.5333L71.9053 27.1413C72.344 26.8053 72.8667 26.552 73.4733 26.384C74.08 26.216 74.7107 26.132 75.3627 26.132C76.5453 26.132 77.4613 26.4147 78.1093 26.9813C78.7573 27.548 79.0813 28.4227 79.0813 29.6053V34.3947H77.276V34.3933Z" fill="#0C0646"/>
<path d="M84.0533 34.5C83.3693 34.5 82.7147 34.4107 82.0867 34.232C81.4587 34.0533 80.9627 33.8373 80.5947 33.5813L81.3293 32.128C81.696 32.3627 82.1347 32.556 82.6453 32.7093C83.1547 32.8627 83.6653 32.9387 84.1747 32.9387C84.776 32.9387 85.212 32.8573 85.4827 32.6933C85.7533 32.5307 85.888 32.3107 85.888 32.036C85.888 31.812 85.796 31.6413 85.612 31.524C85.428 31.4067 85.188 31.3173 84.8933 31.256C84.5973 31.1947 84.268 31.1387 83.9067 31.088C83.544 31.0373 83.1827 30.968 82.82 30.8813C82.4573 30.7947 82.1293 30.6667 81.8333 30.4987C81.5373 30.3307 81.2973 30.104 81.1147 29.8173C80.9307 29.532 80.8387 29.1547 80.8387 28.6853C80.8387 28.1653 80.9867 27.7133 81.2827 27.3307C81.5787 26.948 81.9947 26.652 82.5293 26.4427C83.0653 26.2333 83.7 26.1293 84.4347 26.1293C84.9853 26.1293 85.5413 26.1907 86.1027 26.3133C86.664 26.436 87.128 26.6093 87.4947 26.8333L86.76 28.2867C86.372 28.052 85.9827 27.892 85.5893 27.8053C85.196 27.7187 84.8067 27.6747 84.4187 27.6747C83.8373 27.6747 83.4067 27.7613 83.1253 27.9347C82.8453 28.108 82.704 28.328 82.704 28.592C82.704 28.8373 82.796 29.02 82.98 29.1427C83.164 29.2653 83.4027 29.3627 83.6987 29.4333C83.9947 29.5053 84.3227 29.564 84.6853 29.6093C85.0467 29.6547 85.4067 29.724 85.764 29.816C86.1213 29.908 86.4493 30.0333 86.7507 30.1907C87.052 30.3493 87.2933 30.5707 87.4773 30.856C87.6613 31.1413 87.7533 31.5133 87.7533 31.9733C87.7533 32.484 87.6027 32.9267 87.3027 33.304C87.0013 33.6813 86.576 33.9747 86.0253 34.184C85.4747 34.3933 84.816 34.4973 84.052 34.4973L84.0533 34.5Z" fill="#0C0646"/>
<path d="M90.372 24.876C90.0147 24.876 89.7213 24.764 89.492 24.54C89.2627 24.316 89.148 24.0453 89.148 23.7293C89.148 23.4133 89.2627 23.1307 89.492 22.9107C89.7213 22.692 90.0147 22.5813 90.372 22.5813C90.7293 22.5813 91.0227 22.6867 91.252 22.8947C91.4813 23.104 91.596 23.3667 91.596 23.6827C91.596 24.0187 91.484 24.3027 91.26 24.532C91.036 24.7613 90.74 24.876 90.372 24.876ZM89.408 34.392V26.2213H91.32V34.392H89.408Z" fill="#0C0646"/>
<path d="M98.4653 26.1307C99.1173 26.1307 99.7013 26.2587 100.217 26.5133C100.732 26.768 101.137 27.1587 101.433 27.684C101.729 28.2093 101.877 28.8853 101.877 29.7107V34.392H99.9653V29.9547C99.9653 29.2307 99.7947 28.6907 99.4533 28.3333C99.112 27.976 98.6347 27.7973 98.0227 27.7973C97.5733 27.7973 97.176 27.8893 96.8293 28.0733C96.4826 28.2573 96.2147 28.5293 96.0267 28.892C95.8373 29.2547 95.744 29.7107 95.744 30.2613V34.392H93.832V26.2213H95.6533V28.424L95.332 27.7507C95.6173 27.2307 96.0333 26.8307 96.5787 26.5493C97.124 26.2693 97.7547 26.128 98.468 26.128L98.4653 26.1307Z" fill="#0C0646"/>
<path d="M103.187 34.3933L108.007 23.684H109.965L114.8 34.3933H112.719L108.572 24.7387H109.368L105.237 34.3933H103.187ZM105.405 31.9147L105.941 30.3533H111.725L112.261 31.9147H105.407H105.405Z" fill="#0166FF"/>
<path d="M115.136 37.468C114.779 37.468 114.44 37.4293 114.119 37.3533C113.797 37.2773 113.524 37.1573 113.3 36.9933L113.851 35.5707C114.147 35.7853 114.519 35.892 114.968 35.892C115.315 35.892 115.585 35.7827 115.779 35.5627C115.972 35.3427 116.069 35.02 116.069 34.5907V26.2213H117.981V34.544C117.981 35.4413 117.733 36.1533 117.239 36.6787C116.744 37.204 116.043 37.4667 115.135 37.4667L115.136 37.468ZM117.017 24.876C116.66 24.876 116.367 24.764 116.137 24.54C115.908 24.316 115.793 24.0453 115.793 23.7293C115.793 23.4133 115.908 23.1307 116.137 22.9107C116.367 22.692 116.66 22.5813 117.017 22.5813C117.375 22.5813 117.668 22.6867 117.897 22.8947C118.127 23.104 118.241 23.3667 118.241 23.6827C118.241 24.0187 118.129 24.3027 117.905 24.532C117.681 24.7613 117.385 24.876 117.017 24.876Z" fill="#0166FF"/>
<path d="M122.955 34.5C122.343 34.5 121.807 34.3947 121.348 34.1867C120.889 33.9773 120.535 33.6867 120.285 33.3147C120.035 32.9427 119.911 32.5213 119.911 32.052C119.911 31.5827 120.02 31.18 120.24 30.8133C120.459 30.4467 120.819 30.156 121.319 29.9413C121.819 29.7267 122.481 29.62 123.308 29.62H125.68V30.8893H123.447C122.793 30.8893 122.355 30.9947 122.131 31.2027C121.907 31.412 121.795 31.6693 121.795 31.9747C121.795 32.3213 121.932 32.5973 122.208 32.8013C122.484 33.0053 122.865 33.1067 123.356 33.1067C123.847 33.1067 124.245 33 124.619 32.7853C124.991 32.5707 125.259 32.2547 125.421 31.8373L125.743 32.9853C125.559 33.4653 125.231 33.8373 124.756 34.1027C124.281 34.368 123.683 34.5 122.959 34.5H122.955ZM125.525 34.3933V32.7413L125.419 32.3893V29.4973C125.419 28.936 125.251 28.5 124.913 28.1893C124.577 27.8787 124.067 27.7227 123.383 27.7227C122.924 27.7227 122.472 27.7947 122.028 27.9373C121.584 28.08 121.209 28.2787 120.904 28.5333L120.155 27.1413C120.593 26.8053 121.116 26.552 121.723 26.384C122.329 26.216 122.96 26.132 123.612 26.132C124.795 26.132 125.711 26.4147 126.359 26.9813C127.007 27.548 127.331 28.4227 127.331 29.6053V34.3947H125.525V34.3933Z" fill="#0166FF"/>
<path d="M27.5 28.7853H22.4333C21.4407 28.7853 20.636 29.59 20.636 30.5827V35.6493C20.636 36.642 21.4407 37.4467 22.4333 37.4467H27.5C28.4926 37.4467 29.2973 36.642 29.2973 35.6493V30.5827C29.2973 29.59 28.4926 28.7853 27.5 28.7853Z" fill="#0166FF"/>
<path d="M36.4413 12.3333V17.4267C36.4267 18.212 35.3467 18.4267 34.996 17.728L32.5133 12.7667C32.3467 12.4307 31.864 12.4307 31.6947 12.7667L29.2947 17.5653V23.2667C29.2947 24.0653 28.648 24.712 27.8493 24.712H22.828C22.0333 24.712 21.3827 25.3627 21.3827 26.1573V28.9147C21.3827 29.7133 20.736 30.36 19.9373 30.36H14.1613C13.3653 30.36 12.716 29.7147 12.716 28.9147V26.1573C12.716 25.3587 12.0693 24.712 11.2707 24.712H6.25334C5.45734 24.712 4.80801 24.0667 4.80801 23.2667V17.4907C4.80801 16.696 5.45867 16.0453 6.25334 16.0453H12.0253C12.8253 16.0453 13.4707 16.6947 13.4707 17.4907V20.248C13.4707 21.048 14.12 21.6933 14.916 21.6933H19.1827C19.9813 21.6933 20.628 21.0467 20.628 20.248V17.4907C20.628 16.696 21.2787 16.0453 22.0733 16.0453H26.16C27.0533 16.0453 27.7773 15.3213 27.7773 14.428V12.3293C27.7773 11.3373 28.5813 10.5333 29.5733 10.5333H34.64C35.6333 10.5333 36.44 11.3387 36.44 12.3333H36.4413Z" fill="#0166FF"/>
<path d="M33.3976 20.192C32.5251 19.8093 31.533 19.8093 30.6605 20.192C30.3838 20.192 30.2043 19.9 30.328 19.652L31.6966 16.908C31.8335 16.6333 32.2246 16.6333 32.3616 16.908L33.7301 19.652C33.8538 19.9 33.6743 20.192 33.3976 20.192Z" fill="#0C0646"/>
</svg>
