<svg width="48" height="48" viewBox="0 0 48 48" fill="none" xmlns="http://www.w3.org/2000/svg">
<g clip-path="url(#clip0_85_905)">
<path d="M44 9.5999H37.84L38.3384 8.4303C38.4703 8.12164 38.5141 7.78245 38.4648 7.45042C38.4155 7.11839 38.2751 6.80653 38.0592 6.5495C37.3842 5.75291 36.6446 5.01334 35.848 4.3383C35.5908 4.11821 35.2764 3.9756 34.9413 3.92703C34.6063 3.87846 34.2643 3.92592 33.9552 4.0639L31.52 5.1063C30.4363 4.48953 29.281 4.00807 28.08 3.6727L27.0904 1.2087C26.9674 0.898395 26.7609 0.628218 26.4937 0.428125C26.2265 0.228031 25.9092 0.105839 25.5768 0.0750986C24.5301 -0.0250328 23.4763 -0.0250328 22.4296 0.0750986C22.0955 0.105615 21.7764 0.228373 21.508 0.429674C21.2396 0.630974 21.0324 0.902898 20.9096 1.2151L19.92 3.6727C18.719 4.00807 17.5637 4.48953 16.48 5.1063L14.044 4.0663C13.7346 3.92801 13.3922 3.88031 13.0568 3.92874C12.7213 3.97717 12.4065 4.11974 12.1488 4.3399C11.3497 5.01301 10.6094 5.75302 9.936 6.5519C9.71977 6.8109 9.57976 7.1249 9.53159 7.45884C9.48342 7.79278 9.52898 8.13354 9.6632 8.4431L10.16 9.5999H4C2.93952 9.60117 1.92285 10.023 1.17298 10.7729C0.423106 11.5227 0.00127029 12.5394 0 13.5999L0 34.3999C0.00127029 35.4604 0.423106 36.4771 1.17298 37.2269C1.92285 37.9768 2.93952 38.3986 4 38.3999H10.16L9.6616 39.5695C9.53017 39.8754 9.48557 40.2115 9.53271 40.541C9.57985 40.8706 9.7169 41.1808 9.9288 41.4375C10.6052 42.2408 11.349 42.9848 12.152 43.6615C12.4094 43.8813 12.7238 44.0238 13.0587 44.0723C13.3937 44.1209 13.7356 44.0736 14.0448 43.9359L16.4832 42.8959C17.5669 43.5127 18.7222 43.9941 19.9232 44.3295L20.9128 46.7935C21.0353 47.1009 21.24 47.3686 21.5046 47.5673C21.7692 47.766 22.0834 47.888 22.4128 47.9199C22.9233 47.9737 23.4363 48.0004 23.9496 47.9999C24.48 47.9999 25.024 47.9751 25.5704 47.9247C25.9052 47.8949 26.2251 47.7725 26.4943 47.5711C26.7635 47.3698 26.9713 47.0975 27.0944 46.7847L28.08 44.3271C29.281 43.9917 30.4363 43.5103 31.52 42.8935L33.956 43.9335C34.2634 44.0712 34.6034 44.1194 34.9369 44.0726C35.2705 44.0257 35.584 43.8857 35.8416 43.6687C36.6419 42.9905 37.3852 42.2477 38.064 41.4479C38.2802 41.1889 38.4202 40.8749 38.4684 40.541C38.5166 40.207 38.471 39.8663 38.3368 39.5567L37.84 38.3999H44C45.0605 38.3986 46.0772 37.9768 46.827 37.2269C47.5769 36.4771 47.9987 35.4604 48 34.3999V13.5999C47.9987 12.5394 47.5769 11.5227 46.827 10.7729C46.0772 10.023 45.0605 9.60117 44 9.5999ZM11.1408 7.8255C11.1231 7.78718 11.1156 7.74493 11.1191 7.70286C11.1226 7.66079 11.137 7.62036 11.1608 7.5855C11.7798 6.85173 12.4601 6.17194 13.1944 5.5535C13.2263 5.53128 13.2637 5.51826 13.3025 5.51586C13.3413 5.51346 13.38 5.52178 13.4144 5.5399L16.2216 6.7399C16.3381 6.7897 16.4648 6.8111 16.5913 6.80234C16.7177 6.79357 16.8402 6.7549 16.9488 6.6895C18.1153 5.9821 19.381 5.45305 20.704 5.1199C20.8271 5.08921 20.9412 5.02967 21.0367 4.94621C21.1323 4.86275 21.2066 4.75776 21.2536 4.6399L22.3872 1.8151C22.4023 1.77471 22.4283 1.73933 22.4623 1.7129C22.4964 1.68648 22.5371 1.67006 22.58 1.6655C23.5304 1.57502 24.4872 1.57502 25.4376 1.6655C25.4763 1.67192 25.5126 1.68837 25.5429 1.71322C25.5732 1.73807 25.5965 1.77044 25.6104 1.8071L26.7464 4.6399C26.7934 4.75776 26.8677 4.86275 26.9633 4.94621C27.0588 5.02967 27.1729 5.08921 27.296 5.1199C28.6187 5.4518 29.8844 5.97949 31.0512 6.6855C31.1598 6.7509 31.2823 6.78958 31.4087 6.79834C31.5352 6.8071 31.6619 6.7857 31.7784 6.7359L34.588 5.5359C34.6243 5.51778 34.6649 5.51027 34.7052 5.51424C34.7456 5.5182 34.784 5.53347 34.816 5.5583C35.5479 6.18047 36.228 6.86111 36.8496 7.5935C36.8698 7.62664 36.8817 7.66419 36.8842 7.70293C36.8867 7.74166 36.8798 7.78043 36.864 7.8159L36.1032 9.5999H32.1344C29.9249 7.54336 27.0185 6.40004 24 6.40004C20.9815 6.40004 18.0751 7.54336 15.8656 9.5999H11.8968L11.1408 7.8255ZM29.52 9.5999H18.48C20.1319 8.55598 22.0459 8.00188 24 8.00188C25.9541 8.00188 27.8681 8.55598 29.52 9.5999ZM1.6 19.1999H2.4C2.61217 19.1999 2.81566 19.2842 2.96569 19.4342C3.11571 19.5842 3.2 19.7877 3.2 19.9999V27.9999C3.2 28.2121 3.11571 28.4156 2.96569 28.5656C2.81566 28.7156 2.61217 28.7999 2.4 28.7999H1.6V19.1999ZM36.8592 40.1743C36.8767 40.2106 36.8851 40.2507 36.8835 40.291C36.882 40.3313 36.8706 40.3706 36.8504 40.4055C36.2259 41.1419 35.542 41.8258 34.8056 42.4503C34.7737 42.4725 34.7363 42.4855 34.6975 42.4879C34.6587 42.4903 34.62 42.482 34.5856 42.4639L31.7784 41.2639C31.6619 41.2141 31.5352 41.1927 31.4087 41.2015C31.2823 41.2102 31.1598 41.2489 31.0512 41.3143C29.8844 42.0203 28.6187 42.548 27.296 42.8799C27.1729 42.9106 27.0588 42.9701 26.9633 43.0536C26.8677 43.1371 26.7934 43.242 26.7464 43.3599L25.6128 46.1847C25.599 46.2236 25.5747 46.258 25.5427 46.2841C25.5107 46.3102 25.4721 46.327 25.4312 46.3327C24.4771 46.4248 23.5164 46.4248 22.5624 46.3327C22.5237 46.3264 22.4873 46.3099 22.457 46.2851C22.4267 46.2602 22.4034 46.2278 22.3896 46.1911L21.2536 43.3599C21.2066 43.242 21.1323 43.1371 21.0367 43.0536C20.9412 42.9701 20.8271 42.9106 20.704 42.8799C19.3813 42.548 18.1156 42.0203 16.9488 41.3143C16.84 41.2495 16.7175 41.2112 16.5912 41.2024C16.4649 41.1937 16.3383 41.2147 16.2216 41.2639L13.412 42.4639C13.3778 42.4813 13.3395 42.4891 13.3012 42.4866C13.2629 42.484 13.226 42.4712 13.1944 42.4495C12.4565 41.8275 11.7727 41.144 11.1504 40.4063C11.1302 40.3732 11.1183 40.3356 11.1158 40.2969C11.1133 40.2581 11.1202 40.2194 11.136 40.1839L11.8968 38.3999H15.8656C18.0751 40.4564 20.9815 41.5998 24 41.5998C27.0185 41.5998 29.9249 40.4564 32.1344 38.3999H36.1032L36.8592 40.1743ZM18.48 38.3999H29.52C27.8681 39.4438 25.9541 39.9979 24 39.9979C22.0459 39.9979 20.1319 39.4438 18.48 38.3999ZM46.4 34.3999C46.4 35.0364 46.1471 35.6469 45.6971 36.097C45.247 36.547 44.6365 36.7999 44 36.7999H4C3.36348 36.7999 2.75303 36.547 2.30294 36.097C1.85286 35.6469 1.6 35.0364 1.6 34.3999V30.3999H2.4C3.03652 30.3999 3.64697 30.147 4.09706 29.697C4.54714 29.2469 4.8 28.6364 4.8 27.9999V19.9999C4.8 19.3634 4.54714 18.7529 4.09706 18.3028C3.64697 17.8528 3.03652 17.5999 2.4 17.5999H1.6V13.5999C1.6 12.9634 1.85286 12.3529 2.30294 11.9028C2.75303 11.4528 3.36348 11.1999 4 11.1999H44C44.6365 11.1999 45.247 11.4528 45.6971 11.9028C46.1471 12.3529 46.4 12.9634 46.4 13.5999V34.3999Z" fill="#0366FF"/>
<path d="M44 17.6C43.7878 17.6 43.5843 17.6843 43.4343 17.8343C43.2842 17.9843 43.2 18.1878 43.2 18.4V29.6C43.2 29.8122 43.2842 30.0156 43.4343 30.1657C43.5843 30.3157 43.7878 30.4 44 30.4C44.2121 30.4 44.4156 30.3157 44.5656 30.1657C44.7157 30.0156 44.8 29.8122 44.8 29.6V18.4C44.8 18.1878 44.7157 17.9843 44.5656 17.8343C44.4156 17.6843 44.2121 17.6 44 17.6Z" fill="#0366FF"/>
<path d="M28.9624 26H26.0376C25.4645 26 25 26.4645 25 27.0376V29.9624C25 30.5355 25.4645 31 26.0376 31H28.9624C29.5355 31 30 30.5355 30 29.9624V27.0376C30 26.4645 29.5355 26 28.9624 26Z" fill="#0166FF"/>
<path d="M34 16.9987V19.8245C33.9917 20.2602 33.3771 20.3793 33.1776 19.9917L31.7649 17.2391C31.6701 17.0527 31.3954 17.0527 31.2991 17.2391L29.9334 19.9014V23.0646C29.9334 23.5077 29.5654 23.8664 29.111 23.8664H26.2537C25.8016 23.8664 25.4313 24.2274 25.4313 24.6683V26.1981C25.4313 26.6412 25.0634 27 24.6089 27H21.3222C20.8693 27 20.4998 26.642 20.4998 26.1981V24.6683C20.4998 24.2252 20.1318 23.8664 19.6774 23.8664H16.8224C16.3695 23.8664 16 23.5084 16 23.0646V19.86C16 19.4191 16.3702 19.0581 16.8224 19.0581H20.1068C20.562 19.0581 20.9292 19.4184 20.9292 19.86V21.3898C20.9292 21.8336 21.2987 22.1917 21.7517 22.1917H24.1795C24.6339 22.1917 25.0019 21.8329 25.0019 21.3898V19.86C25.0019 19.4191 25.3721 19.0581 25.8243 19.0581H28.1497C28.658 19.0581 29.07 18.6564 29.07 18.1608V16.9964C29.07 16.4461 29.5275 16 30.092 16H32.975C33.5402 16 33.9992 16.4468 33.9992 16.9987H34Z" fill="#0166FF"/>
<path d="M31.8931 19C31.6425 18.8904 31.3575 18.8904 31.1069 19C31.0275 19 30.9759 18.9163 31.0114 18.8453L31.4045 18.059C31.4438 17.9803 31.5562 17.9803 31.5955 18.059L31.9886 18.8453C32.0241 18.9163 31.9725 19 31.8931 19Z" fill="#0366FF"/>
</g>
<defs>
<clipPath id="clip0_85_905">
<rect width="48" height="48" fill="white"/>
</clipPath>
</defs>
</svg>
