<svg width="48" height="48" viewBox="0 0 48 48" fill="none" xmlns="http://www.w3.org/2000/svg">
<g clip-path="url(#clip0_85_887)">
<path d="M4 46.4001H29.0168C30.7266 47.3461 32.6303 47.888 34.582 47.9845C36.5337 48.0809 38.4816 47.7291 40.2763 46.9562C42.0711 46.1834 43.665 45.0098 44.936 43.5256C46.207 42.0413 47.1213 40.2858 47.6088 38.3935C48.0963 36.5012 48.1441 34.5224 47.7485 32.6088C47.3529 30.6952 46.5245 28.8975 45.3266 27.3536C44.1288 25.8098 42.5933 24.5606 40.838 23.702C39.0827 22.8433 37.1541 22.398 35.2 22.4001V7.20005C35.1987 6.13958 34.7769 5.1229 34.027 4.37303C33.2772 3.62316 32.2605 3.20132 31.2 3.20005H22.9776C22.8383 2.95762 22.6377 2.75609 22.3959 2.61567C22.1541 2.47525 21.8796 2.40089 21.6 2.40005H20.6984C20.5211 1.71314 20.1205 1.10464 19.5596 0.670194C18.9988 0.235751 18.3094 0 17.6 0C16.8906 0 16.2012 0.235751 15.6404 0.670194C15.0795 1.10464 14.6789 1.71314 14.5016 2.40005H13.6C13.3204 2.40089 13.0459 2.47525 12.8041 2.61567C12.5623 2.75609 12.3617 2.95762 12.2224 3.20005H4C2.93952 3.20132 1.92285 3.62316 1.17298 4.37303C0.423106 5.1229 0.00127029 6.13958 0 7.20005L0 42.4001C0.00127029 43.4605 0.423106 44.4772 1.17298 45.2271C1.92285 45.9769 2.93952 46.3988 4 46.4001ZM46.4 35.2001C46.4 37.4152 45.7431 39.5806 44.5125 41.4224C43.2818 43.2643 41.5326 44.6998 39.4861 45.5475C37.4395 46.3952 35.1876 46.617 33.015 46.1848C30.8424 45.7527 28.8468 44.686 27.2804 43.1196C25.7141 41.5533 24.6474 39.5577 24.2152 37.3851C23.7831 35.2125 24.0048 32.9605 24.8526 30.914C25.7003 28.8675 27.1358 27.1183 28.9776 25.8876C30.8194 24.6569 32.9848 24.0001 35.2 24.0001C38.1694 24.0032 41.0164 25.1842 43.1161 27.284C45.2158 29.3837 46.3968 32.2306 46.4 35.2001ZM33.6 7.20005V22.5113C33.0605 22.5801 32.5261 22.6837 32 22.8217V8.00005C32 7.57571 31.8314 7.16874 31.5314 6.86868C31.2313 6.56862 30.8243 6.40005 30.4 6.40005H23.2V4.80005H31.2C31.8365 4.80005 32.447 5.05291 32.8971 5.503C33.3471 5.95308 33.6 6.56353 33.6 7.20005ZM22.576 8.00005H30.4V23.3425C28.7009 24.0256 27.1688 25.0665 25.9077 26.3944C24.6466 27.7223 23.6861 29.306 23.0915 31.0381C22.4968 32.7702 22.282 34.6099 22.4615 36.4324C22.6411 38.2549 23.2108 40.0173 24.132 41.6001H4.8V8.00005H12.624C12.8472 8.25072 13.1207 8.45152 13.4267 8.58937C13.7327 8.72721 14.0644 8.799 14.4 8.80005H20.8C21.1356 8.799 21.4673 8.72721 21.7733 8.58937C22.0793 8.45152 22.3528 8.25072 22.576 8.00005ZM13.6 4.00005H15.2C15.4122 4.00005 15.6157 3.91577 15.7657 3.76574C15.9157 3.61571 16 3.41222 16 3.20005C16 2.77571 16.1686 2.36874 16.4686 2.06868C16.7687 1.76862 17.1757 1.60005 17.6 1.60005C18.0243 1.60005 18.4313 1.76862 18.7314 2.06868C19.0314 2.36874 19.2 2.77571 19.2 3.20005C19.2 3.41222 19.2843 3.61571 19.4343 3.76574C19.5843 3.91577 19.7878 4.00005 20 4.00005H21.6V6.40005C21.6 6.61223 21.5157 6.81571 21.3657 6.96574C21.2157 7.11577 21.0122 7.20005 20.8 7.20005H14.4C14.1878 7.20005 13.9843 7.11577 13.8343 6.96574C13.6843 6.81571 13.6 6.61223 13.6 6.40005V4.00005ZM1.6 7.20005C1.6 6.56353 1.85286 5.95308 2.30294 5.503C2.75303 5.05291 3.36348 4.80005 4 4.80005H12V6.40005H4.8C4.37565 6.40005 3.96869 6.56862 3.66863 6.86868C3.36857 7.16874 3.2 7.57571 3.2 8.00005V41.6001C3.2 42.0244 3.36857 42.4314 3.66863 42.7314C3.96869 43.0315 4.37565 43.2001 4.8 43.2001H25.224C25.6898 43.7767 26.2045 44.312 26.7624 44.8001H4C3.36348 44.8001 2.75303 44.5472 2.30294 44.0971C1.85286 43.647 1.6 43.0366 1.6 42.4001V7.20005Z" fill="#0366FF"/>
<path d="M14.6344 10.6344L14.3144 10.9544C13.8896 10.5988 13.354 10.4028 12.8 10.4H8.80002C8.1635 10.4 7.55306 10.6529 7.10297 11.103C6.65288 11.5531 6.40002 12.1635 6.40002 12.8V16.8C6.40002 17.4365 6.65288 18.047 7.10297 18.4971C7.55306 18.9472 8.1635 19.2 8.80002 19.2H12.8C13.4365 19.2 14.047 18.9472 14.4971 18.4971C14.9472 18.047 15.2 17.4365 15.2 16.8V12.8C15.1983 12.6572 15.1838 12.5147 15.1568 12.3744L15.7656 11.7656C15.9114 11.6147 15.992 11.4127 15.9902 11.2029C15.9883 10.9931 15.9042 10.7925 15.7559 10.6442C15.6076 10.4958 15.4069 10.4117 15.1971 10.4099C14.9874 10.4081 14.7853 10.4887 14.6344 10.6344ZM13.6 16.8C13.6 17.0122 13.5157 17.2157 13.3657 17.3657C13.2157 17.5157 13.0122 17.6 12.8 17.6H8.80002C8.58785 17.6 8.38437 17.5157 8.23434 17.3657C8.08431 17.2157 8.00002 17.0122 8.00002 16.8V12.8C8.00002 12.5879 8.08431 12.3844 8.23434 12.2343C8.38437 12.0843 8.58785 12 8.80002 12H12.8C12.9291 12.0026 13.0556 12.0372 13.168 12.1008L11.2 14.0688L10.9656 13.8344C10.8147 13.6887 10.6127 13.6081 10.4029 13.6099C10.1931 13.6117 9.9925 13.6958 9.84417 13.8442C9.69584 13.9925 9.61171 14.1931 9.60989 14.4029C9.60806 14.6127 9.6887 14.8147 9.83442 14.9656L10.6344 15.7656C10.7856 15.9135 10.9886 15.9963 11.2 15.9963C11.4115 15.9963 11.6145 15.9135 11.7656 15.7656L13.6 13.9312V16.8Z" fill="#0366FF"/>
<path d="M14.6344 21.0344L14.3144 21.3544C13.8896 20.9989 13.354 20.8028 12.8 20.8H8.80002C8.1635 20.8 7.55306 21.0529 7.10297 21.503C6.65288 21.9531 6.40002 22.5635 6.40002 23.2V27.2C6.40002 27.8366 6.65288 28.447 7.10297 28.8971C7.55306 29.3472 8.1635 29.6 8.80002 29.6H12.8C13.4365 29.6 14.047 29.3472 14.4971 28.8971C14.9472 28.447 15.2 27.8366 15.2 27.2V23.2C15.1983 23.0572 15.1838 22.9148 15.1568 22.7744L15.7656 22.1656C15.9114 22.0148 15.992 21.8127 15.9902 21.6029C15.9883 21.3932 15.9042 21.1925 15.7559 21.0442C15.6076 20.8959 15.4069 20.8117 15.1971 20.8099C14.9874 20.8081 14.7853 20.8887 14.6344 21.0344ZM13.6 27.2C13.6 27.4122 13.5157 27.6157 13.3657 27.7657C13.2157 27.9158 13.0122 28 12.8 28H8.80002C8.58785 28 8.38437 27.9158 8.23434 27.7657C8.08431 27.6157 8.00002 27.4122 8.00002 27.2V23.2C8.00002 22.9879 8.08431 22.7844 8.23434 22.6344C8.38437 22.4843 8.58785 22.4 8.80002 22.4H12.8C12.9291 22.4026 13.0556 22.4373 13.168 22.5008L11.2 24.4688L10.9656 24.2344C10.8147 24.0887 10.6127 24.0081 10.4029 24.0099C10.1931 24.0117 9.9925 24.0959 9.84417 24.2442C9.69584 24.3925 9.61171 24.5932 9.60989 24.8029C9.60806 25.0127 9.6887 25.2148 9.83442 25.3656L10.6344 26.1656C10.7856 26.3135 10.9886 26.3963 11.2 26.3963C11.4115 26.3963 11.6145 26.3135 11.7656 26.1656L13.6 24.3312V27.2Z" fill="#0366FF"/>
<path d="M14.6344 31.4344L14.3144 31.7544C13.8896 31.3988 13.354 31.2027 12.8 31.2H8.80002C8.1635 31.2 7.55306 31.4528 7.10297 31.9029C6.65288 32.353 6.40002 32.9634 6.40002 33.6V37.6C6.40002 38.2365 6.65288 38.8469 7.10297 39.297C7.55306 39.7471 8.1635 40 8.80002 40H12.8C13.4365 40 14.047 39.7471 14.4971 39.297C14.9472 38.8469 15.2 38.2365 15.2 37.6V33.6C15.1983 33.4571 15.1838 33.3147 15.1568 33.1744L15.7656 32.5656C15.9114 32.4147 15.992 32.2126 15.9902 32.0028C15.9883 31.7931 15.9042 31.5924 15.7559 31.4441C15.6076 31.2958 15.4069 31.2116 15.1971 31.2098C14.9874 31.208 14.7853 31.2886 14.6344 31.4344ZM13.6 37.6C13.6 37.8121 13.5157 38.0156 13.3657 38.1656C13.2157 38.3157 13.0122 38.4 12.8 38.4H8.80002C8.58785 38.4 8.38437 38.3157 8.23434 38.1656C8.08431 38.0156 8.00002 37.8121 8.00002 37.6V33.6C8.00002 33.3878 8.08431 33.1843 8.23434 33.0343C8.38437 32.8842 8.58785 32.8 8.80002 32.8H12.8C12.9291 32.8025 13.0556 32.8372 13.168 32.9008L11.2 34.8688L10.9656 34.6344C10.8147 34.4886 10.6127 34.408 10.4029 34.4098C10.1931 34.4116 9.9925 34.4958 9.84417 34.6441C9.69584 34.7924 9.61171 34.9931 9.60989 35.2028C9.60806 35.4126 9.6887 35.6147 9.83442 35.7656L10.6344 36.5656C10.7856 36.7134 10.9886 36.7962 11.2 36.7962C11.4115 36.7962 11.6145 36.7134 11.7656 36.5656L13.6 34.7312V37.6Z" fill="#0366FF"/>
<path d="M30.9656 37.8343C30.8148 37.6886 30.6127 37.608 30.4029 37.6098C30.1932 37.6116 29.9925 37.6958 29.8442 37.8441C29.6959 37.9924 29.6117 38.1931 29.6099 38.4028C29.6081 38.6126 29.6887 38.8147 29.8344 38.9656L31.4344 40.5656C31.5085 40.6401 31.5967 40.6992 31.6937 40.7394C31.7908 40.7797 31.8949 40.8002 32 40.8H32.036C32.1471 40.7948 32.2559 40.7667 32.3556 40.7174C32.4553 40.6681 32.5437 40.5987 32.6152 40.5135L40.6152 30.9135C40.6826 30.8328 40.7333 30.7395 40.7646 30.6391C40.7959 30.5387 40.8072 30.4331 40.7977 30.3283C40.7881 30.2236 40.7581 30.1218 40.7092 30.0286C40.6604 29.9355 40.5936 29.8529 40.5128 29.7855C40.432 29.7182 40.3388 29.6674 40.2384 29.6361C40.138 29.6048 40.0324 29.5936 39.9276 29.6031C39.8229 29.6126 39.721 29.6427 39.6279 29.6916C39.5348 29.7404 39.4522 29.8072 39.3848 29.888L31.9448 38.816L30.9656 37.8343Z" fill="#0366FF"/>
<path d="M17.6 12.8C17.6 13.0122 17.6843 13.2157 17.8343 13.3657C17.9843 13.5157 18.1878 13.6 18.4 13.6H27.2C27.4121 13.6 27.6156 13.5157 27.7657 13.3657C27.9157 13.2157 28 13.0122 28 12.8C28 12.5878 27.9157 12.3843 27.7657 12.2343C27.6156 12.0843 27.4121 12 27.2 12H18.4C18.1878 12 17.9843 12.0843 17.8343 12.2343C17.6843 12.3843 17.6 12.5878 17.6 12.8Z" fill="#0366FF"/>
<path d="M18.4 17.6H24C24.2121 17.6 24.4156 17.5157 24.5657 17.3657C24.7157 17.2157 24.8 17.0122 24.8 16.8C24.8 16.5878 24.7157 16.3843 24.5657 16.2343C24.4156 16.0843 24.2121 16 24 16H18.4C18.1878 16 17.9843 16.0843 17.8343 16.2343C17.6843 16.3843 17.6 16.5878 17.6 16.8C17.6 17.0122 17.6843 17.2157 17.8343 17.3657C17.9843 17.5157 18.1878 17.6 18.4 17.6Z" fill="#0366FF"/>
<path d="M26.4 22.4H18.4C18.1878 22.4 17.9843 22.4843 17.8343 22.6343C17.6843 22.7844 17.6 22.9879 17.6 23.2C17.6 23.4122 17.6843 23.6157 17.8343 23.7657C17.9843 23.9157 18.1878 24 18.4 24H26.4C26.6121 24 26.8156 23.9157 26.9657 23.7657C27.1157 23.6157 27.2 23.4122 27.2 23.2C27.2 22.9879 27.1157 22.7844 26.9657 22.6343C26.8156 22.4843 26.6121 22.4 26.4 22.4Z" fill="#0366FF"/>
<path d="M22.4 26.4H18.4C18.1878 26.4 17.9843 26.4843 17.8343 26.6343C17.6843 26.7844 17.6 26.9879 17.6 27.2C17.6 27.4122 17.6843 27.6157 17.8343 27.7657C17.9843 27.9157 18.1878 28 18.4 28H22.4C22.6121 28 22.8156 27.9157 22.9657 27.7657C23.1157 27.6157 23.2 27.4122 23.2 27.2C23.2 26.9879 23.1157 26.7844 22.9657 26.6343C22.8156 26.4843 22.6121 26.4 22.4 26.4Z" fill="#0366FF"/>
<path d="M18.4 34.4H20C20.2121 34.4 20.4156 34.3158 20.5657 34.1657C20.7157 34.0157 20.8 33.8122 20.8 33.6C20.8 33.3879 20.7157 33.1844 20.5657 33.0344C20.4156 32.8843 20.2121 32.8 20 32.8H18.4C18.1878 32.8 17.9843 32.8843 17.8343 33.0344C17.6843 33.1844 17.6 33.3879 17.6 33.6C17.6 33.8122 17.6843 34.0157 17.8343 34.1657C17.9843 34.3158 18.1878 34.4 18.4 34.4Z" fill="#0366FF"/>
<path d="M20.8 36.8H18.4C18.1878 36.8 17.9843 36.8843 17.8343 37.0344C17.6843 37.1844 17.6 37.3879 17.6 37.6C17.6 37.8122 17.6843 38.0157 17.8343 38.1657C17.9843 38.3158 18.1878 38.4 18.4 38.4H20.8C21.0121 38.4 21.2156 38.3158 21.3657 38.1657C21.5157 38.0157 21.6 37.8122 21.6 37.6C21.6 37.3879 21.5157 37.1844 21.3657 37.0344C21.2156 36.8843 21.0121 36.8 20.8 36.8Z" fill="#0366FF"/>
</g>
<defs>
<clipPath id="clip0_85_887">
<rect width="48" height="48" fill="white"/>
</clipPath>
</defs>
</svg>
