<svg width="48" height="48" viewBox="0 0 48 48" fill="none" xmlns="http://www.w3.org/2000/svg">
<g clip-path="url(#clip0_84_739)">
<path d="M44 3.2H42.4V2.4C42.4 1.76348 42.1471 1.15303 41.6971 0.702944C41.247 0.252856 40.6365 1.01152e-07 40 1.01152e-07C39.3635 1.01152e-07 38.753 0.252856 38.3029 0.702944C37.8529 1.15303 37.6 1.76348 37.6 2.4V3.2H34.4V2.4C34.4 1.76348 34.1471 1.15303 33.6971 0.702944C33.247 0.252856 32.6365 0 32 0C31.3635 0 30.753 0.252856 30.3029 0.702944C29.8529 1.15303 29.6 1.76348 29.6 2.4V3.2H26.4V2.4C26.4 1.76348 26.1471 1.15303 25.6971 0.702944C25.247 0.252856 24.6365 0 24 0C23.3635 0 22.753 0.252856 22.3029 0.702944C21.8529 1.15303 21.6 1.76348 21.6 2.4V3.2H18.4V2.4C18.4 1.76348 18.1471 1.15303 17.6971 0.702944C17.247 0.252856 16.6365 0 16 0C15.3635 0 14.753 0.252856 14.3029 0.702944C13.8529 1.15303 13.6 1.76348 13.6 2.4V3.2H10.4V2.4C10.4 1.76348 10.1471 1.15303 9.69706 0.702944C9.24697 0.252856 8.63652 0 8 0C7.36348 0 6.75303 0.252856 6.30294 0.702944C5.85286 1.15303 5.6 1.76348 5.6 2.4V3.2H4C2.93952 3.20127 1.92285 3.62311 1.17298 4.37298C0.423106 5.12285 0.00127029 6.13952 0 7.2L0 44C0.00127029 45.0605 0.423106 46.0772 1.17298 46.827C1.92285 47.5769 2.93952 47.9987 4 48H44C45.0605 47.9987 46.0772 47.5769 46.827 46.827C47.5769 46.0772 47.9987 45.0605 48 44V7.2C47.9987 6.13952 47.5769 5.12285 46.827 4.37298C46.0772 3.62311 45.0605 3.20127 44 3.2ZM39.2 2.4C39.2 2.18783 39.2843 1.98434 39.4343 1.83431C39.5843 1.68429 39.7878 1.6 40 1.6C40.2122 1.6 40.4157 1.68429 40.5657 1.83431C40.7157 1.98434 40.8 2.18783 40.8 2.4V5.6C40.8 5.81217 40.7157 6.01566 40.5657 6.16569C40.4157 6.31571 40.2122 6.4 40 6.4C39.7878 6.4 39.5843 6.31571 39.4343 6.16569C39.2843 6.01566 39.2 5.81217 39.2 5.6V2.4ZM31.2 2.4C31.2 2.18783 31.2843 1.98434 31.4343 1.83431C31.5843 1.68429 31.7878 1.6 32 1.6C32.2122 1.6 32.4157 1.68429 32.5657 1.83431C32.7157 1.98434 32.8 2.18783 32.8 2.4V5.6C32.8 5.81217 32.7157 6.01566 32.5657 6.16569C32.4157 6.31571 32.2122 6.4 32 6.4C31.7878 6.4 31.5843 6.31571 31.4343 6.16569C31.2843 6.01566 31.2 5.81217 31.2 5.6V2.4ZM23.2 2.4C23.2 2.18783 23.2843 1.98434 23.4343 1.83431C23.5843 1.68429 23.7878 1.6 24 1.6C24.2122 1.6 24.4157 1.68429 24.5657 1.83431C24.7157 1.98434 24.8 2.18783 24.8 2.4V5.6C24.8 5.81217 24.7157 6.01566 24.5657 6.16569C24.4157 6.31571 24.2122 6.4 24 6.4C23.7878 6.4 23.5843 6.31571 23.4343 6.16569C23.2843 6.01566 23.2 5.81217 23.2 5.6V2.4ZM15.2 2.4C15.2 2.18783 15.2843 1.98434 15.4343 1.83431C15.5843 1.68429 15.7878 1.6 16 1.6C16.2122 1.6 16.4157 1.68429 16.5657 1.83431C16.7157 1.98434 16.8 2.18783 16.8 2.4V5.6C16.8 5.81217 16.7157 6.01566 16.5657 6.16569C16.4157 6.31571 16.2122 6.4 16 6.4C15.7878 6.4 15.5843 6.31571 15.4343 6.16569C15.2843 6.01566 15.2 5.81217 15.2 5.6V2.4ZM7.2 2.4C7.2 2.18783 7.28429 1.98434 7.43431 1.83431C7.58434 1.68429 7.78783 1.6 8 1.6C8.21217 1.6 8.41566 1.68429 8.56569 1.83431C8.71571 1.98434 8.8 2.18783 8.8 2.4V5.6C8.8 5.81217 8.71571 6.01566 8.56569 6.16569C8.41566 6.31571 8.21217 6.4 8 6.4C7.78783 6.4 7.58434 6.31571 7.43431 6.16569C7.28429 6.01566 7.2 5.81217 7.2 5.6V2.4ZM4 4.8H5.6V5.6C5.6 6.23652 5.85286 6.84697 6.30294 7.29706C6.75303 7.74714 7.36348 8 8 8C8.63652 8 9.24697 7.74714 9.69706 7.29706C10.1471 6.84697 10.4 6.23652 10.4 5.6V4.8H13.6V5.6C13.6 6.23652 13.8529 6.84697 14.3029 7.29706C14.753 7.74714 15.3635 8 16 8C16.6365 8 17.247 7.74714 17.6971 7.29706C18.1471 6.84697 18.4 6.23652 18.4 5.6V4.8H21.6V5.6C21.6 6.23652 21.8529 6.84697 22.3029 7.29706C22.753 7.74714 23.3635 8 24 8C24.6365 8 25.247 7.74714 25.6971 7.29706C26.1471 6.84697 26.4 6.23652 26.4 5.6V4.8H29.6V5.6C29.6 6.23652 29.8529 6.84697 30.3029 7.29706C30.753 7.74714 31.3635 8 32 8C32.6365 8 33.247 7.74714 33.6971 7.29706C34.1471 6.84697 34.4 6.23652 34.4 5.6V4.8H37.6V5.6C37.6 6.23652 37.8529 6.84697 38.3029 7.29706C38.753 7.74714 39.3635 8 40 8C40.6365 8 41.247 7.74714 41.6971 7.29706C42.1471 6.84697 42.4 6.23652 42.4 5.6V4.8H44C44.6365 4.8 45.247 5.05286 45.6971 5.50294C46.1471 5.95303 46.4 6.56348 46.4 7.2V9.6H1.6V7.2C1.6 6.56348 1.85286 5.95303 2.30294 5.50294C2.75303 5.05286 3.36348 4.8 4 4.8ZM1.6 44V11.2H46.4V36H41.6C40.1154 36.0019 38.6921 36.5925 37.6423 37.6423C36.5925 38.6921 36.0019 40.1154 36 41.6V46.4H4C3.36348 46.4 2.75303 46.1471 2.30294 45.6971C1.85286 45.247 1.6 44.6365 1.6 44ZM45.2688 37.6L37.6 45.2688V41.6C37.6013 40.5395 38.0231 39.5228 38.773 38.773C39.5228 38.0231 40.5395 37.6013 41.6 37.6H45.2688ZM44 46.4H38.7312L46.4 38.7312V44C46.4 44.6365 46.1471 45.247 45.6971 45.6971C45.247 46.1471 44.6365 46.4 44 46.4Z" fill="#0366FF"/>
<path d="M12 14.4H7.19998C6.77563 14.4 6.36866 14.5686 6.0686 14.8687C5.76855 15.1687 5.59998 15.5757 5.59998 16V20.8C5.59998 21.2244 5.76855 21.6313 6.0686 21.9314C6.36866 22.2315 6.77563 22.4 7.19998 22.4H12C12.4243 22.4 12.8313 22.2315 13.1313 21.9314C13.4314 21.6313 13.6 21.2244 13.6 20.8V16C13.6 15.5757 13.4314 15.1687 13.1313 14.8687C12.8313 14.5686 12.4243 14.4 12 14.4ZM7.19998 20.8V16H12V20.8H7.19998Z" fill="#0366FF"/>
<path d="M21.6 14.4H16.8C16.3756 14.4 15.9686 14.5686 15.6686 14.8687C15.3685 15.1687 15.2 15.5757 15.2 16V20.8C15.2 21.2244 15.3685 21.6313 15.6686 21.9314C15.9686 22.2315 16.3756 22.4 16.8 22.4H21.6C22.0243 22.4 22.4313 22.2315 22.7313 21.9314C23.0314 21.6313 23.2 21.2244 23.2 20.8V16C23.2 15.5757 23.0314 15.1687 22.7313 14.8687C22.4313 14.5686 22.0243 14.4 21.6 14.4ZM16.8 20.8V16H21.6V20.8H16.8Z" fill="#0366FF"/>
<path d="M31.2 14.4H26.4C25.9757 14.4 25.5687 14.5686 25.2687 14.8687C24.9686 15.1687 24.8 15.5757 24.8 16V20.8C24.8 21.2244 24.9686 21.6313 25.2687 21.9314C25.5687 22.2315 25.9757 22.4 26.4 22.4H31.2C31.6244 22.4 32.0314 22.2315 32.3314 21.9314C32.6315 21.6313 32.8 21.2244 32.8 20.8V16C32.8 15.5757 32.6315 15.1687 32.3314 14.8687C32.0314 14.5686 31.6244 14.4 31.2 14.4ZM26.4 20.8V16H31.2V20.8H26.4Z" fill="#0366FF"/>
<path d="M36 22.4H40.8C41.2244 22.4 41.6313 22.2315 41.9314 21.9314C42.2315 21.6313 42.4 21.2244 42.4 20.8V16C42.4 15.5757 42.2315 15.1687 41.9314 14.8687C41.6313 14.5686 41.2244 14.4 40.8 14.4H36C35.5757 14.4 35.1687 14.5686 34.8687 14.8687C34.5686 15.1687 34.4 15.5757 34.4 16V20.8C34.4 21.2244 34.5686 21.6313 34.8687 21.9314C35.1687 22.2315 35.5757 22.4 36 22.4ZM36 16H40.8V20.8H36V16Z" fill="#0366FF"/>
<path d="M12 24.8H7.19998C6.77563 24.8 6.36866 24.9686 6.0686 25.2686C5.76855 25.5687 5.59998 25.9756 5.59998 26.4V31.2C5.59998 31.6243 5.76855 32.0313 6.0686 32.3314C6.36866 32.6314 6.77563 32.8 7.19998 32.8H12C12.4243 32.8 12.8313 32.6314 13.1313 32.3314C13.4314 32.0313 13.6 31.6243 13.6 31.2V26.4C13.6 25.9756 13.4314 25.5687 13.1313 25.2686C12.8313 24.9686 12.4243 24.8 12 24.8ZM7.19998 31.2V26.4H12V31.2H7.19998Z" fill="#0366FF"/>
<path d="M21.6 24.8H16.8C16.3756 24.8 15.9686 24.9686 15.6686 25.2686C15.3685 25.5687 15.2 25.9756 15.2 26.4V31.2C15.2 31.6243 15.3685 32.0313 15.6686 32.3314C15.9686 32.6314 16.3756 32.8 16.8 32.8H21.6C22.0243 32.8 22.4313 32.6314 22.7313 32.3314C23.0314 32.0313 23.2 31.6243 23.2 31.2V26.4C23.2 25.9756 23.0314 25.5687 22.7313 25.2686C22.4313 24.9686 22.0243 24.8 21.6 24.8ZM16.8 31.2V26.4H21.6V31.2H16.8Z" fill="#0366FF"/>
<path d="M31.2 24.8H26.4C25.9757 24.8 25.5687 24.9686 25.2687 25.2686C24.9686 25.5687 24.8 25.9756 24.8 26.4V31.2C24.8 31.6243 24.9686 32.0313 25.2687 32.3314C25.5687 32.6314 25.9757 32.8 26.4 32.8H31.2C31.6244 32.8 32.0314 32.6314 32.3314 32.3314C32.6315 32.0313 32.8 31.6243 32.8 31.2V26.4C32.8 25.9756 32.6315 25.5687 32.3314 25.2686C32.0314 24.9686 31.6244 24.8 31.2 24.8ZM26.4 31.2V26.4H31.2V31.2H26.4Z" fill="#0366FF"/>
<path d="M36 32.8H40.8C41.2244 32.8 41.6313 32.6314 41.9314 32.3314C42.2315 32.0313 42.4 31.6243 42.4 31.2V26.4C42.4 25.9756 42.2315 25.5687 41.9314 25.2686C41.6313 24.9686 41.2244 24.8 40.8 24.8H36C35.5757 24.8 35.1687 24.9686 34.8687 25.2686C34.5686 25.5687 34.4 25.9756 34.4 26.4V31.2C34.4 31.6243 34.5686 32.0313 34.8687 32.3314C35.1687 32.6314 35.5757 32.8 36 32.8ZM36 26.4H40.8V31.2H36V26.4Z" fill="#0366FF"/>
<path d="M12 35.2H7.19998C6.77563 35.2 6.36866 35.3686 6.0686 35.6686C5.76855 35.9687 5.59998 36.3757 5.59998 36.8V41.6C5.59998 42.0244 5.76855 42.4313 6.0686 42.7314C6.36866 43.0314 6.77563 43.2 7.19998 43.2H12C12.4243 43.2 12.8313 43.0314 13.1313 42.7314C13.4314 42.4313 13.6 42.0244 13.6 41.6V36.8C13.6 36.3757 13.4314 35.9687 13.1313 35.6686C12.8313 35.3686 12.4243 35.2 12 35.2ZM7.19998 41.6V36.8H12V41.6H7.19998Z" fill="#0366FF"/>
<path d="M21.6 35.2H16.8C16.3756 35.2 15.9686 35.3686 15.6686 35.6686C15.3685 35.9687 15.2 36.3757 15.2 36.8V41.6C15.2 42.0244 15.3685 42.4313 15.6686 42.7314C15.9686 43.0314 16.3756 43.2 16.8 43.2H21.6C22.0243 43.2 22.4313 43.0314 22.7313 42.7314C23.0314 42.4313 23.2 42.0244 23.2 41.6V36.8C23.2 36.3757 23.0314 35.9687 22.7313 35.6686C22.4313 35.3686 22.0243 35.2 21.6 35.2ZM16.8 41.6V36.8H21.6V41.6H16.8Z" fill="#0366FF"/>
<path d="M31.2 35.2H26.4C25.9757 35.2 25.5687 35.3686 25.2687 35.6686C24.9686 35.9687 24.8 36.3757 24.8 36.8V41.6C24.8 42.0244 24.9686 42.4313 25.2687 42.7314C25.5687 43.0314 25.9757 43.2 26.4 43.2H31.2C31.6244 43.2 32.0314 43.0314 32.3314 42.7314C32.6315 42.4313 32.8 42.0244 32.8 41.6V36.8C32.8 36.3757 32.6315 35.9687 32.3314 35.6686C32.0314 35.3686 31.6244 35.2 31.2 35.2ZM26.4 41.6V36.8H31.2V41.6H26.4Z" fill="#0366FF"/>
</g>
<defs>
<clipPath id="clip0_84_739">
<rect width="48" height="48" fill="white"/>
</clipPath>
</defs>
</svg>
