<svg width="48" height="48" viewBox="0 0 48 48" fill="none" xmlns="http://www.w3.org/2000/svg">
<g clip-path="url(#clip0_84_789)">
<path d="M35.2 21.9072V9.6C35.2 9.3872 35.116 9.184 34.9656 9.0344L26.1656 0.2344C26.016 0.084 25.8128 0 25.6 0H4C1.7944 0 0 1.7944 0 4V44C0 46.2056 1.7944 48 4 48H31.2C32.5656 48 33.8016 47.3056 34.524 46.2176L34.7928 46.4864C35.2472 46.9464 35.8536 47.2 36.4992 47.2C37.1448 47.2 37.7496 46.9464 38.2008 46.4896L47.2864 37.404C47.7456 36.9496 47.9992 36.3448 47.9992 35.7C47.9992 35.0552 47.7464 34.448 47.2888 33.996L35.2 21.9072ZM26.4 2.7312L32.4688 8.8H26.4V2.7312ZM31.2 46.4H4C2.6768 46.4 1.6 45.3232 1.6 44V4C1.6 2.6768 2.6768 1.6 4 1.6H24.8V8.8C24.8 9.6824 25.5176 10.4 26.4 10.4H33.6V20.3072L33.204 19.9112C32.7192 19.4264 32.052 19.172 31.3744 19.2032L22.74 19.6608C22.412 19.6768 22.104 19.7608 21.8248 19.8936L21.3656 19.4344C21.0528 19.1216 20.5472 19.1216 20.2344 19.4344C19.9216 19.7472 19.9216 20.2528 20.2344 20.5656L20.6928 21.024C20.5608 21.3032 20.4768 21.6096 20.4608 21.9368L20.0032 30.5744C19.968 31.252 20.2256 31.9192 20.7112 32.404L33.3528 45.0464C32.9648 45.86 32.1344 46.4008 31.2008 46.4008L31.2 46.4ZM46.1616 36.2664C46.1616 36.2664 46.1592 36.2688 46.1584 36.2704L37.0664 45.3616C36.916 45.5152 36.7144 45.6 36.4992 45.6C36.284 45.6 36.0824 45.516 35.9272 45.3584L21.8424 31.2728C21.6776 31.108 21.5896 30.884 21.6016 30.6584L22.0408 22.372L24.3472 24.6784C23.7824 25.7344 23.9304 27.0808 24.82 27.9808C25.3632 28.5248 26.0792 28.7968 26.7968 28.7968C27.5144 28.7968 28.2296 28.5256 28.7784 27.984C28.7808 27.9824 28.7832 27.98 28.7848 27.9776C29.8688 26.88 29.868 25.1048 28.7784 24.0168C27.88 23.1288 26.5344 22.9816 25.4784 23.5472L23.1728 21.2416L31.4592 20.8024C31.4728 20.8024 31.4864 20.8008 31.5 20.8008C31.7112 20.8008 31.9176 20.8872 32.0736 21.0432L46.1624 35.1312C46.316 35.2832 46.4008 35.4848 46.4008 35.7C46.4008 35.9152 46.3168 36.1168 46.1624 36.2672L46.1616 36.2664ZM26 26C26.2048 26 26.4096 25.9216 26.5656 25.7656C26.8224 25.5088 26.856 25.1264 26.6912 24.8232C26.7272 24.82 26.7616 24.8024 26.7976 24.8024C27.1056 24.8024 27.4144 24.9192 27.6488 25.1512C28.1136 25.6152 28.1128 26.376 27.6488 26.8496C27.1744 27.3144 26.4152 27.3144 25.9536 26.8528C25.692 26.588 25.592 26.2352 25.6232 25.8912C25.7416 25.956 25.868 26 26 26Z" fill="#0366FF"/>
<path d="M12 4H5.6C5.17565 4 4.76869 4.16857 4.46863 4.46863C4.16857 4.76869 4 5.17565 4 5.6V8.8C4 9.22435 4.16857 9.63131 4.46863 9.93137C4.76869 10.2314 5.17565 10.4 5.6 10.4H12C12.4243 10.4 12.8313 10.2314 13.1314 9.93137C13.4314 9.63131 13.6 9.22435 13.6 8.8V5.6C13.6 5.17565 13.4314 4.76869 13.1314 4.46863C12.8313 4.16857 12.4243 4 12 4ZM5.6 8.8V5.6H12V8.8H5.6Z" fill="#0366FF"/>
<path d="M28.2 14H4.8C4.58783 14 4.38434 14.0843 4.23431 14.2343C4.08428 14.3843 4 14.5878 4 14.8C4 15.0122 4.08428 15.2157 4.23431 15.3657C4.38434 15.5157 4.58783 15.6 4.8 15.6H28.2C28.4122 15.6 28.6157 15.5157 28.7657 15.3657C28.9157 15.2157 29 15.0122 29 14.8C29 14.5878 28.9157 14.3843 28.7657 14.2343C28.6157 14.0843 28.4122 14 28.2 14Z" fill="#0366FF"/>
<path d="M6.0006 32.1756C6.3483 32.1756 6.65709 32.2427 6.92695 32.3769C7.1994 32.5112 7.41347 32.7086 7.56916 32.9692C7.72485 33.2298 7.80269 33.5509 7.80269 33.9326C7.80269 34.3485 7.71707 34.7078 7.54581 35.0105C7.37715 35.3106 7.12415 35.5409 6.78683 35.7015C6.4521 35.862 6.03433 35.9423 5.53353 35.9423C5.23513 35.9423 4.95359 35.916 4.68892 35.8633C4.42685 35.8133 4.19721 35.7357 4 35.6304V34.5762C4.19721 34.6815 4.43333 34.771 4.70838 34.8447C4.98603 34.9157 5.24681 34.9513 5.49072 34.9513C5.72944 34.9513 5.93054 34.9197 6.09401 34.8565C6.25748 34.7907 6.38074 34.6907 6.46377 34.5564C6.5494 34.4195 6.59222 34.2458 6.59222 34.0352C6.59222 33.7536 6.4988 33.5377 6.31198 33.3877C6.12515 33.2377 5.83842 33.1626 5.4518 33.1626C5.30389 33.1626 5.1495 33.1771 4.98862 33.2061C4.83034 33.235 4.698 33.264 4.59162 33.2929L4.11287 33.0324L4.32695 30.0908H7.41347V31.1253H5.38174L5.27665 32.2585C5.36487 32.24 5.46088 32.2216 5.56467 32.2032C5.66846 32.1848 5.81377 32.1756 6.0006 32.1756Z" fill="#0366FF"/>
<path d="M12.4383 32.9771C12.4383 33.443 12.402 33.8589 12.3293 34.2248C12.2593 34.5906 12.1451 34.9013 11.9868 35.1566C11.8311 35.4119 11.6261 35.6067 11.3719 35.7409C11.1176 35.8752 10.8088 35.9423 10.4455 35.9423C9.98882 35.9423 9.61387 35.8252 9.32066 35.5909C9.02744 35.354 8.81078 35.0144 8.67066 34.5722C8.53054 34.1274 8.46048 33.5957 8.46048 32.9771C8.46048 32.3532 8.52405 31.8202 8.6512 31.378C8.78094 30.9331 8.99112 30.5923 9.28174 30.3554C9.57236 30.1185 9.96028 30 10.4455 30C10.8996 30 11.2733 30.1185 11.5665 30.3554C11.8623 30.5896 12.0815 30.9292 12.2243 31.374C12.367 31.8163 12.4383 32.3506 12.4383 32.9771ZM9.65539 32.9771C9.65539 33.4167 9.67874 33.7839 9.72545 34.0787C9.77475 34.3709 9.85649 34.5906 9.97066 34.7381C10.0848 34.8855 10.2431 34.9592 10.4455 34.9592C10.6453 34.9592 10.8023 34.8868 10.9165 34.742C11.0332 34.5946 11.1163 34.3748 11.1656 34.0826C11.2149 33.7878 11.2395 33.4193 11.2395 32.9771C11.2395 32.5375 11.2149 32.1703 11.1656 31.8755C11.1163 31.5807 11.0332 31.3596 10.9165 31.2122C10.8023 31.0621 10.6453 30.9871 10.4455 30.9871C10.2431 30.9871 10.0848 31.0621 9.97066 31.2122C9.85649 31.3596 9.77475 31.5807 9.72545 31.8755C9.67874 32.1703 9.65539 32.5375 9.65539 32.9771Z" fill="#0366FF"/>
<path d="M17 32.9771C17 33.443 16.9637 33.8589 16.891 34.2248C16.821 34.5906 16.7068 34.9013 16.5485 35.1566C16.3928 35.4119 16.1878 35.6067 15.9335 35.7409C15.6792 35.8752 15.3705 35.9423 15.0072 35.9423C14.5505 35.9423 14.1755 35.8252 13.8823 35.5909C13.5891 35.354 13.3725 35.0144 13.2323 34.5722C13.0922 34.1274 13.0222 33.5957 13.0222 32.9771C13.0222 32.3532 13.0857 31.8202 13.2129 31.378C13.3426 30.9331 13.5528 30.5923 13.8434 30.3554C14.134 30.1185 14.522 30 15.0072 30C15.4613 30 15.8349 30.1185 16.1281 30.3554C16.424 30.5896 16.6432 30.9292 16.7859 31.374C16.9286 31.8163 17 32.3506 17 32.9771ZM14.2171 32.9771C14.2171 33.4167 14.2404 33.7839 14.2871 34.0787C14.3364 34.3709 14.4182 34.5906 14.5323 34.7381C14.6465 34.8855 14.8048 34.9592 15.0072 34.9592C15.207 34.9592 15.364 34.8868 15.4781 34.742C15.5949 34.5946 15.6779 34.3748 15.7272 34.0826C15.7765 33.7878 15.8012 33.4193 15.8012 32.9771C15.8012 32.5375 15.7765 32.1703 15.7272 31.8755C15.6779 31.5807 15.5949 31.3596 15.4781 31.2122C15.364 31.0621 15.207 30.9871 15.0072 30.9871C14.8048 30.9871 14.6465 31.0621 14.5323 31.2122C14.4182 31.3596 14.3364 31.5807 14.2871 31.8755C14.2404 32.1703 14.2171 32.5375 14.2171 32.9771Z" fill="#0366FF"/>
<path d="M6.60389 43L5.23383 38.4712H5.1988C5.20399 38.5791 5.21178 38.7423 5.22216 38.9608C5.23513 39.1767 5.24681 39.407 5.25719 39.6518C5.26756 39.8966 5.27275 40.1177 5.27275 40.3151V43H4.19461V37.2275H5.83713L7.18383 41.6418H7.20719L8.63563 37.2275H10.2781V43H9.15329V40.2677C9.15329 40.0861 9.15589 39.8768 9.16108 39.6399C9.16886 39.403 9.17794 39.178 9.18832 38.9648C9.1987 38.7489 9.20649 38.587 9.21168 38.4791H9.17665L7.70928 43H6.60389Z" fill="#0366FF"/>
<path d="M11.7144 37.2275H13.4853C14.243 37.2275 14.8165 37.3354 15.2057 37.5512C15.5949 37.7671 15.7895 38.1461 15.7895 38.6884C15.7895 38.9069 15.7545 39.1043 15.6844 39.2806C15.617 39.457 15.5184 39.6018 15.3886 39.715C15.2589 39.8281 15.1006 39.9018 14.9138 39.9361V39.9755C15.1032 40.015 15.2745 40.0835 15.4275 40.1809C15.5806 40.2756 15.7026 40.4151 15.7934 40.5994C15.8868 40.781 15.9335 41.0232 15.9335 41.3259C15.9335 41.676 15.8492 41.9761 15.6805 42.2261C15.5119 42.4762 15.2706 42.6683 14.9566 42.8026C14.6452 42.9342 14.2742 43 13.8434 43H11.7144V37.2275ZM12.921 39.5136H13.6216C13.9719 39.5136 14.2145 39.4583 14.3494 39.3478C14.4843 39.2346 14.5518 39.0687 14.5518 38.8503C14.5518 38.6291 14.4714 38.4712 14.3105 38.3765C14.1522 38.2791 13.9005 38.2304 13.5554 38.2304H12.921V39.5136ZM12.921 40.4849V41.9892H13.7072C14.0705 41.9892 14.3235 41.9181 14.4662 41.776C14.6089 41.6339 14.6802 41.443 14.6802 41.2035C14.6802 41.0613 14.6491 40.9363 14.5868 40.8284C14.5246 40.7205 14.4195 40.6362 14.2716 40.5757C14.1262 40.5152 13.9251 40.4849 13.6683 40.4849H12.921Z" fill="#0366FF"/>
</g>
<defs>
<clipPath id="clip0_84_789">
<rect width="48" height="48" fill="white"/>
</clipPath>
</defs>
</svg>
