<svg width="36" height="36" viewBox="0 0 36 36" fill="none" xmlns="http://www.w3.org/2000/svg">
<path d="M16.4336 28.6237C16.6646 28.7419 16.9136 28.8001 17.1614 28.8001C17.4866 28.8001 17.81 28.6993 18.0854 28.5013L20.9672 26.4241C21.3692 26.1343 21.6002 25.6879 21.6002 25.2001C21.6002 24.7123 21.3692 24.2659 20.9672 23.9761L18.0848 21.8989C17.6 21.5497 16.967 21.5023 16.4336 21.7765C15.9194 22.0399 15.5996 22.5565 15.5996 23.1235V27.2767C15.5996 27.8437 15.9188 28.3603 16.4336 28.6237ZM16.7996 23.1235C16.7996 22.9609 16.913 22.8793 16.9808 22.8445C17.009 22.8301 17.078 22.8001 17.165 22.8001C17.2304 22.8001 17.3072 22.8175 17.3834 22.8727L20.2652 24.9499C20.3822 25.0345 20.4002 25.1425 20.4002 25.2001C20.4002 25.2577 20.3828 25.3657 20.2652 25.4503L17.384 27.5275C17.207 27.6547 17.0306 27.5815 16.9808 27.5557C16.9136 27.5209 16.7996 27.4393 16.7996 27.2767V23.1235Z" fill="#0366FF"/>
<path d="M31.1998 7.2C31.1998 7.0404 31.1368 6.888 31.024 6.7758L24.424 0.1758C24.3118 0.063 24.1594 0 23.9998 0H7.7998C6.1456 0 4.7998 1.3458 4.7998 3V33C4.7998 34.6542 6.1456 36 7.7998 36H28.1998C29.854 36 31.1998 34.6542 31.1998 33V7.2ZM24.5998 2.0484L29.1514 6.6H24.5998V2.0484ZM28.1998 34.8H7.7998C6.8074 34.8 5.9998 33.9924 5.9998 33V3C5.9998 2.0076 6.8074 1.2 7.7998 1.2H23.3998V6.6C23.3998 7.2618 23.938 7.8 24.5998 7.8H29.9998V33C29.9998 33.9924 29.1922 34.8 28.1998 34.8Z" fill="#0366FF"/>
<path d="M26.3999 18.0001H15.0677L26.1815 15.7807C26.1815 15.7807 26.1833 15.7807 26.1839 15.7807C26.8319 15.6481 27.2513 15.0133 27.1199 14.3677L26.6519 12.0127C26.5187 11.3623 25.8827 10.9351 25.2383 11.0707L8.75989 14.3653C8.11189 14.4979 7.69249 15.1327 7.82389 15.7783L8.39989 18.6601V30.6007C8.39989 31.5931 9.20749 32.4007 10.1999 32.4007H25.7999C26.7923 32.4007 27.5999 31.5931 27.5999 30.6007V19.2007C27.5999 18.5389 27.0617 18.0001 26.3999 18.0001ZM18.3521 16.1209L15.8753 16.6153L16.3811 14.0653L18.8615 13.5697L18.3515 16.1203L18.3521 16.1209ZM20.1365 13.3159L22.6187 12.8203L22.1087 15.3709L19.6265 15.8665L20.1365 13.3159ZM14.6021 16.8703L12.1187 17.3665L12.6245 14.8165L15.1079 14.3203L14.6021 16.8703ZM25.4759 12.2497L25.9427 14.6053L23.3831 15.1165L23.8931 12.5659L25.4759 12.2497ZM11.3513 15.0709L10.8455 17.6209L9.47089 17.8957L8.99809 15.5413L11.3519 15.0715L11.3513 15.0709ZM26.3999 30.6007C26.3999 30.9319 26.1311 31.2007 25.7999 31.2007H10.1999C9.86869 31.2007 9.59989 30.9319 9.59989 30.6007V19.2007H26.3999V30.6007Z" fill="#0366FF"/>
</svg>
