<svg width="46" height="46" viewBox="0 0 46 46" fill="none" xmlns="http://www.w3.org/2000/svg">
<rect x="0.5" y="0.5" width="45" height="45" rx="22.5" fill="#FBFBFB"/>
<rect x="0.5" y="0.5" width="45" height="45" rx="22.5" stroke="#F3F3F3"/>
<path d="M30.5 34H15.5C15.2348 34 14.9804 33.8946 14.7929 33.7071C14.6054 33.5196 14.5 33.2652 14.5 33V13C14.5 12.7348 14.6054 12.4804 14.7929 12.2929C14.9804 12.1054 15.2348 12 15.5 12H28.5V14C28.5 14.2652 28.6054 14.5196 28.7929 14.7071C28.9804 14.8946 29.2348 15 29.5 15H31.5V33C31.5 33.2652 31.3946 33.5196 31.2071 33.7071C31.0196 33.8946 30.7652 34 30.5 34Z" fill="#F3F3F3"/>
<path d="M30.5 15V33C30.5 33.2652 30.3946 33.5196 30.2071 33.7071C30.0196 33.8946 29.7652 34 29.5 34H30.5C30.7652 34 31.0196 33.8946 31.2071 33.7071C31.3946 33.5196 31.5 33.2652 31.5 33V15H30.5Z" fill="#C9C9C9"/>
<path d="M31.5 15H29.5C29.2348 15 28.9804 14.8946 28.7929 14.7071C28.6054 14.5196 28.5 14.2652 28.5 14V12L31.5 15Z" fill="#ABABAB"/>
<path d="M31.5 19.5H14.5C13.9477 19.5 13.5 19.9477 13.5 20.5V27.5C13.5 28.0523 13.9477 28.5 14.5 28.5H31.5C32.0523 28.5 32.5 28.0523 32.5 27.5V20.5C32.5 19.9477 32.0523 19.5 31.5 19.5Z" fill="#FF6142"/>
<path d="M17.8408 27.2598C17.7236 27.2598 17.6211 27.2529 17.5332 27.2393C17.4434 27.2275 17.3672 27.2129 17.3047 27.1953V26.4395C17.3672 26.4531 17.4346 26.4658 17.5068 26.4775C17.5771 26.4912 17.6523 26.498 17.7324 26.498C17.8379 26.498 17.9326 26.4775 18.0166 26.4365C18.1006 26.3975 18.167 26.3223 18.2158 26.2109C18.2646 26.0996 18.2891 25.9395 18.2891 25.7305V21.7168H19.1973V25.7246C19.1973 26.0918 19.1396 26.3877 19.0244 26.6123C18.9111 26.8389 18.752 27.0029 18.5469 27.1045C18.3438 27.208 18.1084 27.2598 17.8408 27.2598ZM21.6436 21.7168C22.1963 21.7168 22.5996 21.8359 22.8535 22.0742C23.1074 22.3105 23.2344 22.6367 23.2344 23.0527C23.2344 23.2402 23.2061 23.4199 23.1494 23.5918C23.0928 23.7617 23 23.9131 22.8711 24.0459C22.7441 24.1787 22.5742 24.2842 22.3613 24.3623C22.1484 24.4385 21.8857 24.4766 21.5732 24.4766H21.1836V26H20.2754V21.7168H21.6436ZM21.5967 22.4609H21.1836V23.7324H21.4824C21.6523 23.7324 21.7998 23.71 21.9248 23.665C22.0498 23.6201 22.1465 23.5498 22.2148 23.4541C22.2832 23.3584 22.3174 23.2354 22.3174 23.085C22.3174 22.874 22.2588 22.7178 22.1416 22.6162C22.0244 22.5127 21.8428 22.4609 21.5967 22.4609ZM25.6689 23.5947H27.3682V25.8154C27.1436 25.8896 26.9102 25.9492 26.668 25.9941C26.4258 26.0371 26.1514 26.0586 25.8447 26.0586C25.4189 26.0586 25.0576 25.9746 24.7607 25.8066C24.4639 25.6387 24.2383 25.3906 24.084 25.0625C23.9297 24.7344 23.8525 24.3311 23.8525 23.8525C23.8525 23.4033 23.9385 23.0146 24.1104 22.6865C24.2842 22.3584 24.5371 22.1045 24.8691 21.9248C25.2031 21.7451 25.6104 21.6553 26.0908 21.6553C26.3174 21.6553 26.541 21.6797 26.7617 21.7285C26.9824 21.7773 27.1826 21.8408 27.3623 21.9189L27.0605 22.6455C26.9297 22.5791 26.7803 22.5234 26.6123 22.4785C26.4443 22.4336 26.2686 22.4111 26.085 22.4111C25.8213 22.4111 25.5918 22.4717 25.3965 22.5928C25.2031 22.7139 25.0527 22.8838 24.9453 23.1025C24.8398 23.3193 24.7871 23.5752 24.7871 23.8701C24.7871 24.1494 24.8252 24.3975 24.9014 24.6143C24.9775 24.8291 25.0977 24.998 25.2617 25.1211C25.4258 25.2422 25.6396 25.3027 25.9033 25.3027C26.0322 25.3027 26.1406 25.2969 26.2285 25.2852C26.3184 25.2715 26.4023 25.2578 26.4805 25.2441V24.3506H25.6689V23.5947Z" fill="white"/>
<path d="M31.5 19.5H30.5C30.7652 19.5 31.0196 19.6054 31.2071 19.7929C31.3946 19.9804 31.5 20.2348 31.5 20.5V27.5C31.5 27.7652 31.3946 28.0196 31.2071 28.2071C31.0196 28.3946 30.7652 28.5 30.5 28.5H31.5C31.7652 28.5 32.0196 28.3946 32.2071 28.2071C32.3946 28.0196 32.5 27.7652 32.5 27.5V20.5C32.5 20.2348 32.3946 19.9804 32.2071 19.7929C32.0196 19.6054 31.7652 19.5 31.5 19.5Z" fill="#E3573C"/>
</svg>
