<svg width="46" height="46" viewBox="0 0 46 46" fill="none" xmlns="http://www.w3.org/2000/svg">
<rect x="0.5" y="0.5" width="45" height="45" rx="22.5" fill="#FBFBFB"/>
<rect x="0.5" y="0.5" width="45" height="45" rx="22.5" stroke="#F3F3F3"/>
<path d="M30.5 34H15.5C15.2348 34 14.9804 33.8946 14.7929 33.7071C14.6054 33.5196 14.5 33.2652 14.5 33V13C14.5 12.7348 14.6054 12.4804 14.7929 12.2929C14.9804 12.1054 15.2348 12 15.5 12H28.5V14C28.5 14.2652 28.6054 14.5196 28.7929 14.7071C28.9804 14.8946 29.2348 15 29.5 15H31.5V33C31.5 33.2652 31.3946 33.5196 31.2071 33.7071C31.0196 33.8946 30.7652 34 30.5 34Z" fill="#F3F3F3"/>
<path d="M30.5 15V33C30.5 33.2652 30.3946 33.5196 30.2071 33.7071C30.0196 33.8946 29.7652 34 29.5 34H30.5C30.7652 34 31.0196 33.8946 31.2071 33.7071C31.3946 33.5196 31.5 33.2652 31.5 33V15H30.5Z" fill="#C9C9C9"/>
<path d="M31.5 15H29.5C29.2348 15 28.9804 14.8946 28.7929 14.7071C28.6054 14.5196 28.5 14.2652 28.5 14V12L31.5 15Z" fill="#ABABAB"/>
<path d="M31.5 19.5H14.5C13.9477 19.5 13.5 19.9477 13.5 20.5V27.5C13.5 28.0523 13.9477 28.5 14.5 28.5H31.5C32.0523 28.5 32.5 28.0523 32.5 27.5V20.5C32.5 19.9477 32.0523 19.5 31.5 19.5Z" fill="#B0A3FA"/>
<path d="M18.6025 26L17.5713 22.6396H17.5449C17.5488 22.7197 17.5547 22.8408 17.5625 23.0029C17.5723 23.1631 17.5811 23.334 17.5889 23.5156C17.5967 23.6973 17.6006 23.8613 17.6006 24.0078V26H16.7891V21.7168H18.0254L19.0391 24.9922H19.0566L20.1318 21.7168H21.3682V26H20.5215V23.9727C20.5215 23.8379 20.5234 23.6826 20.5273 23.5068C20.5332 23.3311 20.54 23.1641 20.5479 23.0059C20.5557 22.8457 20.5615 22.7256 20.5654 22.6455H20.5391L19.4346 26H18.6025ZM23.8174 21.7168C24.3701 21.7168 24.7734 21.8359 25.0273 22.0742C25.2812 22.3105 25.4082 22.6367 25.4082 23.0527C25.4082 23.2402 25.3799 23.4199 25.3232 23.5918C25.2666 23.7617 25.1738 23.9131 25.0449 24.0459C24.918 24.1787 24.748 24.2842 24.5352 24.3623C24.3223 24.4385 24.0596 24.4766 23.7471 24.4766H23.3574V26H22.4492V21.7168H23.8174ZM23.7705 22.4609H23.3574V23.7324H23.6562C23.8262 23.7324 23.9736 23.71 24.0986 23.665C24.2236 23.6201 24.3203 23.5498 24.3887 23.4541C24.457 23.3584 24.4912 23.2354 24.4912 23.085C24.4912 22.874 24.4326 22.7178 24.3154 22.6162C24.1982 22.5127 24.0166 22.4609 23.7705 22.4609ZM29.0088 25.1123H28.4932V26H27.6084V25.1123H25.7803V24.4824L27.6582 21.7168H28.4932V24.4092H29.0088V25.1123ZM27.6084 24.4092V23.6826C27.6084 23.6143 27.6094 23.5332 27.6113 23.4395C27.6152 23.3457 27.6191 23.252 27.623 23.1582C27.627 23.0645 27.6309 22.9814 27.6348 22.9092C27.6406 22.835 27.6445 22.7832 27.6465 22.7539H27.623C27.5859 22.834 27.5469 22.9121 27.5059 22.9883C27.4648 23.0625 27.417 23.1406 27.3623 23.2227L26.5771 24.4092H27.6084Z" fill="white"/>
<path d="M31.5 19.5H30.5C30.7652 19.5 31.0196 19.6054 31.2071 19.7929C31.3946 19.9804 31.5 20.2348 31.5 20.5V27.5C31.5 27.7652 31.3946 28.0196 31.2071 28.2071C31.0196 28.3946 30.7652 28.5 30.5 28.5H31.5C31.7652 28.5 32.0196 28.3946 32.2071 28.2071C32.3946 28.0196 32.5 27.7652 32.5 27.5V20.5C32.5 20.2348 32.3946 19.9804 32.2071 19.7929C32.0196 19.6054 31.7652 19.5 31.5 19.5Z" fill="#9487DF"/>
</svg>
