<svg width="46" height="46" viewBox="0 0 46 46" fill="none" xmlns="http://www.w3.org/2000/svg">
<rect x="0.5" y="0.5" width="45" height="45" rx="22.5" fill="#FBFBFB"/>
<rect x="0.5" y="0.5" width="45" height="45" rx="22.5" stroke="#F3F3F3"/>
<path d="M30.5 34H15.5C15.2348 34 14.9804 33.8946 14.7929 33.7071C14.6054 33.5196 14.5 33.2652 14.5 33V13C14.5 12.7348 14.6054 12.4804 14.7929 12.2929C14.9804 12.1054 15.2348 12 15.5 12H28.5V14C28.5 14.2652 28.6054 14.5196 28.7929 14.7071C28.9804 14.8946 29.2348 15 29.5 15H31.5V33C31.5 33.2652 31.3946 33.5196 31.2071 33.7071C31.0196 33.8946 30.7652 34 30.5 34Z" fill="#F3F3F3"/>
<path d="M30.5 15V33C30.5 33.2652 30.3946 33.5196 30.2071 33.7071C30.0196 33.8946 29.7652 34 29.5 34H30.5C30.7652 34 31.0196 33.8946 31.2071 33.7071C31.3946 33.5196 31.5 33.2652 31.5 33V15H30.5Z" fill="#C9C9C9"/>
<path d="M31.5 15H29.5C29.2348 15 28.9804 14.8946 28.7929 14.7071C28.6054 14.5196 28.5 14.2652 28.5 14V12L31.5 15Z" fill="#ABABAB"/>
<path d="M31.5 19.5H14.5C13.9477 19.5 13.5 19.9477 13.5 20.5V27.5C13.5 28.0523 13.9477 28.5 14.5 28.5H31.5C32.0523 28.5 32.5 28.0523 32.5 27.5V20.5C32.5 19.9477 32.0523 19.5 31.5 19.5Z" fill="#6E93FF"/>
<path d="M18.1572 21.7168C18.71 21.7168 19.1133 21.8359 19.3672 22.0742C19.6211 22.3105 19.748 22.6367 19.748 23.0527C19.748 23.2402 19.7197 23.4199 19.6631 23.5918C19.6064 23.7617 19.5137 23.9131 19.3848 24.0459C19.2578 24.1787 19.0879 24.2842 18.875 24.3623C18.6621 24.4385 18.3994 24.4766 18.0869 24.4766H17.6973V26H16.7891V21.7168H18.1572ZM18.1104 22.4609H17.6973V23.7324H17.9961C18.166 23.7324 18.3135 23.71 18.4385 23.665C18.5635 23.6201 18.6602 23.5498 18.7285 23.4541C18.7969 23.3584 18.8311 23.2354 18.8311 23.085C18.8311 22.874 18.7725 22.7178 18.6553 22.6162C18.5381 22.5127 18.3564 22.4609 18.1104 22.4609ZM24.3564 26H23.2021L21.3389 22.7598H21.3125C21.3203 22.8945 21.3271 23.0303 21.333 23.167C21.3389 23.3037 21.3447 23.4404 21.3506 23.5771C21.3564 23.7119 21.3623 23.8477 21.3682 23.9844V26H20.5566V21.7168H21.7021L23.5625 24.9248H23.583C23.5791 24.792 23.5742 24.6602 23.5684 24.5293C23.5625 24.3984 23.5566 24.2676 23.5508 24.1367C23.5469 24.0059 23.543 23.875 23.5391 23.7441V21.7168H24.3564V26ZM27.0635 23.5947H28.7627V25.8154C28.5381 25.8896 28.3047 25.9492 28.0625 25.9941C27.8203 26.0371 27.5459 26.0586 27.2393 26.0586C26.8135 26.0586 26.4521 25.9746 26.1553 25.8066C25.8584 25.6387 25.6328 25.3906 25.4785 25.0625C25.3242 24.7344 25.2471 24.3311 25.2471 23.8525C25.2471 23.4033 25.333 23.0146 25.5049 22.6865C25.6787 22.3584 25.9316 22.1045 26.2637 21.9248C26.5977 21.7451 27.0049 21.6553 27.4854 21.6553C27.7119 21.6553 27.9355 21.6797 28.1562 21.7285C28.377 21.7773 28.5771 21.8408 28.7568 21.9189L28.4551 22.6455C28.3242 22.5791 28.1748 22.5234 28.0068 22.4785C27.8389 22.4336 27.6631 22.4111 27.4795 22.4111C27.2158 22.4111 26.9863 22.4717 26.791 22.5928C26.5977 22.7139 26.4473 22.8838 26.3398 23.1025C26.2344 23.3193 26.1816 23.5752 26.1816 23.8701C26.1816 24.1494 26.2197 24.3975 26.2959 24.6143C26.3721 24.8291 26.4922 24.998 26.6562 25.1211C26.8203 25.2422 27.0342 25.3027 27.2979 25.3027C27.4268 25.3027 27.5352 25.2969 27.623 25.2852C27.7129 25.2715 27.7969 25.2578 27.875 25.2441V24.3506H27.0635V23.5947Z" fill="white"/>
<path d="M31.5 19.5H30.5C30.7652 19.5 31.0196 19.6054 31.2071 19.7929C31.3946 19.9804 31.5 20.2348 31.5 20.5V27.5C31.5 27.7652 31.3946 28.0196 31.2071 28.2071C31.0196 28.3946 30.7652 28.5 30.5 28.5H31.5C31.7652 28.5 32.0196 28.3946 32.2071 28.2071C32.3946 28.0196 32.5 27.7652 32.5 27.5V20.5C32.5 20.2348 32.3946 19.9804 32.2071 19.7929C32.0196 19.6054 31.7652 19.5 31.5 19.5Z" fill="#5F81E7"/>
</svg>
