<svg width="46" height="46" viewBox="0 0 46 46" fill="none" xmlns="http://www.w3.org/2000/svg">
<rect x="0.5" y="0.5" width="45" height="45" rx="22.5" fill="#FBFBFB"/>
<rect x="0.5" y="0.5" width="45" height="45" rx="22.5" stroke="#F3F3F3"/>
<path d="M30.5 34H15.5C15.2348 34 14.9804 33.8946 14.7929 33.7071C14.6054 33.5196 14.5 33.2652 14.5 33V13C14.5 12.7348 14.6054 12.4804 14.7929 12.2929C14.9804 12.1054 15.2348 12 15.5 12H28.5V14C28.5 14.2652 28.6054 14.5196 28.7929 14.7071C28.9804 14.8946 29.2348 15 29.5 15H31.5V33C31.5 33.2652 31.3946 33.5196 31.2071 33.7071C31.0196 33.8946 30.7652 34 30.5 34Z" fill="#F3F3F3"/>
<path d="M30.5 15V33C30.5 33.2652 30.3946 33.5196 30.2071 33.7071C30.0196 33.8946 29.7652 34 29.5 34H30.5C30.7652 34 31.0196 33.8946 31.2071 33.7071C31.3946 33.5196 31.5 33.2652 31.5 33V15H30.5Z" fill="#C9C9C9"/>
<path d="M31.5 15H29.5C29.2348 15 28.9804 14.8946 28.7929 14.7071C28.6054 14.5196 28.5 14.2652 28.5 14V12L31.5 15Z" fill="#ABABAB"/>
<path d="M31.5 19.5H14.5C13.9477 19.5 13.5 19.9477 13.5 20.5V27.5C13.5 28.0523 13.9477 28.5 14.5 28.5H31.5C32.0523 28.5 32.5 28.0523 32.5 27.5V20.5C32.5 19.9477 32.0523 19.5 31.5 19.5Z" fill="#2862FF"/>
<path d="M20.9111 26L20.6006 24.9805H19.0391L18.7285 26H17.75L19.2617 21.6992H20.3721L21.8896 26H20.9111ZM20.3838 24.2188L20.0732 23.2227C20.0537 23.1562 20.0273 23.0713 19.9941 22.9678C19.9629 22.8623 19.9307 22.7559 19.8975 22.6484C19.8662 22.5391 19.8408 22.4443 19.8213 22.3643C19.8018 22.4443 19.7744 22.5439 19.7393 22.6631C19.7061 22.7803 19.6738 22.8916 19.6426 22.9971C19.6113 23.1025 19.5889 23.1777 19.5752 23.2227L19.2676 24.2188H20.3838ZM25.792 21.7168L24.3359 26H23.3457L21.8926 21.7168H22.8096L23.6152 24.2656C23.6289 24.3086 23.6514 24.3896 23.6826 24.5088C23.7139 24.626 23.7451 24.751 23.7764 24.8838C23.8096 25.0146 23.832 25.123 23.8438 25.209C23.8555 25.123 23.876 25.0146 23.9053 24.8838C23.9365 24.7529 23.9668 24.6289 23.9961 24.5117C24.0273 24.3926 24.0498 24.3105 24.0635 24.2656L24.875 21.7168H25.792ZM26.334 26V21.7168H27.2422V26H26.334Z" fill="white"/>
<path d="M31.5 19.5H30.5C30.7652 19.5 31.0196 19.6054 31.2071 19.7929C31.3946 19.9804 31.5 20.2348 31.5 20.5V27.5C31.5 27.7652 31.3946 28.0196 31.2071 28.2071C31.0196 28.3946 30.7652 28.5 30.5 28.5H31.5C31.7652 28.5 32.0196 28.3946 32.2071 28.2071C32.3946 28.0196 32.5 27.7652 32.5 27.5V20.5C32.5 20.2348 32.3946 19.9804 32.2071 19.7929C32.0196 19.6054 31.7652 19.5 31.5 19.5Z" fill="#174FE6"/>
</svg>
