<svg width="46" height="46" viewBox="0 0 46 46" fill="none" xmlns="http://www.w3.org/2000/svg">
<rect x="0.5" y="0.5" width="45" height="45" rx="22.5" fill="#FBFBFB"/>
<rect x="0.5" y="0.5" width="45" height="45" rx="22.5" stroke="#F3F3F3"/>
<path d="M30.5 34H15.5C15.2348 34 14.9804 33.8946 14.7929 33.7071C14.6054 33.5196 14.5 33.2652 14.5 33V13C14.5 12.7348 14.6054 12.4804 14.7929 12.2929C14.9804 12.1054 15.2348 12 15.5 12H28.5V14C28.5 14.2652 28.6054 14.5196 28.7929 14.7071C28.9804 14.8946 29.2348 15 29.5 15H31.5V33C31.5 33.2652 31.3946 33.5196 31.2071 33.7071C31.0196 33.8946 30.7652 34 30.5 34Z" fill="#F3F3F3"/>
<path d="M30.5 15V33C30.5 33.2652 30.3946 33.5196 30.2071 33.7071C30.0196 33.8946 29.7652 34 29.5 34H30.5C30.7652 34 31.0196 33.8946 31.2071 33.7071C31.3946 33.5196 31.5 33.2652 31.5 33V15H30.5Z" fill="#C9C9C9"/>
<path d="M31.5 15H29.5C29.2348 15 28.9804 14.8946 28.7929 14.7071C28.6054 14.5196 28.5 14.2652 28.5 14V12L31.5 15Z" fill="#ABABAB"/>
<path d="M31.5 19.5H14.5C13.9477 19.5 13.5 19.9477 13.5 20.5V27.5C13.5 28.0523 13.9477 28.5 14.5 28.5H31.5C32.0523 28.5 32.5 28.0523 32.5 27.5V20.5C32.5 19.9477 32.0523 19.5 31.5 19.5Z" fill="#9F9F9F"/>
<path d="M18.6025 26L17.5713 22.6396H17.5449C17.5488 22.7197 17.5547 22.8408 17.5625 23.0029C17.5723 23.1631 17.5811 23.334 17.5889 23.5156C17.5967 23.6973 17.6006 23.8613 17.6006 24.0078V26H16.7891V21.7168H18.0254L19.0391 24.9922H19.0566L20.1318 21.7168H21.3682V26H20.5215V23.9727C20.5215 23.8379 20.5234 23.6826 20.5273 23.5068C20.5332 23.3311 20.54 23.1641 20.5479 23.0059C20.5557 22.8457 20.5615 22.7256 20.5654 22.6455H20.5391L19.4346 26H18.6025ZM25.8945 26H24.8633L23.7412 24.1953L23.3574 24.4707V26H22.4492V21.7168H23.3574V23.6768C23.418 23.5928 23.4775 23.5088 23.5361 23.4248C23.5947 23.3408 23.6543 23.2568 23.7148 23.1729L24.875 21.7168H25.8828L24.3887 23.6123L25.8945 26ZM29.7939 21.7168L28.3379 26H27.3477L25.8945 21.7168H26.8115L27.6172 24.2656C27.6309 24.3086 27.6533 24.3896 27.6846 24.5088C27.7158 24.626 27.7471 24.751 27.7783 24.8838C27.8115 25.0146 27.834 25.123 27.8457 25.209C27.8574 25.123 27.8779 25.0146 27.9072 24.8838C27.9385 24.7529 27.9688 24.6289 27.998 24.5117C28.0293 24.3926 28.0518 24.3105 28.0654 24.2656L28.877 21.7168H29.7939Z" fill="white"/>
<path d="M31.5 19.5H30.5C30.7652 19.5 31.0196 19.6054 31.2071 19.7929C31.3946 19.9804 31.5 20.2348 31.5 20.5V27.5C31.5 27.7652 31.3946 28.0196 31.2071 28.2071C31.0196 28.3946 30.7652 28.5 30.5 28.5H31.5C31.7652 28.5 32.0196 28.3946 32.2071 28.2071C32.3946 28.0196 32.5 27.7652 32.5 27.5V20.5C32.5 20.2348 32.3946 19.9804 32.2071 19.7929C32.0196 19.6054 31.7652 19.5 31.5 19.5Z" fill="#828282"/>
</svg>
