<svg width="46" height="46" viewBox="0 0 46 46" fill="none" xmlns="http://www.w3.org/2000/svg">
<rect x="0.5" y="0.5" width="45" height="45" rx="22.5" fill="#FBFBFB"/>
<rect x="0.5" y="0.5" width="45" height="45" rx="22.5" stroke="#F3F3F3"/>
<path d="M30.5 34H15.5C15.2348 34 14.9804 33.8946 14.7929 33.7071C14.6054 33.5196 14.5 33.2652 14.5 33V13C14.5 12.7348 14.6054 12.4804 14.7929 12.2929C14.9804 12.1054 15.2348 12 15.5 12H28.5V14C28.5 14.2652 28.6054 14.5196 28.7929 14.7071C28.9804 14.8946 29.2348 15 29.5 15H31.5V33C31.5 33.2652 31.3946 33.5196 31.2071 33.7071C31.0196 33.8946 30.7652 34 30.5 34Z" fill="#F3F3F3"/>
<path d="M30.5 15V33C30.5 33.2652 30.3946 33.5196 30.2071 33.7071C30.0196 33.8946 29.7652 34 29.5 34H30.5C30.7652 34 31.0196 33.8946 31.2071 33.7071C31.3946 33.5196 31.5 33.2652 31.5 33V15H30.5Z" fill="#C9C9C9"/>
<path d="M31.5 15H29.5C29.2348 15 28.9804 14.8946 28.7929 14.7071C28.6054 14.5196 28.5 14.2652 28.5 14V12L31.5 15Z" fill="#ABABAB"/>
<path d="M31.5 19.5H14.5C13.9477 19.5 13.5 19.9477 13.5 20.5V27.5C13.5 28.0523 13.9477 28.5 14.5 28.5H31.5C32.0523 28.5 32.5 28.0523 32.5 27.5V20.5C32.5 19.9477 32.0523 19.5 31.5 19.5Z" fill="#ED5532"/>
<path d="M18.6494 21.7168L17.1934 26H16.2031L14.75 21.7168H15.667L16.4727 24.2656C16.4863 24.3086 16.5088 24.3896 16.54 24.5088C16.5713 24.626 16.6025 24.751 16.6338 24.8838C16.667 25.0146 16.6895 25.123 16.7012 25.209C16.7129 25.123 16.7334 25.0146 16.7627 24.8838C16.7939 24.7529 16.8242 24.6289 16.8535 24.5117C16.8848 24.3926 16.9072 24.3105 16.9209 24.2656L17.7324 21.7168H18.6494ZM21.7197 22.6748C21.7197 22.8721 21.6787 23.043 21.5967 23.1875C21.5146 23.332 21.4033 23.4502 21.2627 23.542C21.124 23.6338 20.9678 23.7012 20.7939 23.7441V23.7617C21.1377 23.8047 21.3984 23.9102 21.5762 24.0781C21.7559 24.2461 21.8457 24.4707 21.8457 24.752C21.8457 25.002 21.7842 25.2256 21.6611 25.4229C21.54 25.6201 21.3525 25.7754 21.0986 25.8887C20.8447 26.002 20.5176 26.0586 20.1172 26.0586C19.8809 26.0586 19.6602 26.0391 19.4551 26C19.252 25.9629 19.0605 25.9053 18.8809 25.8271V25.0566C19.0645 25.1504 19.2568 25.2217 19.458 25.2705C19.6592 25.3174 19.8467 25.3408 20.0205 25.3408C20.3447 25.3408 20.5713 25.2852 20.7002 25.1738C20.8311 25.0605 20.8965 24.9023 20.8965 24.6992C20.8965 24.5801 20.8662 24.4795 20.8057 24.3975C20.7451 24.3154 20.6396 24.2529 20.4893 24.21C20.3408 24.167 20.1328 24.1455 19.8652 24.1455H19.54V23.4512H19.8711C20.1348 23.4512 20.335 23.4268 20.4717 23.3779C20.6104 23.3271 20.7041 23.2588 20.7529 23.1729C20.8037 23.085 20.8291 22.9854 20.8291 22.874C20.8291 22.7217 20.7822 22.6025 20.6885 22.5166C20.5947 22.4307 20.4385 22.3877 20.2197 22.3877C20.083 22.3877 19.958 22.4053 19.8447 22.4404C19.7334 22.4736 19.6328 22.5146 19.543 22.5635C19.4531 22.6104 19.374 22.6562 19.3057 22.7012L18.8867 22.0771C19.0547 21.9561 19.251 21.8555 19.4756 21.7754C19.7021 21.6953 19.9717 21.6553 20.2842 21.6553C20.7256 21.6553 21.0752 21.7441 21.333 21.9219C21.5908 22.0996 21.7197 22.3506 21.7197 22.6748ZM24.251 23.5947H25.9502V25.8154C25.7256 25.8896 25.4922 25.9492 25.25 25.9941C25.0078 26.0371 24.7334 26.0586 24.4268 26.0586C24.001 26.0586 23.6396 25.9746 23.3428 25.8066C23.0459 25.6387 22.8203 25.3906 22.666 25.0625C22.5117 24.7344 22.4346 24.3311 22.4346 23.8525C22.4346 23.4033 22.5205 23.0146 22.6924 22.6865C22.8662 22.3584 23.1191 22.1045 23.4512 21.9248C23.7852 21.7451 24.1924 21.6553 24.6729 21.6553C24.8994 21.6553 25.123 21.6797 25.3438 21.7285C25.5645 21.7773 25.7646 21.8408 25.9443 21.9189L25.6426 22.6455C25.5117 22.5791 25.3623 22.5234 25.1943 22.4785C25.0264 22.4336 24.8506 22.4111 24.667 22.4111C24.4033 22.4111 24.1738 22.4717 23.9785 22.5928C23.7852 22.7139 23.6348 22.8838 23.5273 23.1025C23.4219 23.3193 23.3691 23.5752 23.3691 23.8701C23.3691 24.1494 23.4072 24.3975 23.4834 24.6143C23.5596 24.8291 23.6797 24.998 23.8438 25.1211C24.0078 25.2422 24.2217 25.3027 24.4854 25.3027C24.6143 25.3027 24.7227 25.2969 24.8105 25.2852C24.9004 25.2715 24.9844 25.2578 25.0625 25.2441V24.3506H24.251V23.5947ZM28.3408 21.7168C28.8936 21.7168 29.2969 21.8359 29.5508 22.0742C29.8047 22.3105 29.9316 22.6367 29.9316 23.0527C29.9316 23.2402 29.9033 23.4199 29.8467 23.5918C29.79 23.7617 29.6973 23.9131 29.5684 24.0459C29.4414 24.1787 29.2715 24.2842 29.0586 24.3623C28.8457 24.4385 28.583 24.4766 28.2705 24.4766H27.8809V26H26.9727V21.7168H28.3408ZM28.2939 22.4609H27.8809V23.7324H28.1797C28.3496 23.7324 28.4971 23.71 28.6221 23.665C28.7471 23.6201 28.8438 23.5498 28.9121 23.4541C28.9805 23.3584 29.0146 23.2354 29.0146 23.085C29.0146 22.874 28.9561 22.7178 28.8389 22.6162C28.7217 22.5127 28.54 22.4609 28.2939 22.4609Z" fill="white"/>
<path d="M31.5 19.5H30.5C30.7652 19.5 31.0196 19.6054 31.2071 19.7929C31.3946 19.9804 31.5 20.2348 31.5 20.5V27.5C31.5 27.7652 31.3946 28.0196 31.2071 28.2071C31.0196 28.3946 30.7652 28.5 30.5 28.5H31.5C31.7652 28.5 32.0196 28.3946 32.2071 28.2071C32.3946 28.0196 32.5 27.7652 32.5 27.5V20.5C32.5 20.2348 32.3946 19.9804 32.2071 19.7929C32.0196 19.6054 31.7652 19.5 31.5 19.5Z" fill="#DE4421"/>
</svg>
