<svg width="46" height="46" viewBox="0 0 46 46" fill="none" xmlns="http://www.w3.org/2000/svg">
<rect x="0.5" y="0.5" width="45" height="45" rx="22.5" fill="#FBFBFB"/>
<rect x="0.5" y="0.5" width="45" height="45" rx="22.5" stroke="#F3F3F3"/>
<path d="M30.5 34H15.5C15.2348 34 14.9804 33.8946 14.7929 33.7071C14.6054 33.5196 14.5 33.2652 14.5 33V13C14.5 12.7348 14.6054 12.4804 14.7929 12.2929C14.9804 12.1054 15.2348 12 15.5 12H28.5V14C28.5 14.2652 28.6054 14.5196 28.7929 14.7071C28.9804 14.8946 29.2348 15 29.5 15H31.5V33C31.5 33.2652 31.3946 33.5196 31.2071 33.7071C31.0196 33.8946 30.7652 34 30.5 34Z" fill="#F3F3F3"/>
<path d="M30.5 15V33C30.5 33.2652 30.3946 33.5196 30.2071 33.7071C30.0196 33.8946 29.7652 34 29.5 34H30.5C30.7652 34 31.0196 33.8946 31.2071 33.7071C31.3946 33.5196 31.5 33.2652 31.5 33V15H30.5Z" fill="#C9C9C9"/>
<path d="M31.5 15H29.5C29.2348 15 28.9804 14.8946 28.7929 14.7071C28.6054 14.5196 28.5 14.2652 28.5 14V12L31.5 15Z" fill="#ABABAB"/>
<path d="M31.5 19.5H14.5C13.9477 19.5 13.5 19.9477 13.5 20.5V27.5C13.5 28.0523 13.9477 28.5 14.5 28.5H31.5C32.0523 28.5 32.5 28.0523 32.5 27.5V20.5C32.5 19.9477 32.0523 19.5 31.5 19.5Z" fill="#3ECF8E"/>
<path d="M20.3428 23.8174C20.3428 24.2998 20.25 24.7031 20.0645 25.0273C19.8809 25.3496 19.6143 25.5928 19.2646 25.7568C18.915 25.9189 18.4941 26 18.002 26H16.7891V21.7168H18.1338C18.583 21.7168 18.9727 21.7969 19.3027 21.957C19.6328 22.1152 19.8887 22.3506 20.0703 22.6631C20.252 22.9736 20.3428 23.3584 20.3428 23.8174ZM19.3994 23.8408C19.3994 23.5244 19.3525 23.2646 19.2588 23.0615C19.167 22.8564 19.0303 22.7051 18.8486 22.6074C18.6689 22.5098 18.4463 22.4609 18.1807 22.4609H17.6973V25.25H18.0869C18.5303 25.25 18.8594 25.1318 19.0742 24.8955C19.291 24.6592 19.3994 24.3076 19.3994 23.8408ZM23.8525 26L23.542 24.9805H21.9805L21.6699 26H20.6914L22.2031 21.6992H23.3135L24.8311 26H23.8525ZM23.3252 24.2188L23.0146 23.2227C22.9951 23.1562 22.9688 23.0713 22.9355 22.9678C22.9043 22.8623 22.8721 22.7559 22.8389 22.6484C22.8076 22.5391 22.7822 22.4443 22.7627 22.3643C22.7432 22.4443 22.7158 22.5439 22.6807 22.6631C22.6475 22.7803 22.6152 22.8916 22.584 22.9971C22.5527 23.1025 22.5303 23.1777 22.5166 23.2227L22.209 24.2188H23.3252ZM28.7334 21.7168L27.2773 26H26.2871L24.834 21.7168H25.751L26.5566 24.2656C26.5703 24.3086 26.5928 24.3896 26.624 24.5088C26.6553 24.626 26.6865 24.751 26.7178 24.8838C26.751 25.0146 26.7734 25.123 26.7852 25.209C26.7969 25.123 26.8174 25.0146 26.8467 24.8838C26.8779 24.7529 26.9082 24.6289 26.9375 24.5117C26.9688 24.3926 26.9912 24.3105 27.0049 24.2656L27.8164 21.7168H28.7334Z" fill="white"/>
<path d="M31.5 19.5H30.5C30.7652 19.5 31.0196 19.6054 31.2071 19.7929C31.3946 19.9804 31.5 20.2348 31.5 20.5V27.5C31.5 27.7652 31.3946 28.0196 31.2071 28.2071C31.0196 28.3946 30.7652 28.5 30.5 28.5H31.5C31.7652 28.5 32.0196 28.3946 32.2071 28.2071C32.3946 28.0196 32.5 27.7652 32.5 27.5V20.5C32.5 20.2348 32.3946 19.9804 32.2071 19.7929C32.0196 19.6054 31.7652 19.5 31.5 19.5Z" fill="#2FAD74"/>
</svg>
