<svg width="46" height="46" viewBox="0 0 46 46" fill="none" xmlns="http://www.w3.org/2000/svg">
<rect x="0.5" y="0.5" width="45" height="45" rx="22.5" fill="#FBFBFB"/>
<rect x="0.5" y="0.5" width="45" height="45" rx="22.5" stroke="#F3F3F3"/>
<path d="M30.5 34H15.5C15.2348 34 14.9804 33.8946 14.7929 33.7071C14.6054 33.5196 14.5 33.2652 14.5 33V13C14.5 12.7348 14.6054 12.4804 14.7929 12.2929C14.9804 12.1054 15.2348 12 15.5 12H28.5V14C28.5 14.2652 28.6054 14.5196 28.7929 14.7071C28.9804 14.8946 29.2348 15 29.5 15H31.5V33C31.5 33.2652 31.3946 33.5196 31.2071 33.7071C31.0196 33.8946 30.7652 34 30.5 34Z" fill="#F3F3F3"/>
<path d="M30.5 15V33C30.5 33.2652 30.3946 33.5196 30.2071 33.7071C30.0196 33.8946 29.7652 34 29.5 34H30.5C30.7652 34 31.0196 33.8946 31.2071 33.7071C31.3946 33.5196 31.5 33.2652 31.5 33V15H30.5Z" fill="#C9C9C9"/>
<path d="M31.5 15H29.5C29.2348 15 28.9804 14.8946 28.7929 14.7071C28.6054 14.5196 28.5 14.2652 28.5 14V12L31.5 15Z" fill="#ABABAB"/>
<path d="M31.5 19.5H14.5C13.9477 19.5 13.5 19.9477 13.5 20.5V27.5C13.5 28.0523 13.9477 28.5 14.5 28.5H31.5C32.0523 28.5 32.5 28.0523 32.5 27.5V20.5C32.5 19.9477 32.0523 19.5 31.5 19.5Z" fill="#46A7F6"/>
<path d="M22.0508 21.7168L20.9609 26H19.9268L19.3467 23.75C19.335 23.707 19.3193 23.6416 19.2998 23.5537C19.2803 23.4658 19.2598 23.3701 19.2383 23.2666C19.2168 23.1611 19.1973 23.0625 19.1797 22.9707C19.1641 22.877 19.1533 22.8027 19.1475 22.748C19.1416 22.8027 19.1299 22.876 19.1123 22.9678C19.0967 23.0596 19.0781 23.1572 19.0566 23.2607C19.0371 23.3643 19.0176 23.4609 18.998 23.5508C18.9785 23.6406 18.9629 23.709 18.9512 23.7559L18.374 26H17.3428L16.25 21.7168H17.1436L17.6914 24.0547C17.707 24.125 17.7246 24.209 17.7441 24.3066C17.7656 24.4043 17.7861 24.5068 17.8057 24.6143C17.8271 24.7197 17.8457 24.8223 17.8613 24.9219C17.8789 25.0195 17.8916 25.1045 17.8994 25.1768C17.9092 25.1025 17.9219 25.0166 17.9375 24.9189C17.9531 24.8193 17.9697 24.7188 17.9873 24.6172C18.0068 24.5137 18.0264 24.418 18.0459 24.3301C18.0654 24.2422 18.083 24.1709 18.0986 24.1162L18.7227 21.7168H19.5811L20.2051 24.1162C20.2188 24.1689 20.2344 24.2402 20.252 24.3301C20.2715 24.418 20.291 24.5137 20.3105 24.6172C20.3301 24.7207 20.3477 24.8223 20.3633 24.9219C20.3809 25.0195 20.3936 25.1045 20.4014 25.1768C20.415 25.0791 20.4336 24.9609 20.457 24.8223C20.4824 24.6816 20.5088 24.542 20.5361 24.4033C20.5654 24.2646 20.5908 24.1484 20.6123 24.0547L21.1572 21.7168H22.0508ZM25.2119 26L24.9014 24.9805H23.3398L23.0293 26H22.0508L23.5625 21.6992H24.6729L26.1904 26H25.2119ZM24.6846 24.2188L24.374 23.2227C24.3545 23.1562 24.3281 23.0713 24.2949 22.9678C24.2637 22.8623 24.2314 22.7559 24.1982 22.6484C24.167 22.5391 24.1416 22.4443 24.1221 22.3643C24.1025 22.4443 24.0752 22.5439 24.04 22.6631C24.0068 22.7803 23.9746 22.8916 23.9434 22.9971C23.9121 23.1025 23.8896 23.1777 23.876 23.2227L23.5684 24.2188H24.6846ZM30.0928 21.7168L28.6367 26H27.6465L26.1934 21.7168H27.1104L27.916 24.2656C27.9297 24.3086 27.9521 24.3896 27.9834 24.5088C28.0146 24.626 28.0459 24.751 28.0771 24.8838C28.1104 25.0146 28.1328 25.123 28.1445 25.209C28.1562 25.123 28.1768 25.0146 28.2061 24.8838C28.2373 24.7529 28.2676 24.6289 28.2969 24.5117C28.3281 24.3926 28.3506 24.3105 28.3643 24.2656L29.1758 21.7168H30.0928Z" fill="white"/>
<path d="M31.5 19.5H30.5C30.7652 19.5 31.0196 19.6054 31.2071 19.7929C31.3946 19.9804 31.5 20.2348 31.5 20.5V27.5C31.5 27.7652 31.3946 28.0196 31.2071 28.2071C31.0196 28.3946 30.7652 28.5 30.5 28.5H31.5C31.7652 28.5 32.0196 28.3946 32.2071 28.2071C32.3946 28.0196 32.5 27.7652 32.5 27.5V20.5C32.5 20.2348 32.3946 19.9804 32.2071 19.7929C32.0196 19.6054 31.7652 19.5 31.5 19.5Z" fill="#267BC0"/>
</svg>
