<svg width="46" height="46" viewBox="0 0 46 46" fill="none" xmlns="http://www.w3.org/2000/svg">
<rect x="0.5" y="0.5" width="45" height="45" rx="22.5" fill="#FBFBFB"/>
<rect x="0.5" y="0.5" width="45" height="45" rx="22.5" stroke="#F3F3F3"/>
<path d="M30.5 34H15.5C15.2348 34 14.9804 33.8946 14.7929 33.7071C14.6054 33.5196 14.5 33.2652 14.5 33V13C14.5 12.7348 14.6054 12.4804 14.7929 12.2929C14.9804 12.1054 15.2348 12 15.5 12H28.5V14C28.5 14.2652 28.6054 14.5196 28.7929 14.7071C28.9804 14.8946 29.2348 15 29.5 15H31.5V33C31.5 33.2652 31.3946 33.5196 31.2071 33.7071C31.0196 33.8946 30.7652 34 30.5 34Z" fill="#F3F3F3"/>
<path d="M30.5 15V33C30.5 33.2652 30.3946 33.5196 30.2071 33.7071C30.0196 33.8946 29.7652 34 29.5 34H30.5C30.7652 34 31.0196 33.8946 31.2071 33.7071C31.3946 33.5196 31.5 33.2652 31.5 33V15H30.5Z" fill="#C9C9C9"/>
<path d="M31.5 15H29.5C29.2348 15 28.9804 14.8946 28.7929 14.7071C28.6054 14.5196 28.5 14.2652 28.5 14V12L31.5 15Z" fill="#ABABAB"/>
<path d="M31.5 19.5H14.5C13.9477 19.5 13.5 19.9477 13.5 20.5V27.5C13.5 28.0523 13.9477 28.5 14.5 28.5H31.5C32.0523 28.5 32.5 28.0523 32.5 27.5V20.5C32.5 19.9477 32.0523 19.5 31.5 19.5Z" fill="#038B6A"/>
<path d="M16.3408 27.2598C16.2236 27.2598 16.1211 27.2529 16.0332 27.2393C15.9434 27.2275 15.8672 27.2129 15.8047 27.1953V26.4395C15.8672 26.4531 15.9346 26.4658 16.0068 26.4775C16.0771 26.4912 16.1523 26.498 16.2324 26.498C16.3379 26.498 16.4326 26.4775 16.5166 26.4365C16.6006 26.3975 16.667 26.3223 16.7158 26.2109C16.7646 26.0996 16.7891 25.9395 16.7891 25.7305V21.7168H17.6973V25.7246C17.6973 26.0918 17.6396 26.3877 17.5244 26.6123C17.4111 26.8389 17.252 27.0029 17.0469 27.1045C16.8438 27.208 16.6084 27.2598 16.3408 27.2598ZM20.1436 21.7168C20.6963 21.7168 21.0996 21.8359 21.3535 22.0742C21.6074 22.3105 21.7344 22.6367 21.7344 23.0527C21.7344 23.2402 21.7061 23.4199 21.6494 23.5918C21.5928 23.7617 21.5 23.9131 21.3711 24.0459C21.2441 24.1787 21.0742 24.2842 20.8613 24.3623C20.6484 24.4385 20.3857 24.4766 20.0732 24.4766H19.6836V26H18.7754V21.7168H20.1436ZM20.0967 22.4609H19.6836V23.7324H19.9824C20.1523 23.7324 20.2998 23.71 20.4248 23.665C20.5498 23.6201 20.6465 23.5498 20.7148 23.4541C20.7832 23.3584 20.8174 23.2354 20.8174 23.085C20.8174 22.874 20.7588 22.7178 20.6416 22.6162C20.5244 22.5127 20.3428 22.4609 20.0967 22.4609ZM25.0098 26H22.543V21.7168H25.0098V22.4609H23.4512V23.4014H24.9014V24.1455H23.4512V25.25H25.0098V26ZM27.5322 23.5947H29.2314V25.8154C29.0068 25.8896 28.7734 25.9492 28.5312 25.9941C28.2891 26.0371 28.0146 26.0586 27.708 26.0586C27.2822 26.0586 26.9209 25.9746 26.624 25.8066C26.3271 25.6387 26.1016 25.3906 25.9473 25.0625C25.793 24.7344 25.7158 24.3311 25.7158 23.8525C25.7158 23.4033 25.8018 23.0146 25.9736 22.6865C26.1475 22.3584 26.4004 22.1045 26.7324 21.9248C27.0664 21.7451 27.4736 21.6553 27.9541 21.6553C28.1807 21.6553 28.4043 21.6797 28.625 21.7285C28.8457 21.7773 29.0459 21.8408 29.2256 21.9189L28.9238 22.6455C28.793 22.5791 28.6436 22.5234 28.4756 22.4785C28.3076 22.4336 28.1318 22.4111 27.9482 22.4111C27.6846 22.4111 27.4551 22.4717 27.2598 22.5928C27.0664 22.7139 26.916 22.8838 26.8086 23.1025C26.7031 23.3193 26.6504 23.5752 26.6504 23.8701C26.6504 24.1494 26.6885 24.3975 26.7646 24.6143C26.8408 24.8291 26.9609 24.998 27.125 25.1211C27.2891 25.2422 27.5029 25.3027 27.7666 25.3027C27.8955 25.3027 28.0039 25.2969 28.0918 25.2852C28.1816 25.2715 28.2656 25.2578 28.3438 25.2441V24.3506H27.5322V23.5947Z" fill="white"/>
<path d="M31.5 19.5H30.5C30.7652 19.5 31.0196 19.6054 31.2071 19.7929C31.3946 19.9804 31.5 20.2348 31.5 20.5V27.5C31.5 27.7652 31.3946 28.0196 31.2071 28.2071C31.0196 28.3946 30.7652 28.5 30.5 28.5H31.5C31.7652 28.5 32.0196 28.3946 32.2071 28.2071C32.3946 28.0196 32.5 27.7652 32.5 27.5V20.5C32.5 20.2348 32.3946 19.9804 32.2071 19.7929C32.0196 19.6054 31.7652 19.5 31.5 19.5Z" fill="#06765B"/>
</svg>
