<svg width="46" height="46" viewBox="0 0 46 46" fill="none" xmlns="http://www.w3.org/2000/svg">
<rect x="0.5" y="0.5" width="45" height="45" rx="22.5" fill="#FBFBFB"/>
<rect x="0.5" y="0.5" width="45" height="45" rx="22.5" stroke="#F3F3F3"/>
<path d="M30.5 34H15.5C15.2348 34 14.9804 33.8946 14.7929 33.7071C14.6054 33.5196 14.5 33.2652 14.5 33V13C14.5 12.7348 14.6054 12.4804 14.7929 12.2929C14.9804 12.1054 15.2348 12 15.5 12H28.5V14C28.5 14.2652 28.6054 14.5196 28.7929 14.7071C28.9804 14.8946 29.2348 15 29.5 15H31.5V33C31.5 33.2652 31.3946 33.5196 31.2071 33.7071C31.0196 33.8946 30.7652 34 30.5 34Z" fill="#F3F3F3"/>
<path d="M30.5 15V33C30.5 33.2652 30.3946 33.5196 30.2071 33.7071C30.0196 33.8946 29.7652 34 29.5 34H30.5C30.7652 34 31.0196 33.8946 31.2071 33.7071C31.3946 33.5196 31.5 33.2652 31.5 33V15H30.5Z" fill="#C9C9C9"/>
<path d="M31.5 15H29.5C29.2348 15 28.9804 14.8946 28.7929 14.7071C28.6054 14.5196 28.5 14.2652 28.5 14V12L31.5 15Z" fill="#ABABAB"/>
<path d="M31.5 19.5H14.5C13.9477 19.5 13.5 19.9477 13.5 20.5V27.5C13.5 28.0523 13.9477 28.5 14.5 28.5H31.5C32.0523 28.5 32.5 28.0523 32.5 27.5V20.5C32.5 19.9477 32.0523 19.5 31.5 19.5Z" fill="#FF0045"/>
<path d="M18.9072 21.7168C19.46 21.7168 19.8633 21.8359 20.1172 22.0742C20.3711 22.3105 20.498 22.6367 20.498 23.0527C20.498 23.2402 20.4697 23.4199 20.4131 23.5918C20.3564 23.7617 20.2637 23.9131 20.1348 24.0459C20.0078 24.1787 19.8379 24.2842 19.625 24.3623C19.4121 24.4385 19.1494 24.4766 18.8369 24.4766H18.4473V26H17.5391V21.7168H18.9072ZM18.8604 22.4609H18.4473V23.7324H18.7461C18.916 23.7324 19.0635 23.71 19.1885 23.665C19.3135 23.6201 19.4102 23.5498 19.4785 23.4541C19.5469 23.3584 19.5811 23.2354 19.5811 23.085C19.5811 22.874 19.5225 22.7178 19.4053 22.6162C19.2881 22.5127 19.1064 22.4609 18.8604 22.4609ZM24.8604 23.8174C24.8604 24.2998 24.7676 24.7031 24.582 25.0273C24.3984 25.3496 24.1318 25.5928 23.7822 25.7568C23.4326 25.9189 23.0117 26 22.5195 26H21.3066V21.7168H22.6514C23.1006 21.7168 23.4902 21.7969 23.8203 21.957C24.1504 22.1152 24.4062 22.3506 24.5879 22.6631C24.7695 22.9736 24.8604 23.3584 24.8604 23.8174ZM23.917 23.8408C23.917 23.5244 23.8701 23.2646 23.7764 23.0615C23.6846 22.8564 23.5479 22.7051 23.3662 22.6074C23.1865 22.5098 22.9639 22.4609 22.6982 22.4609H22.2148V25.25H22.6045C23.0479 25.25 23.377 25.1318 23.5918 24.8955C23.8086 24.6592 23.917 24.3076 23.917 23.8408ZM26.6416 26H25.748V21.7168H28.2031V22.4609H26.6416V23.5654H28.0947V24.3066H26.6416V26Z" fill="white"/>
<path d="M31.5 19.5H30.5C30.7652 19.5 31.0196 19.6054 31.2071 19.7929C31.3946 19.9804 31.5 20.2348 31.5 20.5V27.5C31.5 27.7652 31.3946 28.0196 31.2071 28.2071C31.0196 28.3946 30.7652 28.5 30.5 28.5H31.5C31.7652 28.5 32.0196 28.3946 32.2071 28.2071C32.3946 28.0196 32.5 27.7652 32.5 27.5V20.5C32.5 20.2348 32.3946 19.9804 32.2071 19.7929C32.0196 19.6054 31.7652 19.5 31.5 19.5Z" fill="#BB0032"/>
</svg>
