<svg width="46" height="46" viewBox="0 0 46 46" fill="none" xmlns="http://www.w3.org/2000/svg">
<rect x="0.5" y="0.5" width="45" height="45" rx="22.5" fill="#FBFBFB"/>
<rect x="0.5" y="0.5" width="45" height="45" rx="22.5" stroke="#F3F3F3"/>
<path d="M30.5 34H15.5C15.2348 34 14.9804 33.8946 14.7929 33.7071C14.6054 33.5196 14.5 33.2652 14.5 33V13C14.5 12.7348 14.6054 12.4804 14.7929 12.2929C14.9804 12.1054 15.2348 12 15.5 12H28.5V14C28.5 14.2652 28.6054 14.5196 28.7929 14.7071C28.9804 14.8946 29.2348 15 29.5 15H31.5V33C31.5 33.2652 31.3946 33.5196 31.2071 33.7071C31.0196 33.8946 30.7652 34 30.5 34Z" fill="#F3F3F3"/>
<path d="M30.5 15V33C30.5 33.2652 30.3946 33.5196 30.2071 33.7071C30.0196 33.8946 29.7652 34 29.5 34H30.5C30.7652 34 31.0196 33.8946 31.2071 33.7071C31.3946 33.5196 31.5 33.2652 31.5 33V15H30.5Z" fill="#C9C9C9"/>
<path d="M31.5 15H29.5C29.2348 15 28.9804 14.8946 28.7929 14.7071C28.6054 14.5196 28.5 14.2652 28.5 14V12L31.5 15Z" fill="#ABABAB"/>
<path d="M31.5 19.5H14.5C13.9477 19.5 13.5 19.9477 13.5 20.5V27.5C13.5 28.0523 13.9477 28.5 14.5 28.5H31.5C32.0523 28.5 32.5 28.0523 32.5 27.5V20.5C32.5 19.9477 32.0523 19.5 31.5 19.5Z" fill="#FCBC32"/>
<path d="M17.8525 26L16.8213 22.6396H16.7949C16.7988 22.7197 16.8047 22.8408 16.8125 23.0029C16.8223 23.1631 16.8311 23.334 16.8389 23.5156C16.8467 23.6973 16.8506 23.8613 16.8506 24.0078V26H16.0391V21.7168H17.2754L18.2891 24.9922H18.3066L19.3818 21.7168H20.6182V26H19.7715V23.9727C19.7715 23.8379 19.7734 23.6826 19.7773 23.5068C19.7832 23.3311 19.79 23.1641 19.7979 23.0059C19.8057 22.8457 19.8115 22.7256 19.8154 22.6455H19.7891L18.6846 26H17.8525ZM25.5869 23.8525C25.5869 24.1826 25.5459 24.4834 25.4639 24.7549C25.3818 25.0244 25.2568 25.2568 25.0889 25.4521C24.9229 25.6475 24.7119 25.7979 24.4561 25.9033C24.2002 26.0068 23.8975 26.0586 23.5479 26.0586C23.1982 26.0586 22.8955 26.0068 22.6396 25.9033C22.3838 25.7979 22.1719 25.6475 22.0039 25.4521C21.8379 25.2568 21.7139 25.0234 21.6318 24.752C21.5498 24.4805 21.5088 24.1787 21.5088 23.8467C21.5088 23.4033 21.5811 23.0176 21.7256 22.6895C21.8721 22.3594 22.0967 22.1035 22.3994 21.9219C22.7021 21.7402 23.0869 21.6494 23.5537 21.6494C24.0186 21.6494 24.4004 21.7402 24.6992 21.9219C25 22.1035 25.2227 22.3594 25.3672 22.6895C25.5137 23.0195 25.5869 23.4072 25.5869 23.8525ZM22.4609 23.8525C22.4609 24.1514 22.498 24.4092 22.5723 24.626C22.6484 24.8408 22.7666 25.0068 22.9268 25.124C23.0869 25.2393 23.2939 25.2969 23.5479 25.2969C23.8057 25.2969 24.0146 25.2393 24.1748 25.124C24.335 25.0068 24.4512 24.8408 24.5234 24.626C24.5977 24.4092 24.6348 24.1514 24.6348 23.8525C24.6348 23.4033 24.5508 23.0498 24.3828 22.792C24.2148 22.5342 23.9385 22.4053 23.5537 22.4053C23.2979 22.4053 23.0889 22.4639 22.9268 22.5811C22.7666 22.6963 22.6484 22.8623 22.5723 23.0791C22.498 23.2939 22.4609 23.5518 22.4609 23.8525ZM29.835 21.7168L28.3789 26H27.3887L25.9355 21.7168H26.8525L27.6582 24.2656C27.6719 24.3086 27.6943 24.3896 27.7256 24.5088C27.7568 24.626 27.7881 24.751 27.8193 24.8838C27.8525 25.0146 27.875 25.123 27.8867 25.209C27.8984 25.123 27.9189 25.0146 27.9482 24.8838C27.9795 24.7529 28.0098 24.6289 28.0391 24.5117C28.0703 24.3926 28.0928 24.3105 28.1064 24.2656L28.918 21.7168H29.835Z" fill="white"/>
<path d="M31.5 19.5H30.5C30.7652 19.5 31.0196 19.6054 31.2071 19.7929C31.3946 19.9804 31.5 20.2348 31.5 20.5V27.5C31.5 27.7652 31.3946 28.0196 31.2071 28.2071C31.0196 28.3946 30.7652 28.5 30.5 28.5H31.5C31.7652 28.5 32.0196 28.3946 32.2071 28.2071C32.3946 28.0196 32.5 27.7652 32.5 27.5V20.5C32.5 20.2348 32.3946 19.9804 32.2071 19.7929C32.0196 19.6054 31.7652 19.5 31.5 19.5Z" fill="#D79B1A"/>
</svg>
